<svg width="124" height="20" viewBox="0 0 124 20" fill="none" xmlns="http://www.w3.org/2000/svg">
<g clip-path="url(#clip0_1244_9202)">
<path fill-rule="evenodd" clip-rule="evenodd" d="M30.0288 6.55029C28.7219 6.55029 27.6018 7.01594 26.6683 7.76098V6.73655H23.4945V18.7503H26.7616V11.1136C27.2284 10.4617 28.3485 9.62357 29.7487 9.62357C30.2155 9.62357 30.6822 9.7167 31.0556 9.80983V6.73655C30.6822 6.64342 30.3088 6.55029 30.0288 6.55029Z" fill="#97A1AF"/>
<path fill-rule="evenodd" clip-rule="evenodd" d="M1.93129 15.0255C2.77141 15.7705 4.07827 16.2361 5.19843 16.2361C6.03855 16.2361 6.78532 15.7705 6.78532 15.2117C6.78532 13.3491 0.904478 14.001 0.904478 10.1827C0.904478 7.85446 3.1448 6.45752 5.47847 6.45752C7.06536 6.45752 8.74561 7.0163 9.58573 7.66821L8.09218 9.99645C7.43875 9.62393 6.69198 9.15828 5.75851 9.15828C4.82504 9.15828 4.17161 9.5308 4.17161 10.1827C4.17161 11.7659 10.0525 11.114 10.0525 15.3048C10.0525 17.6331 7.81214 19.03 5.29178 19.03C3.61153 19.03 1.83795 18.4712 0.437744 17.4468L1.93129 15.0255Z" fill="#97A1AF"/>
<path fill-rule="evenodd" clip-rule="evenodd" d="M22.0943 12.6041C22.0943 9.25141 19.7606 6.45752 16.4001 6.45752C12.853 6.45752 10.5193 9.43767 10.5193 12.6972C10.5193 16.5155 13.2263 18.9369 16.7735 18.9369C18.6405 18.9369 20.5074 18.1919 21.7209 16.7949L19.854 14.9323C19.2939 15.5842 18.1737 16.3293 16.8669 16.3293C15.1866 16.3293 13.7864 15.1186 13.5997 13.4422H21.9076C22.0943 13.256 22.0943 12.9766 22.0943 12.6041ZM13.8798 11.2071C14.0665 10.0896 15.1866 9.06515 16.4935 9.06515C17.8003 9.06515 18.7338 10.0896 18.9205 11.2071H13.8798V11.2071Z" fill="#97A1AF"/>
<path fill-rule="evenodd" clip-rule="evenodd" d="M38.6166 14.0941L41.8838 6.73682H45.2443L39.7368 18.7505H37.4965L31.989 6.73682H35.2561L38.6166 14.0941Z" fill="#97A1AF"/>
<path fill-rule="evenodd" clip-rule="evenodd" d="M47.9513 1.05615C49.1648 1.05615 50.0983 1.98745 50.0983 3.10501C50.0983 4.31569 49.1648 5.15386 47.9513 5.15386C46.7378 5.15386 45.8977 4.22256 45.8977 3.10501C45.8977 1.89432 46.7378 1.05615 47.9513 1.05615Z" fill="#97A1AF"/>
<path d="M49.6315 6.73682H46.3644V18.7505H49.6315V6.73682Z" fill="#97A1AF"/>
<path fill-rule="evenodd" clip-rule="evenodd" d="M62.8868 16.2361C61.4866 18.0987 59.713 18.9369 57.4727 18.9369C53.7388 18.9369 51.0317 16.143 51.0317 12.6972C51.0317 9.15828 53.8321 6.45752 57.4727 6.45752C59.6196 6.45752 61.3932 7.48195 62.5134 8.87889L60.3664 10.8346C59.713 9.99645 58.7795 9.43767 57.6594 9.43767C55.7924 9.43767 54.3922 10.9277 54.3922 12.6972C54.3922 14.5598 55.6991 15.9567 57.6594 15.9567C58.9662 15.9567 59.993 15.2117 60.5531 14.3735L62.8868 16.2361Z" fill="#97A1AF"/>
<path fill-rule="evenodd" clip-rule="evenodd" d="M74.5551 16.7949C73.3416 18.1919 71.4747 18.9369 69.6078 18.9369C66.0606 18.9369 63.3535 16.5155 63.3535 12.6972C63.3535 9.34454 65.5938 6.45752 69.2344 6.45752C72.5015 6.45752 74.9285 9.25141 74.9285 12.6041C74.9285 12.9766 74.9285 13.256 74.8352 13.5354H66.434C66.6207 15.2117 68.0209 16.4224 69.7011 16.4224C71.008 16.4224 72.1281 15.6774 72.6882 15.0255L74.5551 16.7949ZM71.568 11.2071C71.4747 10.1827 70.5412 9.06515 69.141 9.06515C67.8342 9.06515 66.714 10.0896 66.5273 11.2071H71.568V11.2071Z" fill="#97A1AF"/>
<path fill-rule="evenodd" clip-rule="evenodd" d="M76.142 18.7503V6.73655H79.2224V7.76098C80.1559 7.01594 81.276 6.55029 82.5829 6.55029C84.2631 6.55029 85.7567 7.29533 86.7835 8.50602C87.5303 9.43731 88.0903 10.648 88.0903 12.6969V18.8434H84.8232V12.4175C84.8232 11.2068 84.5432 10.5549 84.0764 10.1823C83.6097 9.7167 83.0496 9.43731 82.2095 9.43731C80.9027 9.43731 79.7825 10.2755 79.2224 10.9274V18.7503C79.3158 18.7503 76.142 18.7503 76.142 18.7503Z" fill="#97A1AF"/>
<path fill-rule="evenodd" clip-rule="evenodd" d="M96.3983 6.45752C92.4777 6.45752 89.3973 9.5308 89.3973 13.4422C89.3973 15.4911 90.2374 17.3537 91.5443 18.6575C92.011 19.1232 92.8511 19.1232 93.4112 18.7506C94.158 18.0987 95.2781 17.7262 96.3983 17.7262C97.6118 17.7262 98.5453 18.0987 99.3854 18.7506C99.9455 19.2163 100.692 19.1232 101.252 18.5644C102.559 17.2606 103.399 15.4911 103.399 13.4422C103.306 9.62393 100.226 6.45752 96.3983 6.45752ZM96.3049 17.0743C94.158 17.0743 92.7578 15.4911 92.7578 13.5354C92.7578 11.5797 94.158 9.99645 96.3049 9.99645C98.4519 9.99645 99.8521 11.5797 99.8521 13.5354C99.8521 15.4911 98.4519 17.0743 96.3049 17.0743Z" fill="#BFF8E2"/>
<path fill-rule="evenodd" clip-rule="evenodd" d="M109.747 18.7505H107.32L102.559 6.73682H105.733L108.347 13.6284L110.96 6.73682H113.667L116.188 13.6284L118.802 6.73682H122.069L117.308 18.7505H114.881L112.267 11.9521L109.747 18.7505Z" fill="#97A1AF"/>
<path d="M122.069 17.3537H121.789V17.8193H121.602V16.4224H122.162C122.442 16.4224 122.629 16.6086 122.629 16.888C122.629 17.0743 122.442 17.2605 122.349 17.3537L122.722 17.9124H122.442L122.069 17.3537ZM121.789 17.1674H122.162C122.349 17.1674 122.349 17.0743 122.349 16.9811C122.349 16.7949 122.255 16.7949 122.162 16.7949H121.789V17.1674Z" fill="#97A1AF"/>
<path d="M122.069 15.9566C122.815 15.9566 123.375 16.5154 123.375 17.2604C123.375 18.0055 122.815 18.5643 122.069 18.5643C121.322 18.5643 120.762 18.0055 120.762 17.2604C120.762 16.5154 121.415 15.9566 122.069 15.9566ZM122.069 15.6772C121.229 15.6772 120.575 16.4223 120.575 17.1673C120.575 18.0055 121.322 18.6574 122.069 18.6574C122.909 18.6574 123.562 17.9124 123.562 17.1673C123.562 16.4223 122.815 15.6772 122.069 15.6772Z" fill="#97A1AF"/>
</g>
<defs>
<clipPath id="clip0_1244_9202">
<rect width="123.684" height="18.6965" fill="white" transform="translate(0.157715 0.555176)"/>
</clipPath>
</defs>
</svg>
