<svg width="54" height="54" viewBox="0 0 54 54" fill="none" xmlns="http://www.w3.org/2000/svg">
<path d="M32.3424 10.501H14.628V52.0807H52.2635V10.501H32.3424Z" fill="#AFB9D2"/>
<path d="M14.628 10.501H1.34442V52.0807H14.628V10.501Z" fill="#ECF0F1"/>
<path d="M52.2635 1.74414H32.3337V10.5014H52.2635V1.74414Z" fill="#414A56"/>
<path d="M32.3424 1.74414V10.5014H14.628H1.34442V1.74414H32.3424Z" fill="#57606F"/>
<path d="M46.6859 4.98438C46.9878 4.98438 47.2773 5.10429 47.4907 5.31772C47.7042 5.53116 47.824 5.82066 47.824 6.1225C47.824 6.42434 47.7042 6.71381 47.4907 6.92725C47.2773 7.14068 46.9878 7.2606 46.6859 7.2606C46.3838 7.25625 46.0951 7.13548 45.8798 6.92346C45.6645 6.71143 45.5394 6.42451 45.5305 6.1225C45.5548 5.82584 45.6848 5.54776 45.8969 5.33888C46.1089 5.13001 46.3889 5.0042 46.6859 4.98438Z" fill="black"/>
<path d="M45.626 40.0049H43.4106V42.1942H45.626V40.0049Z" fill="black"/>
<path d="M45.626 35.626H43.4106V37.8153H45.626V35.626Z" fill="black"/>
<path d="M42.2552 4.98438C42.4799 4.98609 42.6991 5.05432 42.8851 5.18041C43.0711 5.30651 43.2156 5.48483 43.3004 5.69294C43.3853 5.90104 43.4065 6.1296 43.3616 6.34979C43.3167 6.56999 43.2077 6.77197 43.0482 6.93027C42.8887 7.08857 42.6859 7.19609 42.4653 7.23931C42.2448 7.28252 42.0164 7.25949 41.809 7.1731C41.6015 7.08671 41.4243 6.94085 41.2996 6.75388C41.1749 6.56691 41.1084 6.34722 41.1084 6.1225C41.1289 5.82595 41.2566 5.54697 41.4675 5.33758C41.6785 5.12819 41.9585 5.00264 42.2552 4.98438Z" fill="black"/>
<path d="M41.1952 40.0049H38.9799V42.1942H41.1952V40.0049Z" fill="black"/>
<path d="M41.1952 35.626H38.9799V37.8153H41.1952V35.626Z" fill="black"/>
<path d="M37.8244 4.98438C38.0491 4.98609 38.2683 5.05432 38.4543 5.18041C38.6403 5.30651 38.7848 5.48483 38.8697 5.69294C38.9545 5.90104 38.9758 6.1296 38.9309 6.34979C38.886 6.56999 38.7769 6.77197 38.6174 6.93027C38.4579 7.08857 38.2551 7.19609 38.0346 7.23931C37.8141 7.28252 37.5856 7.25949 37.3782 7.1731C37.1707 7.08671 36.9935 6.94085 36.8688 6.75388C36.7441 6.56691 36.6776 6.34722 36.6776 6.1225C36.6981 5.82595 36.8258 5.54697 37.0368 5.33758C37.2478 5.12819 37.5277 5.00264 37.8244 4.98438Z" fill="black"/>
<path d="M36.7645 40.0049H34.5491V42.1942H36.7645V40.0049Z" fill="black"/>
<path d="M36.7645 35.626H34.5491V37.8153H36.7645V35.626Z" fill="black"/>
<path d="M32.3424 40.0049H30.127V42.1942H32.3424V40.0049Z" fill="black"/>
<path d="M32.3424 35.626H30.127V37.8153H32.3424V35.626Z" fill="black"/>
<path d="M27.9116 40.0049H25.6962V42.1942H27.9116V40.0049Z" fill="black"/>
<path d="M27.9116 35.626H25.6962V37.8153H27.9116V35.626Z" fill="black"/>
<path d="M23.4808 40.0049H21.2654V42.1942H23.4808V40.0049Z" fill="black"/>
<path d="M23.4808 35.626H21.2654V37.8153H23.4808V35.626Z" fill="black"/>
<path d="M52.2635 53.1318H1.34439C1.04228 53.1274 0.753501 53.0067 0.538239 52.7947C0.322977 52.5826 0.197825 52.2957 0.188904 51.9937V1.74357C0.195675 1.44085 0.32013 1.15267 0.535853 0.940195C0.751576 0.727716 1.04161 0.607653 1.34439 0.605469H52.2635C52.5647 0.609891 52.8526 0.730947 53.0664 0.943191C53.2803 1.15544 53.4036 1.44233 53.4103 1.74357V52.0458C53.363 52.3268 53.2255 52.5848 53.0186 52.7807C52.8117 52.9766 52.5466 53.0999 52.2635 53.1318ZM2.40428 50.9425H51.1341V2.79478H2.40428V50.9425Z" fill="black"/>
<path d="M52.2635 11.5438H1.3444C1.04255 11.5438 0.753055 11.4239 0.53962 11.2104C0.326185 10.997 0.206299 10.7075 0.206299 10.4057C0.206299 10.1038 0.326185 9.81433 0.53962 9.6009C0.753055 9.38746 1.04255 9.26758 1.3444 9.26758H52.2635C52.5647 9.272 52.8526 9.39306 53.0664 9.6053C53.2803 9.81755 53.4036 10.1044 53.4103 10.4057C53.3765 10.6973 53.2446 10.9688 53.0362 11.1756C52.8278 11.3824 52.5554 11.5122 52.2635 11.5438Z" fill="black"/>
<path d="M32.3424 11.5436C32.0396 11.5415 31.7496 11.4214 31.5338 11.2089C31.3181 10.9964 31.1937 10.7083 31.1869 10.4055V1.65694C31.2119 1.3689 31.3441 1.10073 31.5572 0.905349C31.7703 0.709964 32.0489 0.601562 32.338 0.601562C32.6272 0.601562 32.9058 0.709964 33.1189 0.905349C33.332 1.10073 33.4641 1.3689 33.4892 1.65694V10.4055C33.4554 10.6972 33.3235 10.9687 33.1151 11.1755C32.9067 11.3823 32.6343 11.5121 32.3424 11.5436Z" fill="black"/>
<path d="M14.6454 53.132C14.3432 53.1277 14.0545 53.0069 13.8392 52.7949C13.6239 52.5828 13.4988 52.2959 13.4899 51.9939V10.4924C13.5149 10.2044 13.647 9.93616 13.8601 9.74077C14.0733 9.54539 14.3519 9.43701 14.641 9.43701C14.9301 9.43701 15.2088 9.54539 15.4219 9.74077C15.635 9.93616 15.7671 10.2044 15.7922 10.4924V52.046C15.7449 52.327 15.6074 52.585 15.4005 52.7809C15.1936 52.9769 14.9285 53.1001 14.6454 53.132Z" fill="black"/>
<path d="M9.05047 15.9222H5.6796C5.37776 15.9222 5.08826 15.8023 4.87483 15.5889C4.66139 15.3754 4.5415 15.0859 4.5415 14.7841C4.5415 14.4823 4.66139 14.1928 4.87483 13.9793C5.08826 13.7659 5.37776 13.646 5.6796 13.646H9.05047C9.35231 13.646 9.64181 13.7659 9.85524 13.9793C10.0687 14.1928 10.1886 14.4823 10.1886 14.7841C10.1886 15.0859 10.0687 15.3754 9.85524 15.5889C9.64181 15.8023 9.35231 15.9222 9.05047 15.9222Z" fill="black"/>
<path d="M10.1973 20.3011H6.82639C6.52455 20.3011 6.23505 20.1812 6.02161 19.9678C5.80818 19.7543 5.68829 19.4648 5.68829 19.163C5.68829 18.8612 5.80818 18.5717 6.02161 18.3583C6.23505 18.1448 6.52455 18.0249 6.82639 18.0249H10.1886C10.4907 18.0292 10.7795 18.15 10.9947 18.362C11.21 18.5741 11.3351 18.861 11.344 19.163C11.3073 19.4535 11.1745 19.7233 10.9667 19.9295C10.7588 20.1358 10.488 20.2666 10.1973 20.3011Z" fill="black"/>
<path d="M10.1973 24.6795H5.76651C5.46466 24.6795 5.17517 24.5596 4.96173 24.3462C4.7483 24.1327 4.62836 23.8433 4.62836 23.5414C4.62836 23.2396 4.7483 22.9501 4.96173 22.7367C5.17517 22.5232 5.46466 22.4033 5.76651 22.4033H10.1973C10.4994 22.4077 10.7881 22.5284 11.0034 22.7405C11.2187 22.9525 11.3438 23.2394 11.3527 23.5414C11.3142 23.8326 11.1795 24.1026 10.9703 24.3088C10.761 24.5149 10.489 24.6453 10.1973 24.6795Z" fill="black"/>
<path d="M10.1973 29.0579H5.76651C5.46466 29.0579 5.17517 28.938 4.96173 28.7246C4.7483 28.5112 4.62836 28.2217 4.62836 27.9198C4.62836 27.618 4.7483 27.3285 4.96173 27.1151C5.17517 26.9016 5.46466 26.7817 5.76651 26.7817H10.1973C10.4994 26.7861 10.7881 26.9069 11.0034 27.1189C11.2187 27.3309 11.3438 27.6178 11.3527 27.9198C11.3284 28.2165 11.1984 28.4946 10.9863 28.7034C10.7743 28.9123 10.4943 29.0381 10.1973 29.0579Z" fill="black"/>
<path d="M33.4023 19.2498H21.2394C20.9376 19.2498 20.6481 19.1299 20.4346 18.9165C20.2212 18.703 20.1013 18.4136 20.1013 18.1117C20.1013 17.8099 20.2212 17.5204 20.4346 17.307C20.6481 17.0935 20.9376 16.9736 21.2394 16.9736H33.4631C33.7652 16.978 34.054 17.0987 34.2693 17.3108C34.4845 17.5228 34.6096 17.8097 34.6186 18.1117C34.5774 18.4123 34.434 18.6895 34.2125 18.8967C33.991 19.104 33.7049 19.2287 33.4023 19.2498Z" fill="black"/>
<path d="M44.4705 23.6282H32.3077C32.0058 23.6282 31.7163 23.5083 31.5029 23.2949C31.2894 23.0815 31.1696 22.792 31.1696 22.4901C31.1696 22.1883 31.2894 21.8988 31.5029 21.6854C31.7163 21.4719 32.0058 21.3521 32.3077 21.3521H44.4705C44.7724 21.3521 45.0618 21.4719 45.2753 21.6854C45.4887 21.8988 45.6086 22.1883 45.6086 22.4901C45.6086 22.792 45.4887 23.0815 45.2753 23.2949C45.0618 23.5083 44.7724 23.6282 44.4705 23.6282Z" fill="black"/>
<path d="M33.4023 28.0072H21.2394C20.9376 28.0072 20.6481 27.8873 20.4346 27.6738C20.2212 27.4604 20.1013 27.1709 20.1013 26.8691C20.1013 26.5672 20.2212 26.2777 20.4346 26.0643C20.6481 25.8509 20.9376 25.731 21.2394 25.731H33.4631C33.7638 25.7329 34.0523 25.8503 34.269 26.0588C34.4856 26.2674 34.6139 26.5512 34.6273 26.8517C34.5879 27.1561 34.4444 27.4375 34.2211 27.6481C33.9978 27.8588 33.7085 27.9856 33.4023 28.0072Z" fill="black"/>
<path d="M44.4705 32.3856H32.3077C32.0058 32.3856 31.7163 32.2657 31.5029 32.0522C31.2894 31.8388 31.1696 31.5493 31.1696 31.2475C31.1696 30.9456 31.2894 30.6562 31.5029 30.4427C31.7163 30.2293 32.0058 30.1094 32.3077 30.1094H44.4705C44.7724 30.1094 45.0618 30.2293 45.2753 30.4427C45.4887 30.6562 45.6086 30.9456 45.6086 31.2475C45.6086 31.5493 45.4887 31.8388 45.2753 32.0522C45.0618 32.2657 44.7724 32.3856 44.4705 32.3856Z" fill="black"/>
</svg>
