<svg width="54" height="54" viewBox="0 0 54 54" fill="none" xmlns="http://www.w3.org/2000/svg">
<path d="M26.662 26.8081H33.3863C33.3829 27.6869 33.2062 28.5564 32.8662 29.3668C32.5262 30.1772 32.0296 30.9126 31.405 31.5308C30.7804 32.1489 30.0399 32.6379 29.226 32.9694C28.4121 33.301 27.5408 33.4686 26.662 33.4629V26.8081Z" fill="#DA5359"/>
<path d="M33.3863 26.8079H26.662V20.1618C27.5401 20.156 28.4107 20.3235 29.224 20.6545C30.0373 20.9855 30.7774 21.4736 31.4019 22.0908C32.0265 22.7081 32.5232 23.4425 32.8637 24.2518C33.2042 25.0612 33.3818 25.9298 33.3863 26.8079Z" fill="#DA5359"/>
<path d="M26.662 26.8081V33.4629C25.7824 33.4698 24.9102 33.3029 24.0953 32.9719C23.2804 32.6409 22.5389 32.1522 21.9134 31.5339C21.2878 30.9156 20.7904 30.1798 20.4499 29.3689C20.1094 28.5579 19.9323 27.6877 19.9289 26.8081H26.662Z" fill="#DA5359"/>
<path d="M26.662 20.1359V26.8082H19.9289C19.93 25.9271 20.1054 25.055 20.4449 24.2421C20.7844 23.4291 21.2814 22.6913 21.9072 22.0712C22.533 21.451 23.2753 20.9608 24.0913 20.6286C24.9073 20.2965 25.781 20.1291 26.662 20.1359Z" fill="#DA5359"/>
<path d="M40.0325 26.8081H46.5831C46.5463 32.0602 44.4288 37.0835 40.6946 40.777C36.9604 44.4705 31.9142 46.5328 26.662 46.512V40.0309C30.1854 40.0402 33.5693 38.6548 36.0745 36.1772C38.5798 33.6997 40.0027 30.3314 40.0325 26.8081Z" fill="#EF727A"/>
<path d="M26.662 40.0048V46.486C21.4135 46.5068 16.3703 44.4483 12.6354 40.7607C8.9006 37.0731 6.77811 32.0565 6.73221 26.8081H13.2828C13.3218 30.3276 14.7496 33.6892 17.2555 36.1609C19.7614 38.6326 23.1422 40.0142 26.662 40.0048Z" fill="#EF727A"/>
<path d="M26.662 7.08711V13.5682C23.1341 13.5566 19.7454 14.9434 17.2378 17.425C14.7302 19.9065 13.3081 23.2806 13.2828 26.8084H6.73221C6.76438 21.5517 8.8811 16.5227 12.6177 12.8252C16.3542 9.12771 21.4053 7.06399 26.662 7.08711Z" fill="#EF727A"/>
<path d="M46.5831 26.8083H40.0325C40.0004 23.2866 38.5764 19.9205 36.0715 17.4448C33.5665 14.9692 30.1839 13.5849 26.662 13.5942V7.08707C31.9172 7.06626 36.966 9.13099 40.7007 12.8282C44.4354 16.5255 46.5509 21.5532 46.5831 26.8083Z" fill="#EF727A"/>
<path d="M26.662 47.6586C22.548 47.6141 18.5392 46.3534 15.1402 44.0354C11.7411 41.7173 9.10381 38.4456 7.56025 34.6319C6.01669 30.8182 5.63589 26.6331 6.46574 22.6035C7.2956 18.5739 9.29902 14.8798 12.2238 11.9863C15.1486 9.09284 18.8641 7.12933 22.9025 6.34294C26.9408 5.55655 31.1216 5.98243 34.9184 7.56699C38.7152 9.15155 41.9584 11.8239 44.2397 15.2478C46.5209 18.6716 47.7383 22.6938 47.7385 26.808C47.6949 32.3636 45.4532 37.6759 41.5035 41.5832C37.5539 45.4905 32.2177 47.6749 26.662 47.6586ZM26.662 8.25954C22.99 8.30927 19.4148 9.44437 16.3865 11.5219C13.3583 13.5993 11.0125 16.5264 9.64439 19.9344C8.27628 23.3423 7.94711 27.0789 8.6983 30.6736C9.44948 34.2683 11.2474 37.5604 13.8658 40.1353C16.4841 42.7102 19.8058 44.453 23.4126 45.1439C27.0193 45.8349 30.7499 45.4433 34.1345 44.0184C37.5191 42.5935 40.4066 40.199 42.4331 37.1365C44.4597 34.0739 45.5348 30.4803 45.5232 26.808C45.4727 21.8468 43.4605 17.1074 39.9263 13.6253C36.3921 10.1432 31.6233 8.20156 26.662 8.22478V8.25954Z" fill="black"/>
<path d="M26.662 41.1428C23.8274 41.112 21.0654 40.2429 18.7239 38.6451C16.3823 37.0473 14.566 34.7923 13.5038 32.1641C12.4416 29.5359 12.1809 26.6521 12.7547 23.8761C13.3285 21.1 14.711 18.5558 16.7281 16.5641C18.7452 14.5724 21.3066 13.2221 24.0897 12.6835C26.8728 12.1449 29.7531 12.442 32.3676 13.5373C34.9822 14.6327 37.2141 16.4774 38.7821 18.8389C40.3502 21.2005 41.1842 23.9733 41.1793 26.808C41.1494 30.6323 39.6045 34.2887 36.8832 36.9757C34.162 39.6628 30.4863 41.1614 26.662 41.1428ZM26.662 14.6191C24.2625 14.6465 21.9247 15.383 19.9429 16.7361C17.9611 18.0891 16.4238 19.9982 15.5245 22.2229C14.6252 24.4477 14.4041 26.8887 14.889 29.2389C15.3738 31.589 16.5431 33.7432 18.2495 35.4304C19.9559 37.1175 22.1233 38.2622 24.4788 38.7203C26.8343 39.1785 29.2727 38.9296 31.4871 38.0051C33.7014 37.0806 35.5928 35.5217 36.9233 33.5246C38.2537 31.5275 38.9637 29.1816 38.9639 26.7819C38.9295 23.5451 37.6172 20.4531 35.3128 18.1796C33.0085 15.9062 29.899 14.6358 26.662 14.6451V14.6191Z" fill="black"/>
<path d="M26.662 34.5748C25.1182 34.5628 23.6125 34.094 22.3347 33.2276C21.0569 32.3612 20.0642 31.1359 19.4817 29.7061C18.8992 28.2763 18.753 26.7061 19.0615 25.1934C19.3701 23.6807 20.1195 22.2932 21.2154 21.2058C22.3113 20.1183 23.7046 19.3797 25.2196 19.0829C26.7347 18.7861 28.3037 18.9444 29.7289 19.538C31.1541 20.1315 32.3717 21.1337 33.2282 22.4182C34.0847 23.7026 34.5418 25.2119 34.5418 26.7558C34.5418 27.7877 34.3376 28.8095 33.9409 29.7621C33.5441 30.7147 32.9628 31.5794 32.2302 32.3063C31.4977 33.0331 30.6285 33.6078 29.6728 33.9971C28.7172 34.3865 27.6939 34.5828 26.662 34.5748ZM26.662 21.1782C25.5564 21.1902 24.479 21.5291 23.5655 22.152C22.652 22.775 21.9433 23.6543 21.5285 24.6792C21.1137 25.7042 21.0114 26.8289 21.2344 27.9119C21.4574 28.9948 21.9959 29.9876 22.7819 30.7652C23.568 31.5428 24.5665 32.0705 25.6518 32.2818C26.7371 32.4932 27.8606 32.3787 28.881 31.9528C29.9014 31.527 30.773 30.8088 31.3861 29.8886C31.9992 28.9685 32.3264 27.8875 32.3264 26.7818C32.3059 25.2915 31.7006 23.869 30.641 22.8208C29.5815 21.7725 28.1524 21.1826 26.662 21.1782Z" fill="black"/>
<path d="M52.1954 53.0452H1.24152C0.939679 53.0452 0.650234 52.9253 0.436799 52.7119C0.223364 52.4984 0.103424 52.209 0.103424 51.9071C0.103424 51.6053 0.223364 51.3158 0.436799 51.1024C0.650234 50.8889 0.939679 50.769 1.24152 50.769H52.1954C52.4975 50.7734 52.7863 50.8942 53.0015 51.1062C53.2168 51.3182 53.342 51.6051 53.3509 51.9071C53.3152 52.1995 53.1816 52.4711 52.9717 52.6778C52.7619 52.8845 52.4883 53.014 52.1954 53.0452Z" fill="black"/>
<path d="M26.662 53.0452C26.3592 53.043 26.0692 52.9229 25.8534 52.7104C25.6377 52.498 25.5133 52.2098 25.5065 51.9071V1.65694C25.5316 1.3689 25.6636 1.10073 25.8768 0.905349C26.0899 0.709964 26.3685 0.601562 26.6576 0.601562C26.9467 0.601562 27.2254 0.709964 27.4385 0.905349C27.6516 1.10073 27.7837 1.3689 27.8088 1.65694V52.0026C27.7827 52.2884 27.6505 52.554 27.4382 52.747C27.2259 52.94 26.9489 53.0464 26.662 53.0452Z" fill="black"/>
<path d="M52.1954 27.9202H1.24152C0.939679 27.9202 0.650234 27.8003 0.436799 27.5869C0.223364 27.3735 0.103424 27.084 0.103424 26.7821C0.103424 26.4803 0.223364 26.1908 0.436799 25.9774C0.650234 25.764 0.939679 25.644 1.24152 25.644H52.1954C52.4975 25.6484 52.7863 25.7692 53.0015 25.9812C53.2168 26.1932 53.342 26.4801 53.3509 26.7821C53.3152 27.0745 53.1816 27.3462 52.9717 27.5528C52.7619 27.7595 52.4883 27.889 52.1954 27.9202Z" fill="black"/>
</svg>
