<svg width="54" height="54" viewBox="0 0 54 54" fill="none" xmlns="http://www.w3.org/2000/svg">
<path d="M52.1231 1.74414H32.1933V10.5014H52.1231V1.74414Z" fill="#596984"/>
<path d="M32.1933 1.74414H1.19531V10.5014H32.1933V1.74414Z" fill="#74829C"/>
<path d="M52.1144 10.501V52.0807H1.19531V10.501H32.1933H52.1144Z" fill="#ECF0F1"/>
<path d="M46.5368 4.97559C46.7611 4.97901 46.9794 5.04867 47.1643 5.17579C47.3491 5.30291 47.4923 5.48182 47.5758 5.69006C47.6593 5.8983 47.6794 6.12656 47.6335 6.34618C47.5877 6.56579 47.4779 6.76697 47.3181 6.9244C47.1582 7.08183 46.9554 7.1885 46.7351 7.23102C46.5149 7.27354 46.287 7.25001 46.08 7.16339C45.8731 7.07676 45.6963 6.9309 45.572 6.74414C45.4477 6.55737 45.3814 6.33803 45.3813 6.11368C45.4057 5.81702 45.5357 5.53894 45.7477 5.33006C45.9598 5.12119 46.2398 4.99541 46.5368 4.97559Z" fill="black"/>
<path d="M42.1061 4.97559C42.3308 4.9773 42.5499 5.0455 42.736 5.1716C42.922 5.29769 43.0665 5.47604 43.1513 5.68415C43.2361 5.89225 43.2574 6.12081 43.2126 6.34101C43.1677 6.5612 43.0586 6.76316 42.8991 6.92145C42.7396 7.07975 42.5368 7.1873 42.3163 7.23052C42.0957 7.27373 41.8673 7.25068 41.6599 7.16429C41.4524 7.0779 41.2752 6.93203 41.1505 6.74506C41.0258 6.5581 40.9593 6.33841 40.9593 6.11368C40.9816 5.81777 41.1098 5.53982 41.3204 5.33078C41.5311 5.12175 41.81 4.99564 42.1061 4.97559Z" fill="black"/>
<path d="M37.684 4.97559C37.9083 4.97901 38.1266 5.04867 38.3115 5.17579C38.4963 5.30291 38.6395 5.48182 38.723 5.69006C38.8065 5.8983 38.8265 6.12656 38.7807 6.34618C38.7348 6.56579 38.6251 6.76697 38.4652 6.9244C38.3054 7.08183 38.1026 7.1885 37.8823 7.23102C37.662 7.27354 37.4341 7.25001 37.2272 7.16339C37.0202 7.07676 36.8435 6.9309 36.7192 6.74414C36.5949 6.55737 36.5285 6.33803 36.5285 6.11368C36.5511 5.81638 36.6805 5.5373 36.893 5.32808C37.1054 5.11885 37.3864 4.99363 37.684 4.97559Z" fill="black"/>
<path d="M52.1144 53.1318H1.1953C0.893185 53.1274 0.604407 53.0067 0.389146 52.7947C0.173884 52.5826 0.0487314 52.2957 0.0398102 51.9937V1.74357C0.0487314 1.44155 0.173884 1.15463 0.389146 0.942608C0.604407 0.730583 0.893185 0.609813 1.1953 0.605469H52.1144C52.4172 0.607653 52.7072 0.727716 52.9229 0.940195C53.1386 1.15267 53.2631 1.44085 53.2699 1.74357V52.0806C53.2129 52.3554 53.0704 52.605 52.8628 52.7939C52.6553 52.9827 52.3933 53.101 52.1144 53.1318ZM2.25518 50.9425H50.9676V2.79478H2.25518V50.9425Z" fill="black"/>
<path d="M52.1144 11.5438H1.19531C0.893467 11.5438 0.603969 11.4239 0.390534 11.2104C0.177099 10.997 0.0572128 10.7075 0.0572128 10.4057C0.0572128 10.1038 0.177099 9.81436 0.390534 9.60093C0.603969 9.38749 0.893467 9.26758 1.19531 9.26758H52.1144C52.4165 9.27192 52.7053 9.39269 52.9205 9.60472C53.1358 9.81674 53.261 10.1037 53.2699 10.4057C53.2327 10.6974 53.0986 10.9683 52.889 11.1747C52.6795 11.3811 52.4067 11.5111 52.1144 11.5438Z" fill="black"/>
<path d="M32.1933 11.5436C31.8905 11.5415 31.6005 11.4214 31.3848 11.2089C31.1691 10.9964 31.0446 10.7083 31.0378 10.4055V1.65694C31.0629 1.3689 31.195 1.10073 31.4081 0.905349C31.6212 0.709964 31.8999 0.601562 32.189 0.601562C32.4781 0.601562 32.7567 0.709964 32.9698 0.905349C33.1829 1.10073 33.3151 1.3689 33.3401 1.65694V10.4055C33.3064 10.6972 33.1745 10.9687 32.9661 11.1755C32.7577 11.3823 32.4852 11.5121 32.1933 11.5436Z" fill="black"/>
<path d="M6.68597 22.4902C6.38385 22.4858 6.09502 22.365 5.87976 22.153C5.6645 21.941 5.5394 21.6541 5.53048 21.3521V14.7841C5.5394 14.4821 5.6645 14.1952 5.87976 13.9831C6.09502 13.7711 6.38385 13.6503 6.68597 13.646H14.505C14.8068 13.646 15.0963 13.7659 15.3097 13.9793C15.5231 14.1928 15.6431 14.4823 15.6431 14.7841C15.6431 15.0859 15.5231 15.3754 15.3097 15.5888C15.0963 15.8023 14.8068 15.9222 14.505 15.9222H7.8588V21.4389C7.83248 21.73 7.69687 22.0003 7.47924 22.1953C7.26161 22.3904 6.97816 22.4957 6.68597 22.4902Z" fill="black"/>
<path d="M45.4769 38.9451H7.83273C7.53088 38.9451 7.24144 38.8253 7.028 38.6118C6.81457 38.3984 6.69463 38.1089 6.69463 37.807C6.69463 37.5052 6.81457 37.2158 7.028 37.0023C7.24144 36.7889 7.53088 36.6689 7.83273 36.6689H45.4769C45.7782 36.6734 46.066 36.7944 46.2799 37.0067C46.4937 37.2189 46.617 37.5058 46.6237 37.807C46.6032 38.1036 46.4755 38.3826 46.2645 38.592C46.0536 38.8014 45.7736 38.9269 45.4769 38.9451Z" fill="black"/>
<path d="M45.4769 43.3236H7.83273C7.53088 43.3236 7.24144 43.2036 7.028 42.9902C6.81457 42.7767 6.69463 42.4873 6.69463 42.1855C6.69463 41.8836 6.81457 41.5941 7.028 41.3807C7.24144 41.1672 7.53088 41.0474 7.83273 41.0474H45.4769C45.7782 41.0518 46.066 41.1728 46.2799 41.3851C46.4937 41.5973 46.617 41.8842 46.6237 42.1855C46.5899 42.4771 46.458 42.7486 46.2496 42.9554C46.0413 43.1622 45.7688 43.292 45.4769 43.3236Z" fill="black"/>
<path d="M45.4769 47.702H7.83273C7.53088 47.702 7.24144 47.5821 7.028 47.3687C6.81457 47.1552 6.69463 46.8657 6.69463 46.5639C6.69463 46.262 6.81457 45.9725 7.028 45.7591C7.24144 45.5457 7.53088 45.4258 7.83273 45.4258H45.4769C45.7782 45.4302 46.066 45.5513 46.2799 45.7635C46.4937 45.9757 46.617 46.2626 46.6237 46.5639C46.5884 46.8549 46.456 47.1256 46.248 47.3321C46.0399 47.5386 45.7682 47.6689 45.4769 47.702Z" fill="black"/>
<path d="M17.7542 32.3771C17.5392 32.36 17.3297 32.301 17.1374 32.2033L8.27582 26.6866C8.10495 26.5951 7.96406 26.4563 7.87007 26.2868C7.77607 26.1173 7.73297 25.9243 7.74588 25.731C7.74211 25.5379 7.78905 25.3472 7.88205 25.178C7.97505 25.0088 8.11083 24.8669 8.27582 24.7666L17.1374 19.2499C17.2568 19.1672 17.3922 19.1104 17.5348 19.0831C17.6774 19.0557 17.8242 19.0585 17.9657 19.0913C18.1072 19.124 18.2403 19.1859 18.3565 19.273C18.4727 19.3602 18.5693 19.4707 18.6403 19.5974C18.7239 19.7162 18.7812 19.8514 18.8086 19.994C18.8359 20.1367 18.8327 20.2835 18.799 20.4248C18.7653 20.5661 18.702 20.6986 18.6132 20.8136C18.5245 20.9285 18.4123 21.0233 18.2842 21.0917L10.9343 25.6441L18.2842 30.1965C18.4101 30.2659 18.5201 30.3609 18.6072 30.4752C18.6943 30.5896 18.7566 30.7209 18.7901 30.8607C18.8237 31.0005 18.8276 31.1457 18.8019 31.2872C18.7761 31.4286 18.721 31.5631 18.6403 31.6821C18.5786 31.873 18.4613 32.0411 18.3034 32.1649C18.1455 32.2887 17.9543 32.3626 17.7542 32.3771Z" fill="black"/>
<path d="M35.4946 32.377C35.3028 32.373 35.1147 32.3237 34.9456 32.2331C34.7765 32.1425 34.6312 32.0132 34.5216 31.8557C34.4378 31.7381 34.3801 31.6041 34.3522 31.4625C34.3243 31.3209 34.3268 31.1749 34.3597 31.0344C34.3926 30.8938 34.455 30.7619 34.5429 30.6474C34.6307 30.5328 34.7419 30.4383 34.8691 30.3701L42.2277 25.8177L34.8691 21.2653C34.7437 21.1942 34.6343 21.0979 34.548 20.9824C34.4617 20.8669 34.4002 20.7348 34.3676 20.5944C34.3349 20.4539 34.3318 20.3083 34.3583 20.1665C34.3848 20.0248 34.4404 19.8901 34.5216 19.771C34.5945 19.6462 34.692 19.5377 34.8084 19.452C34.9247 19.3664 35.0573 19.3054 35.1981 19.2728C35.3389 19.2403 35.4847 19.2369 35.6269 19.2628C35.769 19.2887 35.9043 19.3434 36.0246 19.4235L44.8774 24.9402C45.0505 25.0314 45.1929 25.1714 45.2871 25.3429C45.3814 25.5143 45.4231 25.7096 45.4074 25.9046C45.4111 26.0976 45.3642 26.2883 45.2712 26.4575C45.1782 26.6267 45.0424 26.7686 44.8774 26.8689L36.0246 32.377C35.9116 32.2901 35.6423 32.377 35.4946 32.377Z" fill="black"/>
<path d="M22.1849 34.5663C21.9674 34.5482 21.7552 34.4893 21.5595 34.3926C21.3213 34.2374 21.1523 33.9963 21.0875 33.7195C21.0228 33.4428 21.0673 33.1517 21.2119 32.9069L31.1507 17.5817C31.3134 17.345 31.559 17.178 31.8389 17.1136C32.1188 17.0493 32.4127 17.0923 32.6624 17.2342C32.9012 17.391 33.0704 17.6336 33.1351 17.9118C33.1998 18.19 33.155 18.4825 33.0099 18.7285L23.158 34.045C22.9088 34.3326 22.5624 34.5182 22.1849 34.5663Z" fill="black"/>
</svg>
