<svg width="55" height="54" viewBox="0 0 55 54" fill="none" xmlns="http://www.w3.org/2000/svg">
<path d="M30.9054 48.5581V52.1462H24.2593V48.5581V45.5869H30.9054V48.5581Z" fill="#74829C"/>
<path d="M8.76033 23.6938V30.2618H5.66748H2.12286V23.6938H5.66748H8.76033Z" fill="#74829C"/>
<path d="M53.0419 23.6938V30.2618H49.4104H46.4044V23.6938H49.4104H53.0419Z" fill="#74829C"/>
<path d="M47.4644 1.73979C48.121 1.74665 48.7609 1.94761 49.3035 2.31738C49.8461 2.68714 50.2671 3.20917 50.5137 3.81775C50.7602 4.42633 50.8211 5.09425 50.6889 5.7374C50.5566 6.38055 50.2369 6.97018 49.7702 7.43205C49.3035 7.89393 48.7106 8.20742 48.0661 8.33302C47.4217 8.45862 46.7544 8.39072 46.1484 8.13788C45.5424 7.88505 45.0248 7.45857 44.6607 6.91216C44.2966 6.36575 44.1023 5.72381 44.1022 5.0672C44.1045 4.62795 44.1933 4.19347 44.3635 3.78853C44.5337 3.38359 44.782 3.01615 45.0942 2.70717C45.4064 2.39819 45.7764 2.15372 46.1831 1.98774C46.5898 1.82176 47.0252 1.7375 47.4644 1.73979Z" fill="#74829C"/>
<path d="M30.9054 5.31026V8.37705H24.2593V5.31026V5.04962V1.80908H30.9054V5.04962V5.31026Z" fill="#74829C"/>
<path d="M7.61354 1.73979C8.27012 1.74665 8.90999 1.94761 9.45259 2.31738C9.99519 2.68714 10.4163 3.20917 10.6628 3.81775C10.9093 4.42633 10.9703 5.09425 10.838 5.7374C10.7057 6.38055 10.3861 6.97018 9.91938 7.43205C9.45268 7.89393 8.85977 8.20742 8.21528 8.33302C7.57079 8.45862 6.90353 8.39072 6.29754 8.13788C5.69156 7.88505 5.17393 7.45857 4.80982 6.91216C4.44571 6.36575 4.25141 5.72381 4.25137 5.0672C4.25365 4.62795 4.34243 4.19347 4.51263 3.78853C4.68283 3.38359 4.93112 3.01615 5.24333 2.70717C5.55554 2.39819 5.92553 2.15372 6.33222 1.98774C6.73891 1.82176 7.17429 1.7375 7.61354 1.73979Z" fill="#74829C"/>
<path d="M49.4104 23.6937H46.2828V30.2617H49.3844C49.1065 32.2302 48.5415 34.1475 47.7076 35.9522L43.0075 32.4771L39.6453 34.6664V36.8557L37.43 37.9938L31.9393 36.8557L34.1547 40.1831L36.3701 42.3725V47.0986C34.602 47.8758 32.7331 48.3993 30.8186 48.6537V45.5869H24.1724V48.6537C20.6795 48.136 17.3603 46.7934 14.4897 44.7371C11.6191 42.6809 9.27979 39.9702 7.66562 36.8297H15.2848L16.4316 34.6403L18.647 31.3216H23.0778L27.4998 26.9777L21.957 24.745V21.4175L26.3878 17.0736L19.8372 13.8331L15.5802 8.62044C18.2002 6.90977 21.1677 5.80289 24.268 5.37988V8.43797H30.9141V5.37988C35.5537 6.04498 39.8564 8.18433 43.1869 11.482C46.5175 14.7797 48.6994 19.061 49.4104 23.6937Z" fill="#65B2FE"/>
<path d="M43.0336 32.4424L47.7337 35.9175C45.4555 40.8938 41.4172 44.8516 36.3961 47.0292V42.303L34.1808 40.0268L31.9654 36.7863L37.5429 37.9244L39.7583 36.7863V34.597L43.0336 32.4424Z" fill="#80AF52"/>
<path d="M27.5346 26.9342L23.1125 31.2781H18.6818L16.4664 34.5969L15.3196 36.7862H7.70039C6.62534 34.7357 5.90566 32.5179 5.5719 30.2269H8.67342V23.6589H5.5719C6.0828 20.5841 7.22893 17.6494 8.93717 15.0422C10.6454 12.435 12.8783 10.2123 15.4933 8.51611L19.7417 13.7288L26.3878 17.0562L21.957 21.4001V24.7275L27.5346 26.9342Z" fill="#80AF52"/>
<path d="M49.4104 24.7448C49.1446 24.7479 48.8874 24.6502 48.6907 24.4712C48.494 24.2923 48.3725 24.0455 48.3505 23.7805C47.6516 19.3777 45.5645 15.3133 42.3936 12.1799C39.2227 9.04655 35.1338 7.00799 30.723 6.36148C30.5762 6.3476 30.4336 6.3044 30.3037 6.23446C30.1739 6.16452 30.0593 6.06924 29.9669 5.95427C29.8745 5.8393 29.8061 5.70698 29.7657 5.56511C29.7253 5.42324 29.7138 5.27471 29.7318 5.12831C29.7498 4.98191 29.797 4.84062 29.8705 4.71277C29.9441 4.58492 30.0426 4.4731 30.1601 4.38396C30.2776 4.29481 30.4118 4.23013 30.5548 4.19375C30.6977 4.15737 30.8465 4.15003 30.9923 4.17214C35.87 4.8929 40.3901 7.15258 43.8937 10.6219C47.3974 14.0911 49.7015 18.5887 50.4703 23.459C50.4897 23.6038 50.4797 23.751 50.4408 23.8918C50.402 24.0325 50.3351 24.1641 50.2443 24.2784C50.1535 24.3928 50.0405 24.4876 49.9121 24.5573C49.7838 24.627 49.6427 24.6701 49.4973 24.684C49.4973 24.7448 49.4973 24.7448 49.4104 24.7448Z" fill="black"/>
<path d="M30.8186 49.6963C30.5518 49.6996 30.2936 49.6021 30.0955 49.4233C29.8974 49.2446 29.774 48.9977 29.75 48.732C29.7113 48.4555 29.7797 48.1747 29.9412 47.947C30.1027 47.7193 30.3451 47.5619 30.6188 47.507C32.4469 47.2348 34.2334 46.7327 35.9357 46.0127C40.6911 43.9696 44.5116 40.2235 46.6478 35.5092C47.4462 33.7882 47.9849 31.9583 48.2463 30.0793C48.2634 29.9351 48.3091 29.7957 48.3806 29.6693C48.4521 29.5429 48.5481 29.432 48.663 29.3431C48.7778 29.2541 48.9091 29.1889 49.0494 29.1512C49.1897 29.1136 49.336 29.1042 49.48 29.1236C49.6258 29.1363 49.7675 29.1787 49.8965 29.248C50.0255 29.3173 50.1389 29.4122 50.23 29.5268C50.3211 29.6415 50.3878 29.7735 50.4261 29.9148C50.4645 30.0561 50.4736 30.2037 50.453 30.3486C49.8626 34.1975 48.3012 37.8325 45.9163 40.9107C43.5313 43.9888 40.4014 46.4084 36.8218 47.9414C34.957 48.7584 32.9902 49.3194 30.975 49.6094C30.9924 49.6963 30.9055 49.6963 30.8186 49.6963Z" fill="black"/>
<path d="M24.2593 49.6961H24.0855C20.4328 49.1625 16.9601 47.7647 13.9561 45.619C10.9522 43.4734 8.50371 40.6417 6.81423 37.3594C5.68116 35.1875 4.93167 32.8362 4.59883 30.4092C4.56427 30.1154 4.64784 29.82 4.83114 29.5878C5.01443 29.3556 5.28243 29.2058 5.5762 29.1712C5.86998 29.1367 6.16546 29.2202 6.39763 29.4035C6.6298 29.5868 6.77967 29.8548 6.81423 30.1486C7.13087 32.3216 7.82164 34.4232 8.85586 36.3603C10.3802 39.3398 12.5949 41.9116 15.3152 43.8612C18.0355 45.8107 21.1826 47.0816 24.4939 47.5676C24.6388 47.5826 24.7792 47.6265 24.907 47.6965C25.0348 47.7666 25.1473 47.8614 25.2379 47.9755C25.3285 48.0896 25.3954 48.2207 25.4348 48.361C25.4741 48.5013 25.485 48.648 25.4669 48.7925C25.3537 49.0296 25.1846 49.2356 24.9743 49.393C24.764 49.5503 24.5186 49.6543 24.2593 49.6961Z" fill="black"/>
<path d="M30.9054 9.41966H24.2593C23.958 9.41523 23.6702 9.29418 23.4563 9.08193C23.2425 8.86969 23.1192 8.58279 23.1125 8.28156V1.73966C23.1192 1.43843 23.2425 1.15153 23.4563 0.939285C23.6702 0.727041 23.958 0.605985 24.2593 0.601562H30.9054C31.2067 0.605985 31.4945 0.727041 31.7084 0.939285C31.9223 1.15153 32.0455 1.43843 32.0522 1.73966V8.29893C32.0148 8.58742 31.8813 8.8549 31.6732 9.05823C31.4652 9.26156 31.1947 9.38888 30.9054 9.41966ZM25.3279 7.23035H29.776V2.88645H25.354L25.3279 7.23035Z" fill="black"/>
<path d="M30.9054 53.1972H24.2593C23.958 53.1928 23.6702 53.0717 23.4563 52.8595C23.2425 52.6472 23.1192 52.3603 23.1125 52.0591V45.4911C23.1192 45.1899 23.2425 44.903 23.4563 44.6908C23.6702 44.4785 23.958 44.3574 24.2593 44.353H30.9054C31.2067 44.3574 31.4945 44.4785 31.7084 44.6908C31.9223 44.903 32.0455 45.1899 32.0522 45.4911V52.0591C32.017 52.3501 31.8846 52.6208 31.6765 52.8273C31.4684 53.0338 31.1967 53.1641 30.9054 53.1972ZM25.3279 51.0079H29.776V46.664H25.354L25.3279 51.0079Z" fill="black"/>
<path d="M53.0419 31.2782H46.4045C46.1023 31.2739 45.8135 31.1531 45.5983 30.9411C45.383 30.7291 45.2579 30.4422 45.249 30.1401V23.5722C45.2557 23.2695 45.3802 22.9813 45.5959 22.7688C45.8116 22.5563 46.1017 22.4363 46.4045 22.4341H53.0419C53.344 22.4384 53.6328 22.5592 53.8481 22.7712C54.0633 22.9832 54.1884 23.2702 54.1974 23.5722V30.1401C54.1588 30.4313 54.0242 30.7014 53.8149 30.9075C53.6057 31.1136 53.3336 31.2441 53.0419 31.2782ZM47.4643 29.0889H51.8951V24.745H47.4643V29.0889Z" fill="black"/>
<path d="M8.76029 31.2782H2.12284C1.82072 31.2739 1.53192 31.1531 1.31666 30.9411C1.10139 30.7291 0.976267 30.4422 0.967346 30.1401V23.5722C0.976267 23.2702 1.10139 22.9832 1.31666 22.7712C1.53192 22.5592 1.82072 22.4384 2.12284 22.4341H8.76029C9.06307 22.4363 9.3531 22.5563 9.56883 22.7688C9.78455 22.9813 9.90901 23.2695 9.91578 23.5722V30.1401C9.88013 30.4325 9.74648 30.7042 9.53664 30.9108C9.32681 31.1175 9.05316 31.247 8.76029 31.2782ZM3.18275 29.0889H7.61349V24.745H3.18275V29.0889Z" fill="black"/>
<path d="M5.66748 24.745H5.45028C5.30536 24.73 5.16489 24.6861 5.03713 24.6161C4.90937 24.546 4.79687 24.4512 4.70625 24.3371C4.61562 24.223 4.54869 24.092 4.50936 23.9517C4.47004 23.8114 4.45913 23.6646 4.47726 23.5201C4.98099 20.2943 6.1658 17.2128 7.95287 14.4806C9.73994 11.7483 12.0883 9.4278 14.8418 7.67353C17.615 5.91953 20.7206 4.75716 23.9639 4.25923C24.1108 4.23551 24.2609 4.24174 24.4053 4.27753C24.5497 4.31332 24.6854 4.37793 24.8042 4.46749C24.923 4.55706 25.0224 4.66971 25.0965 4.79869C25.1707 4.92768 25.2179 5.0703 25.2355 5.21802C25.2531 5.36575 25.2406 5.51552 25.1989 5.6583C25.1571 5.80108 25.0869 5.93392 24.9924 6.04886C24.898 6.16381 24.7813 6.25848 24.6494 6.32717C24.5174 6.39586 24.3729 6.43716 24.2246 6.44857C21.327 6.84491 18.5481 7.85809 16.0754 9.41978C13.5824 11.0111 11.4565 13.1146 9.83874 15.5906C8.22103 18.0666 7.14859 20.8584 6.69263 23.7807C6.67121 24.0397 6.55457 24.2816 6.36525 24.4597C6.17592 24.6378 5.92734 24.7395 5.66748 24.745Z" fill="black"/>
<path d="M24.2593 6.17907H10.9757C10.8185 6.19285 10.6601 6.17379 10.5106 6.12307C10.3612 6.07235 10.2239 5.9911 10.1075 5.88448C9.99116 5.77786 9.89823 5.64819 9.83466 5.50373C9.77109 5.35927 9.73828 5.20315 9.73828 5.04532C9.73828 4.88749 9.77109 4.7314 9.83466 4.58694C9.89823 4.44247 9.99116 4.3128 10.1075 4.20618C10.2239 4.09956 10.3612 4.01831 10.5106 3.96759C10.6601 3.91687 10.8185 3.89779 10.9757 3.91157H24.2593C24.5621 3.91375 24.8521 4.03382 25.0679 4.2463C25.2836 4.45878 25.408 4.74695 25.4148 5.04967C25.3903 5.34542 25.2599 5.62242 25.0477 5.82987C24.8355 6.03731 24.5556 6.16128 24.2593 6.17907Z" fill="black"/>
<path d="M44.1891 6.17907H30.9054C30.7482 6.19285 30.5898 6.17379 30.4404 6.12307C30.2909 6.07235 30.1536 5.9911 30.0373 5.88448C29.9209 5.77786 29.828 5.64819 29.7644 5.50373C29.7008 5.35927 29.668 5.20315 29.668 5.04532C29.668 4.88749 29.7008 4.7314 29.7644 4.58694C29.828 4.44247 29.9209 4.3128 30.0373 4.20618C30.1536 4.09956 30.2909 4.01831 30.4404 3.96759C30.5898 3.91687 30.7482 3.89779 30.9054 3.91157H44.1891C44.4903 3.91599 44.7782 4.03705 44.992 4.24929C45.2059 4.46154 45.3291 4.74844 45.3359 5.04967C45.3133 5.34467 45.1848 5.62155 44.974 5.82915C44.7632 6.03675 44.4844 6.16104 44.1891 6.17907Z" fill="black"/>
<path d="M7.61351 9.41982C6.75828 9.40271 5.92715 9.13347 5.22432 8.64588C4.52149 8.15828 3.97825 7.47405 3.66276 6.67896C3.34726 5.88386 3.27354 5.0133 3.45084 4.17647C3.62813 3.33964 4.04853 2.57378 4.65935 1.97494C5.27017 1.37609 6.04423 0.970938 6.8844 0.810249C7.72458 0.64956 8.59347 0.740489 9.38217 1.07167C10.1709 1.40285 10.8442 1.95951 11.3178 2.67186C11.7914 3.38421 12.0441 4.22052 12.0443 5.07593C12.0444 5.65376 11.9292 6.22581 11.7055 6.75857C11.4818 7.29134 11.1541 7.77414 10.7414 8.17866C10.3288 8.58319 9.83964 8.90132 9.30255 9.11444C8.76546 9.32756 8.19123 9.43137 7.61351 9.41982ZM7.61351 2.86055C7.18165 2.86569 6.76097 2.99846 6.40439 3.24213C6.0478 3.4858 5.77124 3.82948 5.60953 4.22995C5.44781 4.63042 5.40815 5.06978 5.49555 5.49274C5.58294 5.91569 5.79348 6.30334 6.10068 6.60692C6.40787 6.9105 6.79801 7.11644 7.22197 7.19882C7.64593 7.28121 8.08477 7.23636 8.4833 7.06992C8.88183 6.90347 9.22225 6.62289 9.46168 6.26344C9.70111 5.904 9.82888 5.48175 9.82891 5.04986C9.83129 4.75949 9.7754 4.47158 9.66458 4.20317C9.55377 3.93476 9.39026 3.6913 9.18372 3.48719C8.97717 3.28307 8.73179 3.12247 8.46209 3.01483C8.19239 2.9072 7.90384 2.85474 7.61351 2.86055Z" fill="black"/>
<path d="M47.4644 9.41982C46.6091 9.40271 45.778 9.13347 45.0752 8.64588C44.3723 8.15828 43.8291 7.47405 43.5136 6.67896C43.1981 5.88386 43.1244 5.0133 43.3017 4.17647C43.479 3.33964 43.8994 2.57378 44.5102 1.97494C45.1211 1.37609 45.8951 0.970938 46.7353 0.810249C47.5754 0.64956 48.4444 0.740489 49.2331 1.07167C50.0217 1.40285 50.6951 1.95951 51.1687 2.67186C51.6423 3.38421 51.895 4.22052 51.8951 5.07593C51.8953 5.65376 51.7801 6.22581 51.5564 6.75857C51.3327 7.29134 51.0049 7.77414 50.5923 8.17866C50.1797 8.58319 49.6905 8.90132 49.1534 9.11444C48.6163 9.32756 48.0421 9.43137 47.4644 9.41982ZM47.4644 2.86055C47.0325 2.86569 46.6118 2.99846 46.2552 3.24213C45.8987 3.4858 45.6221 3.82948 45.4604 4.22995C45.2987 4.63042 45.259 5.06978 45.3464 5.49274C45.4338 5.91569 45.6443 6.30334 45.9515 6.60692C46.2587 6.9105 46.6489 7.11644 47.0728 7.19882C47.4968 7.28121 47.9357 7.23636 48.3342 7.06992C48.7327 6.90347 49.0731 6.62289 49.3125 6.26344C49.552 5.904 49.6797 5.48175 49.6798 5.04986C49.6822 4.75949 49.6263 4.47158 49.5155 4.20317C49.4047 3.93476 49.2411 3.6913 49.0346 3.48719C48.828 3.28307 48.5826 3.12247 48.3129 3.01483C48.0432 2.9072 47.7547 2.85474 47.4644 2.86055Z" fill="black"/>
<path d="M15.4065 37.872H7.78733C7.48605 37.8676 7.19822 37.7465 6.98435 37.5343C6.77049 37.322 6.64725 37.0352 6.64053 36.7339C6.6461 36.5894 6.68028 36.4474 6.74107 36.3161C6.80186 36.1848 6.88806 36.0669 6.99469 35.9691C7.10133 35.8714 7.2263 35.7958 7.36235 35.7466C7.4984 35.6974 7.64284 35.6757 7.78733 35.6827H14.6941L15.4934 34.1102C15.4934 34.0872 15.5025 34.0651 15.5188 34.0488C15.5351 34.0325 15.5572 34.0233 15.5803 34.0233L17.7956 30.6959C17.8927 30.55 18.0211 30.4276 18.1713 30.3374C18.3216 30.2473 18.49 30.1917 18.6644 30.1746H22.6521L25.5712 27.2816L21.5835 25.7091C21.3688 25.6328 21.1844 25.4893 21.0576 25.3C20.9309 25.1106 20.8685 24.8855 20.8798 24.6579V21.3305C20.8801 21.181 20.912 21.0333 20.9734 20.8971C21.0347 20.7608 21.1243 20.6391 21.236 20.5399L24.5982 17.2125L19.3855 14.6061C19.2509 14.5433 19.1299 14.4548 19.0293 14.3455L14.781 9.08938C14.6141 8.85085 14.5397 8.55976 14.5717 8.27042C14.6037 7.98107 14.7398 7.71323 14.9547 7.51689C15.1966 7.35056 15.4902 7.27663 15.782 7.30852C16.0737 7.34041 16.3444 7.47601 16.5446 7.69066L20.6192 12.7643L27.0829 15.918C27.2425 15.9906 27.3824 16.1002 27.4912 16.2377C27.6 16.3751 27.6745 16.5366 27.7084 16.7086C27.7329 16.8792 27.7216 17.0531 27.6752 17.2191C27.6288 17.3851 27.5484 17.5396 27.4391 17.6729L23.0952 21.956V24.0584L27.9604 25.9871C28.1306 26.0574 28.2829 26.1648 28.4062 26.3016C28.5294 26.4384 28.6206 26.6011 28.6728 26.7777C28.7188 26.9465 28.718 27.1245 28.6705 27.2929C28.6231 27.4612 28.5308 27.6135 28.4034 27.7334L23.9813 32.0773C23.7601 32.2774 23.4793 32.3995 23.1821 32.4248H19.3768L17.5177 35.1441L16.449 37.2465C16.3292 37.4184 16.1744 37.563 15.9947 37.6708C15.815 37.7786 15.6146 37.8472 15.4065 37.872Z" fill="black"/>
<path d="M36.3961 48.1148C36.1157 48.1148 35.8465 48.0046 35.6466 47.808C35.4467 47.6113 35.3321 47.3439 35.3275 47.0635V42.7805L33.4683 40.9387L33.2945 40.7649L31.0792 37.3593C30.9524 37.1802 30.8843 36.9662 30.8843 36.7468C30.8843 36.5274 30.9524 36.3134 31.0792 36.1343C31.2106 35.9593 31.3888 35.8249 31.5932 35.7465C31.7975 35.6681 32.0199 35.649 32.2346 35.6913L37.3691 36.7425L38.6115 36.1343V34.64C38.608 34.4598 38.656 34.2823 38.7498 34.1284C38.8437 33.9745 38.9796 33.8506 39.1414 33.7712L42.5036 31.5819C42.6858 31.4549 42.9026 31.3867 43.1248 31.3867C43.3469 31.3867 43.5637 31.4549 43.7459 31.5819L48.4374 35.057C48.5627 35.1408 48.6681 35.251 48.7463 35.3798C48.8245 35.5087 48.8736 35.653 48.8902 35.8028C48.9067 35.9526 48.8904 36.1043 48.8421 36.2471C48.7939 36.3899 48.7151 36.5204 48.6111 36.6295C48.5256 36.7552 48.4138 36.8609 48.2835 36.9392C48.1531 37.0175 48.0074 37.0666 47.8563 37.0831C47.7051 37.0996 47.5522 37.0831 47.4081 37.0348C47.2639 36.9865 47.1319 36.9075 47.0213 36.8033L42.9467 33.7452L40.8182 35.1439V36.7164C40.8185 36.9193 40.7605 37.118 40.6511 37.289C40.5418 37.4599 40.3857 37.5959 40.2013 37.6807L37.986 38.8188C37.7715 38.9378 37.5192 38.969 37.2823 38.9058L34.3545 38.2976L35.0669 39.2532L37.1867 41.3557C37.2968 41.4562 37.3852 41.5783 37.4464 41.7142C37.5077 41.8502 37.5405 41.9972 37.5429 42.1463V46.9159C37.5487 47.0718 37.5236 47.2272 37.4689 47.3734C37.4143 47.5195 37.3313 47.6534 37.2247 47.7673C37.1181 47.8812 36.99 47.9728 36.8478 48.0369C36.7055 48.1011 36.552 48.1363 36.3961 48.1408V48.1148Z" fill="black"/>
</svg>
