<svg width="35" height="35" viewBox="0 0 35 35" fill="none" xmlns="http://www.w3.org/2000/svg">
<path d="M7.8889 2.15137H3.67556C3.30308 2.15137 2.94585 2.29933 2.68247 2.56272C2.41908 2.8261 2.27112 3.18333 2.27112 3.55581V31.6447C2.27112 32.0172 2.41908 32.3744 2.68247 32.6378C2.94585 32.9012 3.30308 33.0491 3.67556 33.0491H7.8889V2.15137Z" fill="#CBFFE6"/>
<path d="M10.6978 33.0491H24.7422V2.15137H10.6978V33.0491ZM17.72 27.4314C17.3475 27.4314 16.9903 27.2834 16.7269 27.02C16.4635 26.7566 16.3155 26.3994 16.3155 26.0269C16.3155 25.6544 16.4635 25.2972 16.7269 25.0338C16.9903 24.7704 17.3475 24.6225 17.72 24.6225C18.0925 24.6225 18.4497 24.7704 18.7131 25.0338C18.9765 25.2972 19.1244 25.6544 19.1244 26.0269C19.1244 26.3994 18.9765 26.7566 18.7131 27.02C18.4497 27.2834 18.0925 27.4314 17.72 27.4314ZM17.72 7.76915C18.0925 7.76915 18.4497 7.91711 18.7131 8.1805C18.9765 8.44388 19.1244 8.80111 19.1244 9.17359C19.1244 9.54607 18.9765 9.9033 18.7131 10.1667C18.4497 10.4301 18.0925 10.578 17.72 10.578C17.3475 10.578 16.9903 10.4301 16.7269 10.1667C16.4635 9.9033 16.3155 9.54607 16.3155 9.17359C16.3155 8.80111 16.4635 8.44388 16.7269 8.1805C16.9903 7.91711 17.3475 7.76915 17.72 7.76915ZM17.72 16.1958C18.0925 16.1958 18.4497 16.3438 18.7131 16.6072C18.9765 16.8705 19.1244 17.2278 19.1244 17.6003C19.1244 17.9727 18.9765 18.33 18.7131 18.5933C18.4497 18.8567 18.0925 19.0047 17.72 19.0047C17.3475 19.0047 16.9903 18.8567 16.7269 18.5933C16.4635 18.33 16.3155 17.9727 16.3155 17.6003C16.3155 17.2278 16.4635 16.8705 16.7269 16.6072C16.9903 16.3438 17.3475 16.1958 17.72 16.1958Z" fill="#069C53"/>
<path d="M31.7644 2.15137H27.5511V33.0491H31.7644C32.1369 33.0491 32.4941 32.9012 32.7575 32.6378C33.0209 32.3744 33.1689 32.0172 33.1689 31.6447V3.55581C33.1689 3.18333 33.0209 2.8261 32.7575 2.56272C32.4941 2.29933 32.1369 2.15137 31.7644 2.15137Z" fill="#282B72"/>
</svg>
