<svg width="35" height="35" viewBox="0 0 35 35" fill="none" xmlns="http://www.w3.org/2000/svg">
<path d="M13.44 14.7914H3.60885C3.23637 14.7914 2.87914 14.6434 2.61576 14.38C2.35237 14.1166 2.20441 13.7594 2.20441 13.3869V3.55581C2.20441 3.18333 2.35237 2.8261 2.61576 2.56272C2.87914 2.29933 3.23637 2.15137 3.60885 2.15137H13.44C13.8124 2.15137 14.1697 2.29933 14.4331 2.56272C14.6964 2.8261 14.8444 3.18333 14.8444 3.55581V13.3869C14.8444 13.7594 14.6964 14.1166 14.4331 14.38C14.1697 14.6434 13.8124 14.7914 13.44 14.7914Z" fill="#069C53"/>
<path d="M13.44 33.0497H3.60885C3.23637 33.0497 2.87914 32.9017 2.61576 32.6383C2.35237 32.3749 2.20441 32.0177 2.20441 31.6452V21.8141C2.20441 21.4416 2.35237 21.0844 2.61576 20.821C2.87914 20.5576 3.23637 20.4097 3.60885 20.4097H13.44C13.8124 20.4097 14.1697 20.5576 14.4331 20.821C14.6964 21.0844 14.8444 21.4416 14.8444 21.8141V31.6452C14.8444 32.0177 14.6964 32.3749 14.4331 32.6383C14.1697 32.9017 13.8124 33.0497 13.44 33.0497Z" fill="#069C53"/>
<path d="M19.0577 3.55615H33.1022V6.36504H19.0577V3.55615Z" fill="#282B72"/>
<path d="M33.1022 21.8135H19.0577V24.6224H33.1022V21.8135Z" fill="#282B72"/>
<path d="M33.1022 28.8359H19.0577V31.6448H33.1022V28.8359Z" fill="#CBFFE6"/>
<path d="M33.1022 10.5781H19.0577V13.387H33.1022V10.5781Z" fill="#CBFFE6"/>
</svg>
