<svg width="35" height="34" viewBox="0 0 35 34" fill="none" xmlns="http://www.w3.org/2000/svg">
<g clip-path="url(#clip0_1243_2746)">
<path d="M30.2933 33.8932H17.6533C17.2808 33.8932 16.9236 33.7452 16.6602 33.4818C16.3968 33.2184 16.2488 32.8612 16.2488 32.4887V29.6798C16.2488 29.3074 16.3968 28.9501 16.6602 28.6867C16.9236 28.4234 17.2808 28.2754 17.6533 28.2754H30.2933C30.6658 28.2754 31.023 28.4234 31.2864 28.6867C31.5498 28.9501 31.6977 29.3074 31.6977 29.6798V32.4887C31.6977 32.8612 31.5498 33.2184 31.2864 33.4818C31.023 33.7452 30.6658 33.8932 30.2933 33.8932Z" fill="#CBFFE6"/>
<path d="M30.2933 0.187012H5.01333C4.64085 0.187012 4.28362 0.334978 4.02024 0.598363C3.75685 0.861747 3.60889 1.21897 3.60889 1.59146V4.40035C3.60889 4.77283 3.75685 5.13005 4.02024 5.39344C4.28362 5.65682 4.64085 5.80479 5.01333 5.80479H30.2933C30.6658 5.80479 31.023 5.65682 31.2864 5.39344C31.5498 5.13005 31.6978 4.77283 31.6978 4.40035V1.59146C31.6978 1.21897 31.5498 0.861747 31.2864 0.598363C31.023 0.334978 30.6658 0.187012 30.2933 0.187012Z" fill="#282B72"/>
<path d="M30.2933 8.61377H5.01333C4.64085 8.61377 4.28362 8.76174 4.02024 9.02512C3.75685 9.28851 3.60889 9.64573 3.60889 10.0182V24.0627C3.60889 24.4351 3.75685 24.7924 4.02024 25.0558C4.28362 25.3191 4.64085 25.4671 5.01333 25.4671H30.2933C30.6658 25.4671 31.023 25.3191 31.2864 25.0558C31.5498 24.7924 31.6978 24.4351 31.6978 24.0627V10.0182C31.6978 9.64573 31.5498 9.28851 31.2864 9.02512C31.023 8.76174 30.6658 8.61377 30.2933 8.61377Z" fill="#069C53"/>
</g>
<defs>
<clipPath id="clip0_1243_2746">
<rect width="33.7067" height="33.7067" fill="white" transform="translate(0.799988 0.187012)"/>
</clipPath>
</defs>
</svg>
