<svg width="35" height="34" viewBox="0 0 35 34" fill="none" xmlns="http://www.w3.org/2000/svg">
<g clip-path="url(#clip0_1243_4668)">
<path d="M26.1466 14.2315H34.5733L30.3599 8.61377L26.1466 14.2315ZM26.1466 19.8493H34.5733L30.3599 25.4671L26.1466 19.8493Z" fill="#CBFFE6"/>
<path d="M2.27102 0.187012H10.6977V33.8937H2.27102C1.89854 33.8937 1.54131 33.7457 1.27793 33.4823C1.01454 33.2189 0.866577 32.8617 0.866577 32.4892V1.59146C0.866577 1.21897 1.01454 0.861747 1.27793 0.598363C1.54131 0.334978 1.89854 0.187012 2.27102 0.187012Z" fill="#069C53"/>
<path d="M13.5066 0.187012H21.9333C22.3057 0.187012 22.663 0.334978 22.9264 0.598363C23.1897 0.861747 23.3377 1.21897 23.3377 1.59146V32.4892C23.3377 32.8617 23.1897 33.2189 22.9264 33.4823C22.663 33.7457 22.3057 33.8937 21.9333 33.8937H13.5066V0.187012Z" fill="#282B72"/>
</g>
<defs>
<clipPath id="clip0_1243_4668">
<rect width="33.7067" height="33.7067" fill="white" transform="translate(0.866577 0.187012)"/>
</clipPath>
</defs>
</svg>
