<svg width="30" height="30" viewBox="0 0 30 30" fill="none" xmlns="http://www.w3.org/2000/svg">
<path d="M13.1619 2.94629H17.0903V3.92839H13.1619V2.94629Z" fill="#EEEEEE"/>
<path d="M18.0724 1.47298C18.0724 1.34275 18.0207 1.21785 17.9286 1.12576C17.8365 1.03367 17.7116 0.981934 17.5814 0.981934H12.6709C12.5406 0.981934 12.4157 1.03367 12.3236 1.12576C12.2315 1.21785 12.1798 1.34275 12.1798 1.47298V1.96403H18.0724V1.47298Z" fill="#EEEEEE"/>
<path d="M27.4441 3.26943L24.1453 1.13926C24.037 1.0691 23.9159 1.02097 23.7889 0.997636C23.662 0.974299 23.5317 0.976207 23.4055 1.00325C23.2794 1.03029 23.1597 1.08194 23.0535 1.15524C22.9473 1.22855 22.8566 1.32206 22.7865 1.43045L27.7363 4.62866C27.8773 4.40952 27.9257 4.14346 27.8709 3.88871C27.8162 3.63396 27.6627 3.41129 27.4441 3.26943Z" fill="#EEEEEE"/>
<path d="M3.59721 6.30211L8.55437 3.11519L7.99948 2.25684L3.04968 5.45505L3.59721 6.30211Z" fill="#EEEEEE"/>
<path d="M4.1531 20.9222C4.21695 21.1205 4.34194 21.2935 4.51015 21.4165C4.67836 21.5395 4.88117 21.606 5.08953 21.6067H6.6879L3.29179 10.4849L1.92127 11.1689C1.71246 11.2749 1.54791 11.4514 1.45677 11.6671C1.36563 11.8828 1.35379 12.1238 1.42334 12.3474L4.1531 20.9222Z" fill="#EEEEEE"/>
<path d="M19.5456 27.4985H10.7067V27.9896C10.7067 28.1198 10.7584 28.2447 10.8505 28.3368C10.9426 28.4289 11.0675 28.4806 11.1977 28.4806H19.0546C19.1848 28.4806 19.3097 28.4289 19.4018 28.3368C19.4939 28.2447 19.5456 28.1198 19.5456 27.9896V27.4985Z" fill="#EEEEEE"/>
<path d="M28.331 11.1689L26.9629 10.4849L23.5644 21.6067H25.1627C25.3708 21.6061 25.5733 21.5398 25.7414 21.4172C25.9095 21.2946 26.0346 21.122 26.0987 20.9241L28.8289 12.3484C28.8987 12.1247 28.887 11.8834 28.7959 11.6675C28.7047 11.4516 28.54 11.2749 28.331 11.1689Z" fill="#EEEEEE"/>
<path d="M8.99683 24.5187C9.20361 24.5746 9.38653 24.6964 9.51785 24.8657C9.64917 25.0349 9.72175 25.2424 9.72456 25.4566V26.0257C9.72456 26.1559 9.7763 26.2808 9.86839 26.3729C9.96048 26.465 10.0854 26.5167 10.2156 26.5167H20.0366C20.1669 26.5167 20.2918 26.465 20.3839 26.3729C20.476 26.2808 20.5277 26.1559 20.5277 26.0257V25.4566C20.5305 25.2424 20.6031 25.0349 20.7344 24.8657C20.8657 24.6964 21.0486 24.5746 21.2554 24.5187C21.3878 24.4798 21.5085 24.4087 21.6067 24.3118C21.7049 24.2149 21.7776 24.0952 21.8182 23.9633L26.7262 7.90052C26.7539 7.80827 26.7508 7.70956 26.7176 7.61917C26.6844 7.52878 26.6228 7.45159 26.5421 7.39915L20.7477 3.67502C20.7037 3.64662 20.6513 3.63424 20.5992 3.63997C20.5471 3.64569 20.4987 3.66917 20.4619 3.70645L19.4017 4.76663C19.3096 4.85873 19.1848 4.91048 19.0545 4.91051H11.1977C11.0675 4.91048 10.9426 4.85873 10.8505 4.76663L9.78791 3.7035C9.74507 3.66061 9.68698 3.63642 9.62635 3.63623C9.5825 3.63642 9.5396 3.64902 9.50261 3.67257L3.70821 7.3967C3.62738 7.44907 3.56573 7.52626 3.53253 7.61667C3.49932 7.70708 3.49635 7.80582 3.52406 7.89806L8.43457 23.9608C8.47477 24.0931 8.54719 24.2133 8.64533 24.3107C8.74347 24.408 8.86425 24.4795 8.99683 24.5187ZM6.77826 9.82102C6.77746 9.10836 6.99842 8.41312 7.41048 7.83167C7.82254 7.25023 8.4053 6.81139 9.07795 6.576C9.75061 6.34061 10.4798 6.32034 11.1645 6.51798C11.8492 6.71563 12.4555 7.1214 12.8992 7.67905L18.4481 8.74021C19.2438 8.32301 20.1713 8.23427 21.0316 8.49301C21.892 8.75176 22.6167 9.33739 23.0503 10.1243C23.4839 10.9112 23.5918 11.8366 23.3509 12.7022C23.11 13.5677 22.5395 14.3044 21.7617 14.7541L19.4935 19.0037C19.5264 19.2149 19.5438 19.4283 19.5456 19.642C19.5476 20.2903 19.4069 20.9311 19.1335 21.519C18.8602 22.1068 18.4608 22.6274 17.9638 23.0436C17.4668 23.4599 16.8843 23.7617 16.2576 23.9277C15.6309 24.0937 14.9753 24.1197 14.3374 24.004C13.6995 23.8883 13.0949 23.6337 12.5664 23.2582C12.0379 22.8827 11.5985 22.3955 11.2794 21.8312C10.9602 21.2669 10.7691 20.6393 10.7196 19.9929C10.6701 19.3465 10.7634 18.6971 10.9929 18.0908L8.83232 12.9662C8.22197 12.6974 7.70288 12.257 7.3382 11.6987C6.97353 11.1403 6.77899 10.4879 6.77826 9.82102Z" fill="#EEEEEE"/>
<path d="M15.1261 16.2051C14.4463 16.2051 13.7817 16.4067 13.2164 16.7844C12.6512 17.1621 12.2106 17.6989 11.9504 18.327C11.6903 18.9551 11.6222 19.6462 11.7548 20.313C11.8875 20.9798 12.2148 21.5923 12.6956 22.073C13.1763 22.5537 13.7888 22.8811 14.4555 23.0137C15.1223 23.1464 15.8135 23.0783 16.4416 22.8181C17.0697 22.558 17.6065 22.1174 17.9842 21.5521C18.3619 20.9869 18.5635 20.3223 18.5635 19.6424C18.5623 18.7311 18.1998 17.8575 17.5554 17.2131C16.9111 16.5688 16.0374 16.2062 15.1261 16.2051ZM15.1261 21.6066C14.7377 21.6066 14.3579 21.4914 14.0349 21.2756C13.7119 21.0598 13.4601 20.753 13.3115 20.3941C13.1628 20.0352 13.1239 19.6403 13.1997 19.2592C13.2755 18.8782 13.4625 18.5282 13.7372 18.2535C14.0119 17.9788 14.3619 17.7918 14.7429 17.716C15.124 17.6402 15.5189 17.6791 15.8778 17.8277C16.2367 17.9764 16.5435 18.2282 16.7593 18.5512C16.9751 18.8742 17.0903 19.2539 17.0903 19.6424C17.0903 20.1634 16.8834 20.663 16.515 21.0313C16.1467 21.3997 15.6471 21.6066 15.1261 21.6066Z" fill="#EEEEEE"/>
<path d="M15.1261 20.6239C15.6685 20.6239 16.1082 20.1842 16.1082 19.6418C16.1082 19.0994 15.6685 18.6597 15.1261 18.6597C14.5837 18.6597 14.144 19.0994 14.144 19.6418C14.144 20.1842 14.5837 20.6239 15.1261 20.6239Z" fill="#EEEEEE"/>
<path d="M2.51691 4.62906L7.46572 1.43084C7.32433 1.21213 7.10186 1.05854 6.84724 1.00384C6.59262 0.949145 6.3267 0.997817 6.10796 1.13915L2.80712 3.26983C2.69877 3.33992 2.6053 3.43067 2.53205 3.53691C2.45879 3.64314 2.40719 3.76277 2.38019 3.88895C2.3532 4.01514 2.35133 4.14541 2.3747 4.27231C2.39808 4.39922 2.44623 4.52028 2.51641 4.62856L2.51691 4.62906Z" fill="#EEEEEE"/>
<path d="M27.2026 5.45505L22.2528 2.25684L21.6979 3.11519L26.655 6.30211L27.2026 5.45505Z" fill="#EEEEEE"/>
<path d="M10.2156 10.3122C10.4868 10.3122 10.7067 10.0923 10.7067 9.82113C10.7067 9.54993 10.4868 9.33008 10.2156 9.33008C9.94443 9.33008 9.72458 9.54993 9.72458 9.82113C9.72458 10.0923 9.94443 10.3122 10.2156 10.3122Z" fill="#EEEEEE"/>
<path d="M12.6709 9.82098C12.6709 9.33538 12.5269 8.86068 12.2571 8.45691C11.9873 8.05315 11.6039 7.73845 11.1552 7.55262C10.7066 7.36679 10.2129 7.31816 9.73664 7.4129C9.26036 7.50764 8.82288 7.74148 8.4795 8.08485C8.13613 8.42823 7.90229 8.86571 7.80755 9.34198C7.71282 9.81826 7.76144 10.3119 7.94727 10.7606C8.1331 11.2092 8.4478 11.5927 8.85157 11.8624C9.25533 12.1322 9.73003 12.2762 10.2156 12.2762C10.8666 12.2755 11.4906 12.0165 11.9509 11.5562C12.4112 11.096 12.6701 10.4719 12.6709 9.82098ZM8.74248 9.82098C8.74248 9.52962 8.82888 9.2448 8.99075 9.00254C9.15262 8.76028 9.3827 8.57146 9.65188 8.45996C9.92106 8.34846 10.2173 8.31929 10.503 8.37613C10.7888 8.43297 11.0513 8.57328 11.2573 8.7793C11.4633 8.98533 11.6036 9.24782 11.6605 9.53358C11.7173 9.81934 11.6881 10.1155 11.5766 10.3847C11.4651 10.6539 11.2763 10.884 11.0341 11.0459C10.7918 11.2077 10.507 11.2941 10.2156 11.2941C9.82493 11.2941 9.45023 11.1389 9.17396 10.8627C8.89769 10.5864 8.74248 10.2117 8.74248 9.82098Z" fill="#EEEEEE"/>
<path d="M10.2156 13.2581C10.1493 13.2581 10.0845 13.2517 10.0192 13.2483L11.5969 16.993C12.0483 16.3884 12.6474 15.9098 13.3367 15.603C14.0261 15.2963 14.7827 15.1717 15.534 15.2412C16.2854 15.3107 17.0063 15.5719 17.6277 15.9999C18.2491 16.4279 18.7502 17.0082 19.083 17.6854L20.4089 15.2012C19.7234 15.2769 19.031 15.1443 18.4219 14.8208C17.8129 14.4973 17.3154 13.9978 16.9943 13.3875C16.6732 12.7771 16.5435 12.0842 16.6219 11.3991C16.7003 10.7139 16.9834 10.0682 17.4341 9.54624L13.4958 8.79297C13.6571 9.3077 13.695 9.85316 13.6064 10.3852C13.5178 10.9173 13.3053 11.4211 12.9859 11.8558C12.6666 12.2905 12.2494 12.644 11.7681 12.8876C11.2869 13.1312 10.755 13.2581 10.2156 13.2581Z" fill="#EEEEEE"/>
<path d="M20.0366 14.2406C20.5223 14.2406 20.997 14.0966 21.4007 13.8268C21.8045 13.557 22.1192 13.1736 22.305 12.7249C22.4908 12.2763 22.5395 11.7826 22.4447 11.3063C22.35 10.8301 22.1162 10.3926 21.7728 10.0492C21.4294 9.70583 20.9919 9.47199 20.5156 9.37726C20.0394 9.28252 19.5457 9.33114 19.0971 9.51697C18.6484 9.70281 18.265 10.0175 17.9952 10.4213C17.7254 10.825 17.5814 11.2997 17.5814 11.7853C17.5822 12.4363 17.8411 13.0603 18.3014 13.5206C18.7617 13.9809 19.3857 14.2398 20.0366 14.2406ZM20.0366 10.3122C20.328 10.3122 20.6128 10.3986 20.8551 10.5605C21.0973 10.7223 21.2862 10.9524 21.3977 11.2216C21.5092 11.4908 21.5383 11.787 21.4815 12.0727C21.4247 12.3585 21.2844 12.621 21.0783 12.827C20.8723 13.033 20.6098 13.1733 20.324 13.2302C20.0383 13.287 19.7421 13.2579 19.4729 13.1464C19.2037 13.0349 18.9736 12.846 18.8118 12.6038C18.6499 12.3615 18.5635 12.0767 18.5635 11.7853C18.5635 11.3946 18.7187 11.0199 18.995 10.7437C19.2712 10.4674 19.6459 10.3122 20.0366 10.3122Z" fill="#EEEEEE"/>
<path d="M20.0366 12.2765C20.3078 12.2765 20.5277 12.0567 20.5277 11.7855C20.5277 11.5143 20.3078 11.2944 20.0366 11.2944C19.7654 11.2944 19.5456 11.5143 19.5456 11.7855C19.5456 12.0567 19.7654 12.2765 20.0366 12.2765Z" fill="#EEEEEE"/>
</svg>
