<svg width="18" height="18" viewBox="0 0 18 18" fill="none" xmlns="http://www.w3.org/2000/svg">
<g clip-path="url(#clip0_1243_6440)">
<path d="M11.1356 5.23685C10.8548 4.95603 10.8548 4.50072 11.1356 4.2199C11.4164 3.93907 11.8717 3.93907 12.1526 4.2199L16.4671 8.53447C16.748 8.81529 16.748 9.2706 16.4671 9.55142L12.1526 13.866C11.8717 14.1468 11.4164 14.1468 11.1356 13.866C10.8548 13.5852 10.8548 13.1299 11.1356 12.849L14.2226 9.76203H1.58451C1.18298 9.76203 0.857483 9.44008 0.857483 9.04294C0.857483 8.64579 1.18298 8.32384 1.58451 8.32384H14.2226L11.1356 5.23685Z" fill="#EEEEEE"/>
</g>
<defs>
<clipPath id="clip0_1243_6440">
<rect width="17.2583" height="17.2583" fill="white" transform="translate(0.138367 0.414062)"/>
</clipPath>
</defs>
</svg>
