<svg width="18" height="18" viewBox="0 0 18 18" fill="none" xmlns="http://www.w3.org/2000/svg">
<g clip-path="url(#clip0_1243_6431)">
<path d="M6.86466 5.23685C7.14548 4.95603 7.14548 4.50072 6.86466 4.2199C6.58383 3.93907 6.12853 3.93907 5.8477 4.2199L1.53313 8.53447C1.2523 8.81529 1.2523 9.2706 1.53313 9.55142L5.8477 13.866C6.12853 14.1468 6.58383 14.1468 6.86466 13.866C7.14548 13.5852 7.14548 13.1299 6.86466 12.849L3.77764 9.76203H16.4158C16.8173 9.76203 17.1428 9.44008 17.1428 9.04294C17.1428 8.64579 16.8173 8.32384 16.4158 8.32384H3.77767L6.86466 5.23685Z" fill="#EEEEEE"/>
</g>
<defs>
<clipPath id="clip0_1243_6431">
<rect width="17.2583" height="17.2583" fill="white" transform="translate(0.603394 0.414062)"/>
</clipPath>
</defs>
</svg>
