<svg width="101" height="46" viewBox="0 0 101 46" fill="none" xmlns="http://www.w3.org/2000/svg">
<path d="M100.462 0.576172C95.4159 2.2605 90.1127 3.05002 84.7932 2.90888C83.127 2.87477 66.3263 2.54415 52.3446 2.90888C50.239 2.96398 46.6804 3.09781 42.7875 5.02642C40.1929 6.33287 37.9013 8.16606 36.0598 10.4082C32.7487 14.3599 30.693 19.3297 28.8768 23.7222C25.7446 31.3028 24.0075 34.6248 20.5305 34.6248H11.2523V2.33161H0.647583V45.1967H20.5331C25.5525 45.1967 29.7454 43.0372 33.0092 38.7785C35.4413 35.5983 37.0916 31.6072 38.6867 27.7578C42.3427 18.902 44.959 13.4782 52.3473 13.4782H69.5796V45.1731H80.1949V13.4782H84.7484C86.5277 13.4782 90.3206 12.977 93.5475 11.0222C98.5854 7.96789 100.086 2.25551 100.462 0.576172Z" fill="url(#paint0_linear_501_8529)"/>
<path d="M51.9413 34.6247C50.5496 34.6261 49.1714 34.3533 47.8858 33.822C46.6003 33.2906 45.4327 32.5111 44.4504 31.5284C44.2973 31.3718 44.1078 31.2554 43.8987 31.1895C43.6896 31.1236 43.4673 31.1104 43.2518 31.1509C43.0363 31.1914 42.8342 31.2845 42.6635 31.4218C42.4928 31.5591 42.3589 31.7363 42.2736 31.9378C41.2698 34.4144 40.0912 36.817 38.7466 39.1274C38.5798 39.4021 38.5199 39.7282 38.5781 40.044C38.6363 40.3597 38.8086 40.6433 39.0625 40.8409C42.2779 43.2974 46.1325 44.7833 50.1692 45.1223C54.206 45.4614 58.2556 44.6393 61.838 42.7537C62.0004 42.6707 62.1436 42.5549 62.2587 42.4137C62.3737 42.2725 62.4581 42.1089 62.5063 41.9335C62.5546 41.758 62.5657 41.5745 62.5391 41.3945C62.5124 41.2146 62.4484 41.0421 62.3513 40.8881L58.1636 34.113C57.989 33.8357 57.7181 33.6321 57.4025 33.5411C57.087 33.4501 56.7489 33.4781 56.4527 33.6197C55.0414 34.2814 53.501 34.6245 51.9413 34.6247Z" fill="url(#paint1_linear_501_8529)"/>
<defs>
<linearGradient id="paint0_linear_501_8529" x1="0.647583" y1="22.8878" x2="100.465" y2="22.8878" gradientUnits="userSpaceOnUse">
<stop stop-color="#3052A2"/>
<stop offset="0.84" stop-color="#00A648"/>
</linearGradient>
<linearGradient id="paint1_linear_501_8529" x1="0.23899" y1="22.8903" x2="100.056" y2="22.8903" gradientUnits="userSpaceOnUse">
<stop stop-color="#3052A2"/>
<stop offset="0.84" stop-color="#00A648"/>
</linearGradient>
</defs>
</svg>
