<svg width="92" height="47" viewBox="0 0 92 47" fill="none" xmlns="http://www.w3.org/2000/svg">
<path d="M1.64886 1.49316H3.85457V9.21025H8.63972V10.9998H1.64886V1.49316Z" fill="#282B72"/>
<path d="M14.9363 8.70499L16.0681 9.92776C15.3864 10.7018 14.3625 11.1085 13.0412 11.1085C10.5065 11.1085 8.85876 9.52104 8.85876 7.34577C8.85876 5.17051 10.5196 3.58301 12.7832 3.58301C14.8547 3.58301 16.5577 4.94223 16.5708 7.27756L11.1487 8.32714C11.4619 9.04873 12.141 9.41346 13.0964 9.41346C13.4353 9.42651 13.7733 9.3704 14.0897 9.24857C14.4061 9.12675 14.6942 8.94177 14.9363 8.70499ZM10.9434 7.13061L14.5125 6.43788C14.4117 6.06332 14.185 5.73463 13.8702 5.5068C13.5554 5.27896 13.1717 5.1658 12.7832 5.18626C11.7093 5.18626 10.9829 5.8921 10.9434 7.13061Z" fill="#282B72"/>
<path d="M25.1699 3.69572V11.0008H23.1406V10.1612C22.6141 10.7988 21.8245 11.1111 20.8506 11.1111C18.7792 11.1111 17.1841 9.64425 17.1841 7.34828C17.1841 5.05231 18.7792 3.58551 20.8506 3.58551C21.259 3.56522 21.6669 3.63382 22.046 3.78652C22.425 3.93923 22.7662 4.17238 23.0458 4.46979V3.69572H25.1699ZM23.0853 7.34828C23.0853 6.08615 22.2693 5.3252 21.2191 5.3252C20.1689 5.3252 19.3372 6.08615 19.3372 7.34828C19.3372 8.61041 20.1558 9.37398 21.2191 9.37398C22.2825 9.37398 23.0853 8.61303 23.0853 7.34828Z" fill="#282B72"/>
<path d="M31.6832 3.58301V5.54049C31.5069 5.52737 31.37 5.51162 31.2068 5.51162C30.0329 5.51162 29.2564 6.15187 29.2564 7.55044V10.9983H27.1323V3.69322H29.1617L29.0106 5.1387C29.5291 4.43286 30.5514 3.58301 31.6832 3.58301Z" fill="#282B72"/>
<path d="M24.6919 19.8965V21.8539C24.5156 21.8408 24.3787 21.8251 24.2155 21.8251C23.0416 21.8251 22.2651 22.4653 22.2651 23.8639V27.3118H20.141V20.0067H22.1704L22.0193 21.4521C22.5378 20.7463 23.5601 19.8965 24.6919 19.8965Z" fill="#282B72"/>
<path d="M41.1531 6.81721V10.9998H39.0158V7.14258C39.0158 5.95917 38.4709 5.41602 37.5313 5.41602C36.5074 5.41602 35.773 6.04052 35.773 7.38662V10.9998H33.6463V3.6947H35.6783L34.8988 5.14012C35.2123 4.81866 36.3697 3.97654 36.7873 3.81017C37.205 3.64381 37.6531 3.56692 38.1025 3.58449C39.8449 3.58449 41.1531 4.58947 41.1531 6.81721Z" fill="#282B72"/>
<path d="M41.6177 39.4217V43.6043H39.4804V39.7471C39.4804 38.5637 38.9355 38.0205 37.9959 38.0205C36.972 38.0205 36.2376 38.645 36.2376 39.9911V43.6043H34.1109V36.2992H36.1429L35.3634 37.7446C35.6769 37.4231 36.8343 36.581 37.2519 36.4147C37.6696 36.2483 38.1177 36.1714 38.5671 36.189C40.3095 36.189 41.6177 37.194 41.6177 39.4217Z" fill="#282B72"/>
<path d="M42.8989 1.49231C42.8989 0.825821 43.4253 0.311523 44.215 0.311523C45.0046 0.311523 45.531 0.79958 45.531 1.45032C45.531 2.15879 45.0046 2.67309 44.215 2.67309C43.4253 2.67309 42.8989 2.1588 42.8989 1.49231ZM43.1621 3.69382H45.2889V10.9989H43.1621V3.69382Z" fill="#282B72"/>
<path d="M55.1552 6.6678V10.8504H53.0285V6.99317C53.0285 5.80978 52.4836 5.2666 51.5439 5.2666C50.5227 5.2666 49.7857 5.89113 49.7857 7.2372V10.8504H47.659V3.54528H49.691L49.2553 4.99071C49.5688 4.66925 50.3823 3.82712 50.8 3.66076C51.2176 3.4944 51.6657 3.4175 52.1151 3.43507C53.847 3.43507 55.1552 4.44009 55.1552 6.6678Z" fill="#282B72"/>
<path d="M65.2758 3.69322V9.77819C65.2758 12.4966 63.8044 13.7456 61.1618 13.7456C59.7721 13.7456 58.4218 13.4045 57.5637 12.7407L58.4086 11.2187C59.1621 11.7615 60.069 12.0519 60.9986 12.0479C62.4963 12.0479 63.1517 11.3683 63.1517 10.0511V9.73884C62.8521 10.0458 62.4903 10.2856 62.0905 10.4421C61.6906 10.5987 61.2619 10.6684 60.8328 10.6467C58.8035 10.6467 57.1689 9.24816 57.1689 7.11487C57.1689 4.98159 58.8035 3.58301 60.8328 3.58301C61.8567 3.58301 62.7016 3.92412 63.2596 4.63259V3.69584L65.2758 3.69322ZM63.1701 7.10437C63.1701 6.03117 62.3647 5.3122 61.2487 5.3122C60.1327 5.3122 59.3141 6.03117 59.3141 7.10437C59.3141 8.17758 60.13 8.89917 61.2487 8.89917C62.3673 8.89917 63.178 8.18807 63.178 7.11487L63.1701 7.10437Z" fill="#282B72"/>
<path d="M1.04932 22.5462C1.04932 19.6808 3.25765 17.6289 6.22666 17.6289C7.87699 17.6289 9.25357 18.2272 10.1511 19.3135L8.73505 20.6255C8.44373 20.2737 8.07725 19.9912 7.66239 19.7987C7.24753 19.6062 6.79477 19.5086 6.3372 19.5129C4.55001 19.5129 3.28397 20.7619 3.28397 22.5541C3.28397 24.3463 4.55001 25.5979 6.3372 25.5979C6.79644 25.6028 7.25082 25.5038 7.66614 25.3083C8.08147 25.1129 8.44694 24.8261 8.73505 24.4696L10.1511 25.7816C9.25357 26.8836 7.87698 27.4819 6.20296 27.4819C3.25764 27.4714 1.04932 25.4326 1.04932 22.5462Z" fill="#282B72"/>
<path d="M18.4107 19.9961V27.3065H16.3945V26.4353C16.1085 26.7528 15.7569 27.0047 15.3638 27.1737C14.9708 27.3426 14.5457 27.4246 14.1178 27.414C12.2753 27.414 10.9856 26.3802 10.9856 24.1262V19.9961H13.1097V23.814C13.1097 25.0367 13.6545 25.5799 14.5942 25.5799C15.5759 25.5799 16.284 24.9554 16.284 23.6093V19.9961H18.4107Z" fill="#282B72"/>
<path d="M33.1974 19.9961L30.1047 27.3065H27.9095L24.83 19.9961H27.0252L29.0545 24.9685L31.1602 19.9961H33.1974Z" fill="#282B72"/>
<path d="M39.128 25.0107L40.2572 26.2334C39.5781 27.0075 38.5542 27.4142 37.2329 27.4142C34.6982 27.4142 33.0505 25.8241 33.0505 23.6514C33.0505 21.4788 34.7114 19.8887 36.975 19.8887C39.0464 19.8887 40.7494 21.2453 40.7626 23.5832L35.3378 24.6328C35.651 25.3518 36.3327 25.7191 37.2882 25.7191C37.6271 25.7322 37.9651 25.6761 38.2815 25.5542C38.5978 25.4324 38.8859 25.2474 39.128 25.0107ZM35.1351 23.4363L38.7043 22.7435C38.6035 22.3697 38.377 22.0416 38.0627 21.8143C37.7484 21.5869 37.3654 21.4741 36.9776 21.4945C35.9248 21.4945 35.1746 22.1978 35.1351 23.4337V23.4363Z" fill="#282B72"/>
<path d="M3.62345 35.8925H0.572845V34.0898H8.88501V35.882H5.83178V43.5991H3.62345V35.8925Z" fill="#282B72"/>
<path d="M14.4304 41.3131L15.5622 42.5359C14.8805 43.3099 13.8593 43.7193 12.5379 43.7193C10.0032 43.7193 8.35291 42.1291 8.35291 39.9539C8.35291 37.7786 10.0164 36.1885 12.2774 36.1885C14.3488 36.1885 16.0518 37.5477 16.0676 39.8856L10.6428 40.9352C10.9561 41.6568 11.6378 42.0216 12.5906 42.0216C12.9295 42.0349 13.2676 41.9789 13.584 41.8571C13.9005 41.7353 14.1885 41.5501 14.4304 41.3131ZM10.4375 39.7387L14.0093 39.046C13.908 38.6712 13.6807 38.3424 13.3655 38.1146C13.0503 37.8868 12.6662 37.7738 12.2774 37.7943C11.214 37.7943 10.4796 38.5002 10.4375 39.7387Z" fill="#282B72"/>
<path d="M16.6812 39.9522C16.6812 37.7533 18.3842 36.1895 20.7688 36.1895C22.3086 36.1895 23.522 36.8559 24.0537 38.0525L22.4034 38.9341C22.2506 38.6296 22.0152 38.374 21.7239 38.1964C21.4326 38.0187 21.0971 37.9261 20.7557 37.9291C19.6791 37.9291 18.8342 38.677 18.8342 39.9522C18.8342 41.2275 19.6791 41.9779 20.7557 41.9779C21.0977 41.9838 21.4343 41.8924 21.7262 41.7144C22.018 41.5364 22.2529 41.2792 22.4034 40.9729L24.0537 41.8677C23.5273 43.038 22.3086 43.7176 20.7688 43.7176C18.3842 43.7176 16.6812 42.1537 16.6812 39.9522Z" fill="#282B72"/>
<path d="M32.4474 39.4257V43.6109H30.3233V39.7536C30.3233 38.5702 29.7785 38.0271 28.8362 38.0271C27.8149 38.0271 27.0806 38.6516 27.0806 39.9977V43.6109H24.9538V33.5322H27.0806V37.0641C27.3913 36.7718 27.7573 36.5443 28.1573 36.3947C28.5572 36.2451 28.9831 36.1765 29.41 36.1929C31.1393 36.1903 32.4474 37.1979 32.4474 39.4257Z" fill="#282B72"/>
<path d="M42.7807 39.9522C42.7807 37.7533 44.4837 36.1895 46.8131 36.1895C49.1425 36.1895 50.8323 37.7638 50.8323 39.9522C50.8323 42.1406 49.1425 43.7176 46.8131 43.7176C44.4837 43.7176 42.7807 42.1537 42.7807 39.9522ZM48.6792 39.9522C48.6792 38.6901 47.8764 37.9291 46.8131 37.9291C45.7497 37.9291 44.9338 38.6901 44.9338 39.9522C44.9338 41.2143 45.7497 41.9779 46.8131 41.9779C47.8764 41.9779 48.6792 41.217 48.6792 39.9522Z" fill="#282B72"/>
<path d="M51.9801 33.5322H54.1042V43.6109H51.9801V33.5322Z" fill="#282B72"/>
<path d="M55.2649 39.9539C55.2649 37.7629 56.9811 36.1885 59.2973 36.1885C61.6135 36.1885 63.3165 37.7629 63.3165 39.9512C63.3165 42.1396 61.6267 43.7166 59.2973 43.7166C56.9679 43.7166 55.2649 42.1554 55.2649 39.9539ZM61.1635 39.9539C61.1635 38.6917 60.3738 37.9308 59.2973 37.9308C58.2208 37.9308 57.418 38.6917 57.418 39.9539C57.418 41.216 58.2339 41.9796 59.2973 41.9796C60.3607 41.9796 61.1635 41.2186 61.1635 39.9539Z" fill="#282B72"/>
<path d="M72.0267 36.3013V42.3863C72.0267 45.1047 70.5554 46.3537 67.9101 46.3537C66.5204 46.3537 65.1728 46.0152 64.3147 45.3487L65.1596 43.8268C65.9117 44.3704 66.818 44.6608 67.747 44.656C69.2473 44.656 70.226 44.727 70.226 43.4098V42.4285C69.9273 42.736 69.2401 42.8948 68.8406 43.0518C68.4411 43.2088 68.0126 43.2789 67.5838 43.2574C65.5544 43.2574 63.9172 41.8562 63.9172 39.723C63.9172 37.5897 65.5544 36.1885 67.5838 36.1885C68.6077 36.1885 69.4525 36.5296 70.0106 37.2381V36.3013H72.0267ZM69.9211 39.7125C69.9211 38.6393 69.1156 37.9203 67.9996 37.9203C66.8836 37.9203 66.065 38.6393 66.065 39.7125C66.065 40.7857 66.881 41.5073 67.9996 41.5073C69.1183 41.5073 69.929 40.7962 69.929 39.723L69.9211 39.7125Z" fill="#282B72"/>
<path d="M73.4717 34.089C73.4717 33.4225 73.9982 32.9082 74.7878 32.9082C75.5774 32.9082 76.1038 33.3963 76.1038 34.047C76.1038 34.7555 75.5774 35.2698 74.7878 35.2698C73.9982 35.2698 73.4717 34.766 73.4717 34.089ZM73.735 36.2905H75.859V43.5982H73.735V36.2905Z" fill="#282B72"/>
<path d="M83.0916 41.3131L84.2234 42.5359C83.5417 43.3099 82.5205 43.7193 81.1991 43.7193C78.6644 43.7193 77.0141 42.1291 77.0141 39.9539C77.0141 37.7786 78.6776 36.1885 80.9333 36.1885C83.0048 36.1885 84.7104 37.5477 84.7235 39.8856L79.2988 40.9352C79.612 41.6568 80.2937 42.0216 81.2465 42.0216C81.5863 42.0358 81.9255 41.9803 82.2429 41.8584C82.5603 41.7365 82.8492 41.5509 83.0916 41.3131ZM79.1014 39.7387L82.6705 39.046C82.5692 38.6712 82.3419 38.3424 82.0267 38.1146C81.7115 37.8868 81.3274 37.7738 80.9386 37.7943C79.8805 37.7943 79.1408 38.5002 79.0908 39.7387H79.1014Z" fill="#282B72"/>
<path d="M85.1786 42.93L85.8866 41.4081C86.6567 41.8679 87.5368 42.1127 88.4345 42.1166C89.4163 42.1166 89.7848 41.8542 89.7848 41.4501C89.7848 40.2536 85.3549 41.4763 85.3549 38.5637C85.3549 37.1783 86.6105 36.2021 88.7477 36.2021C89.7584 36.2021 90.8744 36.4331 91.5693 36.8424L90.8613 38.3486C90.2192 37.9868 89.4931 37.7995 88.7556 37.8054C87.8028 37.8054 87.3948 38.1045 87.3948 38.485C87.3948 39.734 91.822 38.527 91.822 41.4055C91.822 42.7647 90.556 43.7303 88.3608 43.7303C87.1132 43.7198 85.8603 43.3787 85.1786 42.93Z" fill="#282B72"/>
</svg>
