<svg width="92" height="47" viewBox="0 0 92 47" fill="none" xmlns="http://www.w3.org/2000/svg">
<path d="M1.3429 1.75781H3.5486V9.4749H8.33375V11.2644H1.3429V1.75781Z" fill="#282B72"/>
<path d="M14.6302 8.96964L15.762 10.1924C15.0803 10.9665 14.0564 11.3732 12.7351 11.3732C10.2004 11.3732 8.55273 9.78569 8.55273 7.61042C8.55273 5.43515 10.2136 3.84766 12.4772 3.84766C14.5486 3.84766 16.2516 5.20688 16.2648 7.5422L10.8427 8.59179C11.1559 9.31338 11.835 9.67811 12.7904 9.67811C13.1293 9.69116 13.4673 9.63505 13.7837 9.51322C14.1001 9.3914 14.3881 9.20642 14.6302 8.96964ZM10.6374 7.39526L14.2065 6.70253C14.1057 6.32797 13.879 5.99928 13.5642 5.77144C13.2494 5.54361 12.8656 5.43045 12.4772 5.4509C11.4033 5.4509 10.6768 6.15675 10.6374 7.39526Z" fill="#282B72"/>
<path d="M24.864 3.96037V11.2655H22.8346V10.4258C22.3082 11.0634 21.5186 11.3757 20.5447 11.3757C18.4732 11.3757 16.8782 9.9089 16.8782 7.61293C16.8782 5.31696 18.4732 3.85016 20.5447 3.85016C20.953 3.82987 21.3609 3.89846 21.74 4.05117C22.1191 4.20387 22.4603 4.43703 22.7399 4.73444V3.96037H24.864ZM22.7793 7.61293C22.7793 6.3508 21.9634 5.58985 20.9132 5.58985C19.863 5.58985 19.0312 6.3508 19.0312 7.61293C19.0312 8.87505 19.8498 9.63863 20.9132 9.63863C21.9766 9.63863 22.7793 8.87768 22.7793 7.61293Z" fill="#282B72"/>
<path d="M31.3772 3.84766V5.80514C31.2008 5.79202 31.064 5.77627 30.9008 5.77627C29.7269 5.77627 28.9504 6.41652 28.9504 7.81509V11.263H26.8263V3.95787H28.8556L28.7046 5.40335C29.2231 4.6975 30.2454 3.84766 31.3772 3.84766Z" fill="#282B72"/>
<path d="M24.3859 20.1611V22.1186C24.2096 22.1055 24.0727 22.0897 23.9095 22.0897C22.7356 22.0897 21.9591 22.73 21.9591 24.1285V27.5764H19.835V20.2713H21.8644L21.7133 21.7168C22.2318 21.0109 23.2541 20.1611 24.3859 20.1611Z" fill="#282B72"/>
<path d="M40.8471 7.08186V11.2645H38.7098V7.40723C38.7098 6.22382 38.165 5.68067 37.2253 5.68067C36.2014 5.68067 35.4671 6.30517 35.4671 7.65127V11.2645H33.3403V3.95934H35.3723L34.5928 5.40477C34.9064 5.08331 36.0637 4.24118 36.4813 4.07482C36.899 3.90846 37.3471 3.83157 37.7965 3.84913C39.5389 3.84913 40.8471 4.85412 40.8471 7.08186Z" fill="#282B72"/>
<path d="M41.3117 39.6864V43.869H39.1744V40.0117C39.1744 38.8283 38.6296 38.2852 37.6899 38.2852C36.666 38.2852 35.9317 38.9097 35.9317 40.2558V43.869H33.8049V36.5638H35.8369L35.0574 38.0093C35.371 37.6878 36.5283 36.8457 36.9459 36.6793C37.3636 36.513 37.8117 36.4361 38.2611 36.4536C40.0035 36.4536 41.3117 37.4586 41.3117 39.6864Z" fill="#282B72"/>
<path d="M42.5929 1.75696C42.5929 1.09047 43.1193 0.576172 43.9089 0.576172C44.6986 0.576172 45.225 1.06423 45.225 1.71497C45.225 2.42344 44.6986 2.93774 43.9089 2.93774C43.1193 2.93774 42.5929 2.42344 42.5929 1.75696ZM42.8561 3.95847H44.9828V11.2636H42.8561V3.95847Z" fill="#282B72"/>
<path d="M54.8491 6.93245V11.1151H52.7224V7.25782C52.7224 6.07443 52.1775 5.53125 51.2379 5.53125C50.2166 5.53125 49.4796 6.15577 49.4796 7.50185V11.1151H47.3529V3.80993H49.3849L48.9492 5.25536C49.2627 4.9339 50.0763 4.09177 50.4939 3.92541C50.9116 3.75905 51.3596 3.68215 51.809 3.69972C53.541 3.69972 54.8491 4.70473 54.8491 6.93245Z" fill="#282B72"/>
<path d="M64.9698 3.95787V10.0428C64.9698 12.7613 63.4984 14.0103 60.8558 14.0103C59.4661 14.0103 58.1158 13.6692 57.2577 13.0053L58.1026 11.4834C58.8561 12.0262 59.763 12.3165 60.6926 12.3126C62.1903 12.3126 62.8457 11.633 62.8457 10.3157V10.0035C62.5461 10.3105 62.1843 10.5502 61.7845 10.7068C61.3846 10.8633 60.9559 10.9331 60.5268 10.9114C58.4975 10.9114 56.8629 9.5128 56.8629 7.37952C56.8629 5.24624 58.4975 3.84766 60.5268 3.84766C61.5507 3.84766 62.3956 4.18877 62.9536 4.89724V3.96049L64.9698 3.95787ZM62.8641 7.36902C62.8641 6.29582 62.0587 5.57685 60.9427 5.57685C59.8267 5.57685 59.0081 6.29582 59.0081 7.36902C59.0081 8.44222 59.824 9.16381 60.9427 9.16381C62.0613 9.16381 62.872 8.45272 62.872 7.37952L62.8641 7.36902Z" fill="#282B72"/>
<path d="M0.743286 22.8109C0.743286 19.9455 2.95162 17.8936 5.92063 17.8936C7.57095 17.8936 8.94754 18.4918 9.84508 19.5781L8.42902 20.8901C8.1377 20.5383 7.77122 20.2559 7.35636 20.0634C6.9415 19.8709 6.48874 19.7732 6.03117 19.7776C4.24398 19.7776 2.97794 21.0266 2.97794 22.8187C2.97794 24.6109 4.24398 25.8625 6.03117 25.8625C6.49041 25.8674 6.94479 25.7684 7.36011 25.573C7.77544 25.3776 8.14091 25.0908 8.42902 24.7342L9.84508 26.0462C8.94754 27.1483 7.57095 27.7465 5.89693 27.7465C2.95161 27.736 0.743286 25.6972 0.743286 22.8109Z" fill="#282B72"/>
<path d="M18.1047 20.2607V27.5711H16.0885V26.6999C15.8025 27.0174 15.4509 27.2694 15.0578 27.4383C14.6648 27.6073 14.2397 27.6893 13.8118 27.6787C11.9693 27.6787 10.6796 26.6448 10.6796 24.3909V20.2607H12.8037V24.0786C12.8037 25.3014 13.3485 25.8445 14.2882 25.8445C15.2699 25.8445 15.978 25.22 15.978 23.8739V20.2607H18.1047Z" fill="#282B72"/>
<path d="M32.8914 20.2607L29.7987 27.5711H27.6035L24.5239 20.2607H26.7191L28.7484 25.2332L30.8541 20.2607H32.8914Z" fill="#282B72"/>
<path d="M38.822 25.2753L39.9512 26.4981C39.2721 27.2721 38.2482 27.6789 36.9269 27.6789C34.3922 27.6789 32.7445 26.0887 32.7445 23.9161C32.7445 21.7434 34.4054 20.1533 36.669 20.1533C38.7404 20.1533 40.4434 21.5099 40.4566 23.8479L35.0318 24.8974C35.345 25.6164 36.0267 25.9838 36.9822 25.9838C37.3211 25.9968 37.6591 25.9407 37.9755 25.8189C38.2918 25.6971 38.5799 25.5121 38.822 25.2753ZM34.8291 23.7009L38.3983 23.0082C38.2975 22.6343 38.071 22.3063 37.7567 22.0789C37.4424 21.8516 37.0594 21.7387 36.6716 21.7592C35.6188 21.7592 34.8686 22.4624 34.8291 23.6983V23.7009Z" fill="#282B72"/>
<path d="M3.31745 36.1572H0.266846V34.3545H8.57901V36.1467H5.52578V43.8637H3.31745V36.1572Z" fill="#282B72"/>
<path d="M14.1244 41.5777L15.2562 42.8005C14.5745 43.5746 13.5532 43.9839 12.2319 43.9839C9.6972 43.9839 8.04688 42.3938 8.04688 40.2185C8.04688 38.0433 9.71036 36.4531 11.9713 36.4531C14.0428 36.4531 15.7458 37.8123 15.7616 40.1503L10.3368 41.1999C10.65 41.9215 11.3317 42.2862 12.2846 42.2862C12.6235 42.2996 12.9616 42.2436 13.278 42.1217C13.5944 41.9999 13.8825 41.8148 14.1244 41.5777ZM10.1315 40.0034L13.7033 39.3106C13.6019 38.9359 13.3747 38.6071 13.0595 38.3793C12.7442 38.1515 12.3601 38.0384 11.9713 38.059C10.908 38.059 10.1736 38.7648 10.1315 40.0034Z" fill="#282B72"/>
<path d="M16.3752 40.2169C16.3752 38.018 18.0782 36.4541 20.4629 36.4541C22.0027 36.4541 23.2161 37.1206 23.7477 38.3171L22.0974 39.1988C21.9447 38.8943 21.7093 38.6387 21.418 38.461C21.1267 38.2833 20.7912 38.1908 20.4497 38.1938C19.3732 38.1938 18.5283 38.9416 18.5283 40.2169C18.5283 41.4921 19.3732 42.2426 20.4497 42.2426C20.7918 42.2484 21.1284 42.157 21.4202 41.979C21.712 41.801 21.9469 41.5439 22.0974 41.2376L23.7477 42.1324C23.2213 43.3026 22.0027 43.9823 20.4629 43.9823C18.0782 43.9823 16.3752 42.4184 16.3752 40.2169Z" fill="#282B72"/>
<path d="M32.1414 39.6903V43.8755H30.0173V40.0183C30.0173 38.8349 29.4725 38.2917 28.5302 38.2917C27.5089 38.2917 26.7746 38.9162 26.7746 40.2623V43.8755H24.6478V33.7969H26.7746V37.3287C27.0853 37.0365 27.4513 36.8089 27.8513 36.6593C28.2512 36.5097 28.6771 36.4412 29.104 36.4576C30.8333 36.455 32.1414 37.4626 32.1414 39.6903Z" fill="#282B72"/>
<path d="M42.4747 40.2169C42.4747 38.018 44.1777 36.4541 46.5071 36.4541C48.8365 36.4541 50.5263 38.0285 50.5263 40.2169C50.5263 42.4053 48.8365 43.9823 46.5071 43.9823C44.1777 43.9823 42.4747 42.4184 42.4747 40.2169ZM48.3733 40.2169C48.3733 38.9547 47.5705 38.1938 46.5071 38.1938C45.4437 38.1938 44.6278 38.9547 44.6278 40.2169C44.6278 41.479 45.4437 42.2426 46.5071 42.2426C47.5705 42.2426 48.3733 41.4816 48.3733 40.2169Z" fill="#282B72"/>
<path d="M51.6741 33.7969H53.7982V43.8755H51.6741V33.7969Z" fill="#282B72"/>
<path d="M54.9589 40.2185C54.9589 38.0275 56.675 36.4531 58.9912 36.4531C61.3075 36.4531 63.0105 38.0275 63.0105 40.2159C63.0105 42.4043 61.3206 43.9813 58.9912 43.9813C56.6618 43.9813 54.9589 42.42 54.9589 40.2185ZM60.8574 40.2185C60.8574 38.9564 60.0678 38.1954 58.9912 38.1954C57.9147 38.1954 57.1119 38.9564 57.1119 40.2185C57.1119 41.4806 57.9279 42.2442 58.9912 42.2442C60.0546 42.2442 60.8574 41.4833 60.8574 40.2185Z" fill="#282B72"/>
<path d="M71.7207 36.566V42.6509C71.7207 45.3694 70.2494 46.6184 67.6041 46.6184C66.2144 46.6184 64.8667 46.2799 64.0087 45.6134L64.8536 44.0915C65.6057 44.635 66.512 44.9255 67.4409 44.9207C68.9412 44.9207 69.92 44.9917 69.92 43.6745V42.6932C69.6213 43.0007 68.9341 43.1594 68.5346 43.3164C68.1351 43.4735 67.7066 43.5436 67.2777 43.5221C65.2484 43.5221 63.6112 42.1209 63.6112 39.9876C63.6112 37.8543 65.2484 36.4531 67.2777 36.4531C68.3016 36.4531 69.1465 36.7942 69.7045 37.5027V36.566H71.7207ZM69.615 39.9771C69.615 38.9039 68.8096 38.1849 67.6936 38.1849C66.5776 38.1849 65.759 38.9039 65.759 39.9771C65.759 41.0503 66.575 41.7719 67.6936 41.7719C68.8122 41.7719 69.6229 41.0608 69.6229 39.9876L69.615 39.9771Z" fill="#282B72"/>
<path d="M73.1658 34.3536C73.1658 33.6871 73.6922 33.1729 74.4818 33.1729C75.2715 33.1729 75.7979 33.6609 75.7979 34.3117C75.7979 35.0201 75.2715 35.5344 74.4818 35.5344C73.6922 35.5344 73.1658 35.0306 73.1658 34.3536ZM73.429 36.5551H75.5531V43.8629H73.429V36.5551Z" fill="#282B72"/>
<path d="M82.7857 41.5777L83.9175 42.8005C83.2357 43.5746 82.2145 43.9839 80.8932 43.9839C78.3585 43.9839 76.7081 42.3938 76.7081 40.2185C76.7081 38.0433 78.3716 36.4531 80.6273 36.4531C82.6988 36.4531 84.4044 37.8123 84.4176 40.1503L78.9928 41.1999C79.306 41.9215 79.9877 42.2862 80.9405 42.2862C81.2804 42.3004 81.6195 42.2449 81.9369 42.123C82.2543 42.0012 82.5432 41.8156 82.7857 41.5777ZM78.7954 40.0034L82.3645 39.3106C82.2632 38.9359 82.0359 38.6071 81.7207 38.3793C81.4055 38.1515 81.0214 38.0384 80.6326 38.059C79.5745 38.059 78.8349 38.7648 78.7849 40.0034H78.7954Z" fill="#282B72"/>
<path d="M84.8726 43.1946L85.5806 41.6728C86.3507 42.1326 87.2308 42.3773 88.1285 42.3812C89.1102 42.3812 89.4787 42.1188 89.4787 41.7147C89.4787 40.5182 85.0489 41.741 85.0489 38.8284C85.0489 37.4429 86.3044 36.4668 88.4417 36.4668C89.4524 36.4668 90.5684 36.6977 91.2633 37.107L90.5553 38.6132C89.9132 38.2515 89.1871 38.0642 88.4496 38.07C87.4968 38.07 87.0888 38.3692 87.0888 38.7497C87.0888 39.9987 91.516 38.7916 91.516 41.6701C91.516 43.0293 90.2499 43.995 88.0548 43.995C86.8071 43.9845 85.5543 43.6433 84.8726 43.1946Z" fill="#282B72"/>
</svg>
