<svg width="65" height="65" viewBox="0 0 65 65" fill="none" xmlns="http://www.w3.org/2000/svg">
<path d="M11.8524 20.5496C5.95728 20.5496 3.0097 23.4971 3.0097 29.3923V52.9729C3.0097 58.868 5.95728 61.8156 11.8524 61.8156H35.433C29.5379 61.8156 26.5903 58.868 26.5903 52.9729V20.5496M11.8524 20.5496H26.5903M11.8524 20.5496V14.6544C11.8524 11.4121 14.5052 8.75928 17.7476 8.75928H26.9145C26.6787 9.64355 26.5903 10.6162 26.5903 11.7069V20.5496M38.3806 20.5496V35.2874M50.1709 20.5496V35.2874M14.8 35.2874V47.0777M47.2233 47.0777H41.3282C39.707 47.0777 38.3806 48.4041 38.3806 50.0253V61.8156H50.1709V50.0253C50.1709 48.4041 48.8445 47.0777 47.2233 47.0777Z" stroke="#8A8A8A" stroke-width="4.42136" stroke-miterlimit="10" stroke-linecap="round" stroke-linejoin="round"/>
<path d="M26.5908 52.973V11.707C26.5908 5.81183 29.5384 2.86426 35.4335 2.86426H53.119C59.0141 2.86426 61.9617 5.81183 61.9617 11.707V52.973C61.9617 58.8681 59.0141 61.8157 53.119 61.8157H35.4335C29.5384 61.8157 26.5908 58.8681 26.5908 52.973Z" stroke="#8A8A8A" stroke-width="4.42136" stroke-miterlimit="10" stroke-linecap="round" stroke-linejoin="round"/>
</svg>
