<svg width="139" height="62" viewBox="0 0 139 62" fill="none" xmlns="http://www.w3.org/2000/svg">
<path d="M2.24146 2.08154H5.58667V12.3428H12.8439V14.7223H2.24146V2.08154Z" fill="#282B72"/>
<path d="M22.3933 11.6719L24.1098 13.2978C23.0759 14.3271 21.5231 14.8679 19.5191 14.8679C15.6749 14.8679 13.176 12.757 13.176 9.86461C13.176 6.9722 15.6949 4.86133 19.1279 4.86133C22.2695 4.86133 24.8523 6.66866 24.8723 9.7739L16.649 11.1695C17.124 12.129 18.1539 12.614 19.603 12.614C20.117 12.6313 20.6296 12.5567 21.1094 12.3947C21.5892 12.2327 22.0261 11.9868 22.3933 11.6719ZM16.3376 9.57852L21.7506 8.65741C21.5978 8.15936 21.2539 7.7223 20.7765 7.41935C20.2991 7.1164 19.7171 6.96594 19.1279 6.99314C17.4992 6.99314 16.3975 7.93169 16.3376 9.57852Z" fill="#282B72"/>
<path d="M37.914 5.01055V14.724H34.8363V13.6075C34.0379 14.4554 32.8403 14.8706 31.3633 14.8706C28.2217 14.8706 25.8026 12.9202 25.8026 9.86728C25.8026 6.81437 28.2217 4.864 31.3633 4.864C31.9826 4.83703 32.6013 4.92823 33.1762 5.13128C33.7511 5.33433 34.2685 5.64435 34.6926 6.03981V5.01055H37.914ZM34.7524 9.86728C34.7524 8.18906 33.515 7.17724 31.9222 7.17724C30.3294 7.17724 29.068 8.18906 29.068 9.86728C29.068 11.5455 30.3095 12.5608 31.9222 12.5608C33.5349 12.5608 34.7524 11.549 34.7524 9.86728Z" fill="#282B72"/>
<path d="M47.792 4.86133V7.46416C47.5245 7.44671 47.317 7.42577 47.0695 7.42577C45.2891 7.42577 44.1115 8.2771 44.1115 10.1368V14.7214H40.89V5.00787H43.9678L43.7387 6.92991C44.5251 5.99136 46.0755 4.86133 47.792 4.86133Z" fill="#282B72"/>
<path d="M37.1889 26.5556V29.1584C36.9214 29.141 36.7138 29.1201 36.4663 29.1201C34.6859 29.1201 33.5083 29.9714 33.5083 31.831V36.4156H30.2869V26.7022H33.3646L33.1355 28.6242C33.9219 27.6856 35.4723 26.5556 37.1889 26.5556Z" fill="#282B72"/>
<path d="M62.1542 9.16114V14.7227H58.9128V9.59378C58.9128 8.02022 58.0864 7.29799 56.6613 7.29799C55.1085 7.29799 53.9947 8.12839 53.9947 9.91826V14.7227H50.7693V5.00918H53.851L52.6689 6.93114C53.1444 6.50369 54.8996 5.38394 55.533 5.16273C56.1664 4.94153 56.846 4.83928 57.5276 4.86264C60.1702 4.86264 62.1542 6.19894 62.1542 9.16114Z" fill="#282B72"/>
<path d="M62.8591 52.5176V58.0791H59.6177V52.9502C59.6177 51.3767 58.7914 50.6544 57.3663 50.6544C55.8134 50.6544 54.6997 51.4848 54.6997 53.2747V58.0791H51.4742V48.3656H54.556L53.3738 50.2876C53.8493 49.8601 55.6045 48.7404 56.238 48.5192C56.8714 48.298 57.551 48.1957 58.2325 48.2191C60.8752 48.2191 62.8591 49.5554 62.8591 52.5176Z" fill="#282B72"/>
<path d="M64.8021 2.08179C64.8021 1.19557 65.6005 0.511719 66.7981 0.511719C67.9956 0.511719 68.794 1.16068 68.794 2.02596C68.794 2.968 67.9956 3.65185 66.7981 3.65185C65.6005 3.65185 64.8021 2.968 64.8021 2.08179ZM65.2013 5.0091H68.4267V14.7226H65.2013V5.0091Z" fill="#282B72"/>
<path d="M83.3903 8.96338V14.5249H80.1648V9.39602C80.1648 7.82249 79.3385 7.10024 77.9134 7.10024C76.3645 7.10024 75.2468 7.93066 75.2468 9.72051V14.5249H72.0214V4.81143H75.1031L74.4423 6.73339C74.9178 6.30595 76.1517 5.18618 76.7851 4.96498C77.4185 4.74377 78.0981 4.64153 78.7796 4.66488C81.4063 4.66488 83.3903 6.00123 83.3903 8.96338Z" fill="#282B72"/>
<path d="M98.7392 5.00787V13.099C98.7392 16.7136 96.5078 18.3744 92.4999 18.3744C90.3922 18.3744 88.3444 17.9208 87.043 17.0381L88.3244 15.0144C89.4672 15.7362 90.8425 16.1222 92.2524 16.117C94.5238 16.117 95.5178 15.2133 95.5178 13.4618V13.0466C95.0635 13.4548 94.5148 13.7736 93.9083 13.9818C93.3019 14.1899 92.6516 14.2827 92.0009 14.2538C88.9232 14.2538 86.4442 12.3942 86.4442 9.55758C86.4442 6.72099 88.9232 4.86133 92.0009 4.86133C93.5538 4.86133 94.8352 5.3149 95.6815 6.25694V5.01136L98.7392 5.00787ZM95.5457 9.54362C95.5457 8.11661 94.3242 7.1606 92.6317 7.1606C90.9391 7.1606 89.6976 8.11661 89.6976 9.54362C89.6976 10.9706 90.9351 11.9301 92.6317 11.9301C94.3282 11.9301 95.5577 10.9846 95.5577 9.55758L95.5457 9.54362Z" fill="#282B72"/>
<path d="M1.33203 30.0741C1.33203 26.2641 4.68124 23.5356 9.18409 23.5356C11.687 23.5356 13.7748 24.3311 15.136 25.7756L12.9884 27.5201C12.5466 27.0524 11.9907 26.6768 11.3616 26.4208C10.7324 26.1649 10.0457 26.035 9.35175 26.0408C6.64125 26.0408 4.72115 27.7016 4.72115 30.0846C4.72115 32.4676 6.64125 34.1319 9.35175 34.1319C10.0482 34.1384 10.7374 34.0067 11.3672 33.7469C11.9971 33.487 12.5514 33.1057 12.9884 32.6316L15.136 34.3761C13.7748 35.8415 11.687 36.637 9.14816 36.637C4.68123 36.623 1.33203 33.912 1.33203 30.0741Z" fill="#282B72"/>
<path d="M27.6627 26.6855V36.406H24.6049V35.2476C24.1712 35.6698 23.6379 36.0048 23.0418 36.2294C22.4457 36.4541 21.8009 36.5632 21.152 36.5491C18.3576 36.5491 16.4016 35.1744 16.4016 32.1773V26.6855H19.6231V31.7621C19.6231 33.388 20.4494 34.1102 21.8745 34.1102C23.3635 34.1102 24.4373 33.2798 24.4373 31.49V26.6855H27.6627Z" fill="#282B72"/>
<path d="M50.0884 26.6855L45.398 36.406H42.0687L37.3982 26.6855H40.7274L43.8052 33.2973L46.9987 26.6855H50.0884Z" fill="#282B72"/>
<path d="M59.0831 33.3541L60.7957 34.98C59.7657 36.0092 58.2129 36.55 56.2089 36.55C52.3648 36.55 49.8658 34.4357 49.8658 31.5467C49.8658 28.6578 52.3847 26.5435 55.8177 26.5435C58.9594 26.5435 61.5421 28.3473 61.5621 31.456L53.3348 32.8516C53.8098 33.8076 54.8437 34.2961 56.2928 34.2961C56.8068 34.3135 57.3194 34.2388 57.7992 34.0769C58.279 33.9149 58.7159 33.6689 59.0831 33.3541ZM53.0274 31.2606L58.4404 30.3395C58.2876 29.8424 57.9442 29.4062 57.4675 29.1039C56.9908 28.8016 56.4099 28.6515 55.8217 28.6787C54.225 28.6787 53.0873 29.6138 53.0274 31.2572V31.2606Z" fill="#282B72"/>
<path d="M5.23622 47.8227H0.609619V45.4258H13.216V47.8088H8.58543V58.0701H5.23622V47.8227Z" fill="#282B72"/>
<path d="M21.6262 55.0319L23.3427 56.6578C22.3088 57.687 20.76 58.2313 18.756 58.2313C14.9119 58.2313 12.4089 56.117 12.4089 53.2245C12.4089 50.3321 14.9318 48.2178 18.3609 48.2178C21.5025 48.2178 24.0852 50.0251 24.1092 53.1338L15.8819 54.5294C16.3569 55.4889 17.3908 55.9739 18.8359 55.9739C19.3499 55.9917 19.8627 55.9173 20.3426 55.7552C20.8225 55.5932 21.2593 55.347 21.6262 55.0319ZM15.5705 52.9384L20.9875 52.0173C20.8339 51.519 20.4892 51.0819 20.0111 50.779C19.533 50.476 18.9505 50.3257 18.3609 50.3531C16.7481 50.3531 15.6344 51.2916 15.5705 52.9384Z" fill="#282B72"/>
<path d="M25.0396 53.223C25.0396 50.2992 27.6223 48.2197 31.239 48.2197C33.5742 48.2197 35.4145 49.1059 36.2208 50.6969L33.7179 51.8693C33.4863 51.4644 33.1292 51.1245 32.6874 50.8883C32.2457 50.652 31.7369 50.5289 31.219 50.533C29.5863 50.533 28.3049 51.5273 28.3049 53.223C28.3049 54.9187 29.5863 55.9165 31.219 55.9165C31.7377 55.9243 32.2483 55.8028 32.6909 55.5661C33.1334 55.3294 33.4897 54.9875 33.7179 54.5802L36.2208 55.77C35.4225 57.3261 33.5742 58.2298 31.239 58.2298C27.6223 58.2298 25.0396 56.1503 25.0396 53.223Z" fill="#282B72"/>
<path d="M48.9516 52.5205V58.0855H45.7301V52.9566C45.7301 51.383 44.9038 50.6608 43.4747 50.6608C41.9259 50.6608 40.8121 51.4912 40.8121 53.2811V58.0855H37.5867V44.6841H40.8121V49.3803C41.2834 48.9917 41.8385 48.6891 42.4451 48.4902C43.0517 48.2913 43.6976 48.2001 44.3449 48.222C46.9676 48.2185 48.9516 49.5583 48.9516 52.5205Z" fill="#282B72"/>
<path d="M64.6229 53.223C64.6229 50.2992 67.2057 48.2197 70.7385 48.2197C74.2713 48.2197 76.8341 50.3131 76.8341 53.223C76.8341 56.1329 74.2713 58.2298 70.7385 58.2298C67.2057 58.2298 64.6229 56.1503 64.6229 53.223ZM73.5688 53.223C73.5688 51.5448 72.3512 50.533 70.7385 50.533C69.1258 50.533 67.8883 51.5448 67.8883 53.223C67.8883 54.9012 69.1258 55.9165 70.7385 55.9165C72.3512 55.9165 73.5688 54.9047 73.5688 53.223Z" fill="#282B72"/>
<path d="M78.5747 44.6841H81.7962V58.0855H78.5747V44.6841Z" fill="#282B72"/>
<path d="M83.5566 53.2245C83.5566 50.3112 86.1594 48.2178 89.6722 48.2178C93.1851 48.2178 95.7679 50.3112 95.7679 53.2211C95.7679 56.1309 93.2051 58.2278 89.6722 58.2278C86.1394 58.2278 83.5566 56.1519 83.5566 53.2245ZM92.5025 53.2245C92.5025 51.5463 91.3049 50.5345 89.6722 50.5345C88.0395 50.5345 86.822 51.5463 86.822 53.2245C86.822 54.9028 88.0595 55.9181 89.6722 55.9181C91.285 55.9181 92.5025 54.9063 92.5025 53.2245Z" fill="#282B72"/>
<path d="M108.978 48.3678V56.4589C108.978 60.0735 106.746 61.7343 102.734 61.7343C100.627 61.7343 98.5828 61.2842 97.2815 60.398L98.5629 58.3744C99.7036 59.0971 101.078 59.4833 102.487 59.4769C104.762 59.4769 106.247 59.5714 106.247 57.8199V56.515C105.794 56.9239 104.751 57.135 104.146 57.3438C103.54 57.5526 102.89 57.6458 102.239 57.6172C99.1617 57.6172 96.6787 55.7541 96.6787 52.9175C96.6787 50.0809 99.1617 48.2178 102.239 48.2178C103.792 48.2178 105.074 48.6713 105.92 49.6134V48.3678H108.978ZM105.784 52.9036C105.784 51.4765 104.563 50.5205 102.87 50.5205C101.178 50.5205 99.9361 51.4765 99.9361 52.9036C99.9361 54.3306 101.174 55.2901 102.87 55.2901C104.567 55.2901 105.796 54.3445 105.796 52.9175L105.784 52.9036Z" fill="#282B72"/>
<path d="M111.169 45.426C111.169 44.5398 111.968 43.856 113.165 43.856C114.363 43.856 115.161 44.5049 115.161 45.3702C115.161 46.3122 114.363 46.9961 113.165 46.9961C111.968 46.9961 111.169 46.3262 111.169 45.426ZM111.568 48.3533H114.79V58.0703H111.568V48.3533Z" fill="#282B72"/>
<path d="M125.759 55.0319L127.475 56.6578C126.441 57.687 124.893 58.2313 122.889 58.2313C119.044 58.2313 116.542 56.117 116.542 53.2245C116.542 50.3321 119.064 48.2178 122.485 48.2178C125.627 48.2178 128.214 50.0251 128.234 53.1338L120.006 54.5294C120.482 55.4889 121.515 55.9739 122.96 55.9739C123.476 55.9928 123.99 55.919 124.472 55.7569C124.953 55.5949 125.391 55.3481 125.759 55.0319ZM119.707 52.9384L125.12 52.0173C124.966 51.519 124.622 51.0819 124.144 50.779C123.666 50.476 123.083 50.3257 122.493 50.3531C120.889 50.3531 119.767 51.2916 119.691 52.9384H119.707Z" fill="#282B72"/>
<path d="M128.924 57.1817L129.998 55.1581C131.166 55.7696 132.501 56.0949 133.862 56.1001C135.351 56.1001 135.91 55.7512 135.91 55.2139C135.91 53.6229 129.192 55.2488 129.192 51.376C129.192 49.5338 131.096 48.2358 134.337 48.2358C135.87 48.2358 137.563 48.5429 138.617 49.0872L137.543 51.0899C136.569 50.6089 135.468 50.3598 134.349 50.3676C132.904 50.3676 132.286 50.7654 132.286 51.2713C132.286 52.9321 139 51.3271 139 55.1546C139 56.9619 137.08 58.2459 133.751 58.2459C131.858 58.2319 129.958 57.7784 128.924 57.1817Z" fill="#282B72"/>
</svg>
