<svg width="122" height="62" viewBox="0 0 122 62" fill="none" xmlns="http://www.w3.org/2000/svg">
<path d="M1.66116 2.08154H4.59404V12.3428H10.9568V14.7223H1.66116V2.08154Z" fill="#282B72"/>
<path d="M19.329 11.6719L20.834 13.2978C19.9275 14.3271 18.5661 14.8679 16.8091 14.8679C13.4388 14.8679 11.2479 12.757 11.2479 9.86461C11.2479 6.9722 13.4563 4.86133 16.4661 4.86133C19.2205 4.86133 21.4849 6.66866 21.5024 9.7739L14.2927 11.1695C14.7092 12.129 15.6122 12.614 16.8826 12.614C17.3333 12.6313 17.7827 12.5567 18.2034 12.3947C18.6241 12.2327 19.0071 11.9868 19.329 11.6719ZM14.0197 9.57852L18.7655 8.65741C18.6315 8.15936 18.33 7.7223 17.9115 7.41935C17.4929 7.1164 16.9827 6.96594 16.4661 6.99314C15.0382 6.99314 14.0722 7.93169 14.0197 9.57852Z" fill="#282B72"/>
<path d="M32.9366 5.01055V14.724H30.2382V13.6075C29.5383 14.4554 28.4883 14.8706 27.1934 14.8706C24.439 14.8706 22.3181 12.9202 22.3181 9.86728C22.3181 6.81437 24.439 4.864 27.1934 4.864C27.7363 4.83703 28.2787 4.92823 28.7828 5.13128C29.2868 5.33433 29.7405 5.64435 30.1122 6.03981V5.01055H32.9366ZM30.1647 9.86728C30.1647 8.18906 29.0798 7.17724 27.6833 7.17724C26.2869 7.17724 25.1809 8.18906 25.1809 9.86728C25.1809 11.5455 26.2694 12.5608 27.6833 12.5608C29.0973 12.5608 30.1647 11.549 30.1647 9.86728Z" fill="#282B72"/>
<path d="M41.5972 4.86133V7.46416C41.3627 7.44671 41.1807 7.42577 40.9637 7.42577C39.4028 7.42577 38.3703 8.2771 38.3703 10.1368V14.7214H35.546V5.00787H38.2444L38.0435 6.92991C38.733 5.99136 40.0923 4.86133 41.5972 4.86133Z" fill="#282B72"/>
<path d="M32.3009 26.5556V29.1584C32.0664 29.141 31.8845 29.1201 31.6675 29.1201C30.1065 29.1201 29.0741 29.9714 29.0741 31.831V36.4156H26.2497V26.7022H28.9481L28.7472 28.6242C29.4367 27.6856 30.796 26.5556 32.3009 26.5556Z" fill="#282B72"/>
<path d="M54.189 9.16114V14.7227H51.3471V9.59378C51.3471 8.02022 50.6226 7.29799 49.3732 7.29799C48.0117 7.29799 47.0353 8.12839 47.0353 9.91826V14.7227H44.2074V5.00918H46.9093L45.8728 6.93114C46.2897 6.50369 47.8286 5.38394 48.3839 5.16273C48.9393 4.94153 49.5351 4.83928 50.1327 4.86264C52.4496 4.86264 54.189 6.19894 54.189 9.16114Z" fill="#282B72"/>
<path d="M54.8069 52.5176V58.0791H51.965V52.9502C51.965 51.3767 51.2406 50.6544 49.9911 50.6544C48.6297 50.6544 47.6532 51.4848 47.6532 53.2747V58.0791H44.8253V48.3656H47.5272L46.4908 50.2876C46.9076 49.8601 48.4465 48.7404 49.0019 48.5192C49.5572 48.298 50.153 48.1957 50.7506 48.2191C53.0675 48.2191 54.8069 49.5554 54.8069 52.5176Z" fill="#282B72"/>
<path d="M56.5105 2.08179C56.5105 1.19557 57.2105 0.511719 58.2604 0.511719C59.3104 0.511719 60.0104 1.16068 60.0104 2.02596C60.0104 2.968 59.3104 3.65185 58.2604 3.65185C57.2105 3.65185 56.5105 2.968 56.5105 2.08179ZM56.8605 5.0091H59.6884V14.7226H56.8605V5.0091Z" fill="#282B72"/>
<path d="M72.8075 8.96338V14.5249H69.9797V9.39602C69.9797 7.82249 69.2552 7.10024 68.0058 7.10024C66.6478 7.10024 65.6679 7.93066 65.6679 9.72051V14.5249H62.84V4.81143H65.5419L64.9625 6.73339C65.3794 6.30595 66.4612 5.18618 67.0165 4.96498C67.5718 4.74377 68.1677 4.64153 68.7652 4.66488C71.0681 4.66488 72.8075 6.00123 72.8075 8.96338Z" fill="#282B72"/>
<path d="M86.2647 5.00787V13.099C86.2647 16.7136 84.3083 18.3744 80.7944 18.3744C78.9465 18.3744 77.151 17.9208 76.0101 17.0381L77.1335 15.0144C78.1355 15.7362 79.3413 16.1222 80.5774 16.117C82.5688 16.117 83.4403 15.2133 83.4403 13.4618V13.0466C83.042 13.4548 82.5609 13.7736 82.0292 13.9818C81.4975 14.1899 80.9274 14.2827 80.3569 14.2538C77.6585 14.2538 75.4851 12.3942 75.4851 9.55758C75.4851 6.72099 77.6585 4.86133 80.3569 4.86133C81.7184 4.86133 82.8418 5.3149 83.5838 6.25694V5.01136L86.2647 5.00787ZM83.4648 9.54362C83.4648 8.11661 82.3938 7.1606 80.9099 7.1606C79.4259 7.1606 78.3375 8.11661 78.3375 9.54362C78.3375 10.9706 79.4224 11.9301 80.9099 11.9301C82.3973 11.9301 83.4753 10.9846 83.4753 9.55758L83.4648 9.54362Z" fill="#282B72"/>
<path d="M0.8638 30.0741C0.8638 26.2641 3.80018 23.5356 7.74802 23.5356C9.94243 23.5356 11.7728 24.3311 12.9663 25.7756L11.0834 27.5201C10.696 27.0524 10.2087 26.6768 9.65709 26.4208C9.10546 26.1649 8.50343 26.035 7.89501 26.0408C5.51861 26.0408 3.83517 27.7016 3.83517 30.0846C3.83517 32.4676 5.51861 34.1319 7.89501 34.1319C8.50565 34.1384 9.10982 34.0067 9.66208 33.7469C10.2143 33.487 10.7003 33.1057 11.0834 32.6316L12.9663 34.3761C11.7728 35.8415 9.94242 36.637 7.71651 36.637C3.80017 36.623 0.8638 33.912 0.8638 30.0741Z" fill="#282B72"/>
<path d="M23.949 26.6855V36.406H21.2681V35.2476C20.8878 35.6698 20.4202 36.0048 19.8976 36.2294C19.375 36.4541 18.8097 36.5632 18.2407 36.5491C15.7908 36.5491 14.0759 35.1744 14.0759 32.1773V26.6855H16.9003V31.7621C16.9003 33.388 17.6247 34.1102 18.8742 34.1102C20.1796 34.1102 21.1211 33.2798 21.1211 31.49V26.6855H23.949Z" fill="#282B72"/>
<path d="M43.6108 26.6855L39.4984 36.406H36.5795L32.4847 26.6855H35.4036L38.102 33.2973L40.9019 26.6855H43.6108Z" fill="#282B72"/>
<path d="M51.4964 33.3541L52.9979 34.98C52.0949 36.0092 50.7335 36.55 48.9765 36.55C45.6062 36.55 43.4153 34.4357 43.4153 31.5467C43.4153 28.6578 45.6237 26.5435 48.6336 26.5435C51.3879 26.5435 53.6524 28.3473 53.6699 31.456L46.4567 32.8516C46.8731 33.8076 47.7796 34.2961 49.05 34.2961C49.5007 34.3135 49.9501 34.2388 50.3708 34.0769C50.7915 33.9149 51.1745 33.6689 51.4964 33.3541ZM46.1872 31.2606L50.933 30.3395C50.799 29.8424 50.4979 29.4062 50.08 29.1039C49.662 28.8016 49.1527 28.6515 48.6371 28.6787C47.2371 28.6787 46.2397 29.6138 46.1872 31.2572V31.2606Z" fill="#282B72"/>
<path d="M4.28671 47.8227H0.230377V45.4258H11.2829V47.8088H7.22309V58.0701H4.28671V47.8227Z" fill="#282B72"/>
<path d="M18.6564 55.0319L20.1614 56.6578C19.2549 57.687 17.897 58.2313 16.1401 58.2313C12.7697 58.2313 10.5753 56.117 10.5753 53.2245C10.5753 50.3321 12.7872 48.2178 15.7936 48.2178C18.548 48.2178 20.8124 50.0251 20.8334 53.1338L13.6202 54.5294C14.0366 55.4889 14.9431 55.9739 16.2101 55.9739C16.6607 55.9917 17.1103 55.9173 17.531 55.7552C17.9518 55.5932 18.3348 55.347 18.6564 55.0319ZM13.3472 52.9384L18.0965 52.0173C17.9618 51.519 17.6596 51.0819 17.2404 50.779C16.8213 50.476 16.3105 50.3257 15.7936 50.3531C14.3796 50.3531 13.4032 51.2916 13.3472 52.9384Z" fill="#282B72"/>
<path d="M21.6491 53.223C21.6491 50.2992 23.9135 48.2197 27.0844 48.2197C29.1318 48.2197 30.7452 49.1059 31.4522 50.6969L29.2578 51.8693C29.0547 51.4644 28.7416 51.1245 28.3543 50.8883C27.967 50.652 27.5209 50.5289 27.0668 50.533C25.6354 50.533 24.512 51.5273 24.512 53.223C24.512 54.9187 25.6354 55.9165 27.0668 55.9165C27.5217 55.9243 27.9693 55.8028 28.3573 55.5661C28.7453 55.3294 29.0577 54.9875 29.2578 54.5802L31.4522 55.77C30.7522 57.3261 29.1318 58.2298 27.0844 58.2298C23.9135 58.2298 21.6491 56.1503 21.6491 53.223Z" fill="#282B72"/>
<path d="M42.6136 52.5205V58.0855H39.7892V52.9566C39.7892 51.383 39.0647 50.6608 37.8118 50.6608C36.4538 50.6608 35.4774 51.4912 35.4774 53.2811V58.0855H32.6495V44.6841H35.4774V49.3803C35.8905 48.9917 36.3772 48.6891 36.909 48.4902C37.4409 48.2913 38.0071 48.2001 38.5747 48.222C40.8741 48.2185 42.6136 49.5583 42.6136 52.5205Z" fill="#282B72"/>
<path d="M56.3533 53.223C56.3533 50.2992 58.6177 48.2197 61.7151 48.2197C64.8125 48.2197 67.0594 50.3131 67.0594 53.223C67.0594 56.1329 64.8125 58.2298 61.7151 58.2298C58.6177 58.2298 56.3533 56.1503 56.3533 53.223ZM64.1965 53.223C64.1965 51.5448 63.1291 50.533 61.7151 50.533C60.3012 50.533 59.2162 51.5448 59.2162 53.223C59.2162 54.9012 60.3012 55.9165 61.7151 55.9165C63.1291 55.9165 64.1965 54.9047 64.1965 53.223Z" fill="#282B72"/>
<path d="M68.5856 44.6841H71.41V58.0855H68.5856V44.6841Z" fill="#282B72"/>
<path d="M72.9534 53.2245C72.9534 50.3112 75.2353 48.2178 78.3152 48.2178C81.3951 48.2178 83.6595 50.3112 83.6595 53.2211C83.6595 56.1309 81.4126 58.2278 78.3152 58.2278C75.2178 58.2278 72.9534 56.1519 72.9534 53.2245ZM80.7966 53.2245C80.7966 51.5463 79.7467 50.5345 78.3152 50.5345C76.8838 50.5345 75.8163 51.5463 75.8163 53.2245C75.8163 54.9028 76.9013 55.9181 78.3152 55.9181C79.7292 55.9181 80.7966 54.9063 80.7966 53.2245Z" fill="#282B72"/>
<path d="M95.2411 48.3678V56.4589C95.2411 60.0735 93.2847 61.7343 89.7673 61.7343C87.9194 61.7343 86.1274 61.2842 84.9865 60.398L86.11 58.3744C87.11 59.0971 88.3151 59.4833 89.5503 59.4769C91.5452 59.4769 92.8467 59.5714 92.8467 57.8199V56.515C92.4495 56.9239 91.5357 57.135 91.0045 57.3438C90.4734 57.5526 89.9036 57.6458 89.3333 57.6172C86.6349 57.6172 84.458 55.7541 84.458 52.9175C84.458 50.0809 86.6349 48.2178 89.3333 48.2178C90.6948 48.2178 91.8182 48.6713 92.5602 49.6134V48.3678H95.2411ZM92.4412 52.9036C92.4412 51.4765 91.3702 50.5205 89.8863 50.5205C88.4023 50.5205 87.3139 51.4765 87.3139 52.9036C87.3139 54.3306 88.3988 55.2901 89.8863 55.2901C91.3737 55.2901 92.4517 54.3445 92.4517 52.9175L92.4412 52.9036Z" fill="#282B72"/>
<path d="M97.1626 45.426C97.1626 44.5398 97.8626 43.856 98.9125 43.856C99.9625 43.856 100.662 44.5049 100.662 45.3702C100.662 46.3122 99.9625 46.9961 98.9125 46.9961C97.8626 46.9961 97.1626 46.3262 97.1626 45.426ZM97.5126 48.3533H100.337V58.0703H97.5126V48.3533Z" fill="#282B72"/>
<path d="M109.954 55.0319L111.459 56.6578C110.552 57.687 109.194 58.2313 107.438 58.2313C104.067 58.2313 101.873 56.117 101.873 53.2245C101.873 50.3321 104.085 48.2178 107.084 48.2178C109.838 48.2178 112.106 50.0251 112.124 53.1338L104.911 54.5294C105.327 55.4889 106.234 55.9739 107.501 55.9739C107.952 55.9928 108.403 55.919 108.825 55.7569C109.247 55.5949 109.632 55.3481 109.954 55.0319ZM104.648 52.9384L109.394 52.0173C109.259 51.519 108.957 51.0819 108.538 50.779C108.119 50.476 107.608 50.3257 107.091 50.3531C105.684 50.3531 104.701 51.2916 104.634 52.9384H104.648Z" fill="#282B72"/>
<path d="M112.729 57.1817L113.671 55.1581C114.695 55.7696 115.865 56.0949 117.058 56.1001C118.364 56.1001 118.854 55.7512 118.854 55.2139C118.854 53.6229 112.964 55.2488 112.964 51.376C112.964 49.5338 114.633 48.2358 117.475 48.2358C118.819 48.2358 120.303 48.5429 121.227 49.0872L120.285 51.0899C119.432 50.6089 118.466 50.3598 117.485 50.3676C116.218 50.3676 115.676 50.7654 115.676 51.2713C115.676 52.9321 121.563 51.3271 121.563 55.1546C121.563 56.9619 119.879 58.2459 116.96 58.2459C115.302 58.2319 113.636 57.7784 112.729 57.1817Z" fill="#282B72"/>
</svg>
