<svg width="54" height="62" viewBox="0 0 54 62" fill="none" xmlns="http://www.w3.org/2000/svg">
<path d="M52.4907 43.1001V55.0979L42.2217 60.6147V48.6168L52.4907 43.1001Z" fill="#414A56"/>
<path d="M52.4907 43.1003L42.2218 48.6171L32.031 43.1003L42.2218 37.5923L52.4907 43.1003Z" fill="#57606F"/>
<path d="M50.2752 12.4668H48.0598V14.6561H50.2752V12.4668Z" fill="black"/>
<path d="M48.0685 14.6475H45.8531V16.8368H48.0685V14.6475Z" fill="black"/>
<path d="M48.0685 10.2778H45.8531V12.4672H48.0685V10.2778Z" fill="black"/>
<path d="M45.8532 12.4668H43.6378V14.6561H45.8532V12.4668Z" fill="black"/>
<path d="M42.2218 48.6168V60.6147L32.031 55.0979V43.1001L42.2218 48.6168Z" fill="#414A56"/>
<path d="M37.1742 15.7944V27.6967L26.9834 33.2134V21.3025L37.1742 15.7944Z" fill="#A28671"/>
<path d="M37.1739 15.7946L26.9831 21.3026L16.801 15.7946L26.9831 10.2778L37.1739 15.7946Z" fill="#E6BE94"/>
<path d="M26.9831 21.3025V33.2134L16.801 27.6967V15.7944L26.9831 21.3025Z" fill="#C69A75"/>
<path d="M21.9355 43.1001V55.0979L11.7534 60.6147V48.6168L21.9355 43.1001Z" fill="#60534A"/>
<path d="M21.9357 43.1003L11.7536 48.6171L1.57153 43.1003L11.7536 37.5923L21.9357 43.1003Z" fill="#73665C"/>
<path d="M11.7536 48.6168V60.6147L1.57153 55.0979V43.1001L11.7536 48.6168Z" fill="#60534A"/>
<path d="M11.4932 24.4561H9.27783V26.6454H11.4932V24.4561Z" fill="black"/>
<path d="M9.27752 26.6455H7.06213V28.8348H9.27752V26.6455Z" fill="black"/>
<path d="M9.27752 22.2666H7.06213V24.4559H9.27752V22.2666Z" fill="black"/>
<path d="M7.06225 24.4561H4.84686V26.6454H7.06225V24.4561Z" fill="black"/>
<path d="M26.9834 34.3428C26.7963 34.3236 26.6156 34.2643 26.4534 34.1691L16.2713 28.6523C16.087 28.5675 15.9309 28.4315 15.8216 28.2606C15.7122 28.0896 15.6542 27.8909 15.6545 27.688V15.7857C15.638 15.5797 15.6893 15.3739 15.8007 15.1998C15.9121 15.0257 16.0774 14.8928 16.2713 14.8214L26.4534 9.30464C26.6186 9.21931 26.8018 9.1748 26.9877 9.1748C27.1736 9.1748 27.3569 9.21931 27.522 9.30464L37.7041 14.8214C37.8872 14.9079 38.0421 15.0443 38.1512 15.2148C38.2603 15.3854 38.3191 15.5833 38.3209 15.7857V27.688C38.3389 27.8943 38.2882 28.1007 38.1766 28.2751C38.0651 28.4496 37.8989 28.5822 37.7041 28.6523L27.522 34.1691C27.3574 34.2658 27.1735 34.3251 26.9834 34.3428ZM17.8699 27.0799L26.9834 31.9798L36.1055 27.0799V16.4026L26.9834 11.494L17.8699 16.4026V27.0799Z" fill="black"/>
<path d="M26.9835 22.3535C26.7964 22.3342 26.6157 22.275 26.4536 22.1797L16.2715 16.663C16.0106 16.5229 15.8157 16.2854 15.7295 16.0021C15.6432 15.7189 15.6725 15.413 15.811 15.1513C15.9571 14.899 16.1945 14.7124 16.4741 14.6299C16.7538 14.5475 17.0544 14.5755 17.314 14.7082L27.1051 19.9904L36.8441 14.7343C37.1037 14.6016 37.4044 14.5736 37.684 14.656C37.9637 14.7385 38.201 14.9251 38.3471 15.1774C38.4812 15.434 38.5099 15.7327 38.4272 16.0101C38.3444 16.2875 38.1567 16.5218 37.9041 16.663L27.722 22.1797C27.4819 22.2609 27.2346 22.3191 26.9835 22.3535Z" fill="black"/>
<path d="M26.983 34.3428C26.6817 34.3384 26.3939 34.2173 26.1801 34.0051C25.9662 33.7929 25.843 33.506 25.8362 33.2047V21.3024C25.8613 21.0144 25.9934 20.7462 26.2065 20.5509C26.4196 20.3555 26.6982 20.2471 26.9874 20.2471C27.2765 20.2471 27.5551 20.3555 27.7682 20.5509C27.9813 20.7462 28.1135 21.0144 28.1385 21.3024V33.2047C28.1317 33.5074 28.0073 33.7956 27.7916 34.0081C27.5758 34.2206 27.2858 34.3406 26.983 34.3428Z" fill="black"/>
<path d="M11.7533 61.657C11.566 61.6391 11.385 61.5797 11.2234 61.4832L1.0413 55.9838C0.855988 55.8994 0.698644 55.7638 0.587824 55.5929C0.477004 55.4221 0.417321 55.2231 0.415781 55.0195V43.1172C0.401316 42.9104 0.45452 42.7045 0.567356 42.5305C0.680191 42.3565 0.846537 42.224 1.0413 42.1529L11.2234 36.6362C11.387 36.5509 11.5688 36.5063 11.7533 36.5063C11.9378 36.5063 12.1197 36.5509 12.2833 36.6362L22.5609 42.1529C22.744 42.2394 22.8989 42.3758 23.008 42.5464C23.1171 42.7169 23.176 42.9148 23.1778 43.1172V55.1151C23.1958 55.3213 23.145 55.5278 23.0335 55.7022C22.9219 55.8766 22.7557 56.0092 22.5609 56.0794L12.3788 61.5962C12.1095 61.5701 11.9358 61.657 11.7533 61.657ZM2.63115 54.394L11.7533 59.2939L20.8755 54.394V43.708L11.7533 38.8081L2.63115 43.708V54.394Z" fill="black"/>
<path d="M11.7538 49.6683C11.5664 49.6504 11.3854 49.5911 11.2238 49.4946L1.04174 43.9778C0.788433 43.8349 0.600605 43.5991 0.517926 43.3203C0.435247 43.0414 0.464185 42.7414 0.598658 42.4835C0.746168 42.2327 0.984149 42.0479 1.26368 41.9671C1.54322 41.8863 1.84309 41.9157 2.10165 42.0491L11.8407 47.2965L21.5883 42.0839C21.8473 41.9526 22.1465 41.9244 22.4254 42.005C22.7044 42.0856 22.9424 42.269 23.0913 42.5183C23.2258 42.7761 23.2548 43.0762 23.1721 43.355C23.0894 43.6339 22.9016 43.8697 22.6483 44.0126L12.4662 49.5293C12.2456 49.6391 11.9994 49.6872 11.7538 49.6683Z" fill="black"/>
<path d="M11.7536 61.6573C11.4523 61.6529 11.1645 61.5318 10.9506 61.3195C10.7368 61.1073 10.6135 60.8204 10.6068 60.5191V48.6169C10.6319 48.3289 10.764 48.0607 10.9771 47.8653C11.1902 47.6699 11.4688 47.5615 11.7579 47.5615C12.047 47.5615 12.3257 47.6699 12.5388 47.8653C12.7519 48.0607 12.884 48.3289 12.9091 48.6169V60.6061C12.8689 60.8884 12.7316 61.1478 12.5206 61.3397C12.3097 61.5316 12.0384 61.644 11.7536 61.6573Z" fill="black"/>
<path d="M42.2216 61.657C42.034 61.6403 41.8527 61.5808 41.6916 61.4832L31.5008 55.9838C31.3178 55.8973 31.1628 55.7609 31.0537 55.5904C30.9446 55.4198 30.8858 55.222 30.884 55.0195V43.1172C30.8675 42.9112 30.9188 42.7054 31.0302 42.5313C31.1416 42.3572 31.3069 42.2243 31.5008 42.1529L41.6916 36.6362C41.8553 36.5509 42.037 36.5063 42.2216 36.5063C42.4061 36.5063 42.5879 36.5509 42.7515 36.6362L52.9336 42.1529C53.1167 42.2394 53.2716 42.3758 53.3807 42.5464C53.4898 42.7169 53.5486 42.9148 53.5504 43.1172V55.1151C53.5684 55.3213 53.5177 55.5278 53.4061 55.7022C53.2945 55.8766 53.1284 56.0092 52.9336 56.0794L42.7428 61.5701C42.5691 61.5701 42.3953 61.657 42.2216 61.657ZM33.0994 54.394L42.2216 59.2939L51.3437 54.394V43.708L42.2216 38.8081L33.0994 43.708V54.394Z" fill="black"/>
<path d="M42.2215 49.6682C42.0339 49.6515 41.8527 49.592 41.6916 49.4944L31.5008 43.9776C31.2491 43.8332 31.0627 43.5974 30.9802 43.3192C30.8977 43.0409 30.9255 42.7417 31.0577 42.4833C31.2083 42.2335 31.4479 42.0498 31.7283 41.9693C32.0087 41.8887 32.3091 41.9172 32.5694 42.049L42.3084 47.2964L52.0474 42.0837C52.306 41.9503 52.6058 41.9209 52.8854 42.0017C53.1649 42.0825 53.4029 42.2673 53.5504 42.5181C53.6871 42.7756 53.7173 43.0764 53.6344 43.3559C53.5516 43.6353 53.3623 43.8711 53.1073 44.0124L42.9252 49.5292C42.7074 49.6378 42.4643 49.6859 42.2215 49.6682Z" fill="black"/>
<path d="M42.2217 61.6573C41.9189 61.6551 41.6289 61.535 41.4132 61.3225C41.1974 61.1101 41.073 60.8219 41.0662 60.5191V48.6169C41.0913 48.3289 41.2234 48.0607 41.4365 47.8653C41.6496 47.6699 41.9282 47.5615 42.2173 47.5615C42.5065 47.5615 42.7851 47.6699 42.9982 47.8653C43.2113 48.0607 43.3434 48.3289 43.3685 48.6169V60.6061C43.3302 60.8876 43.1946 61.147 42.9851 61.339C42.7756 61.531 42.5055 61.6436 42.2217 61.6573Z" fill="black"/>
<path d="M26.9834 41.9618C26.7684 41.9447 26.5589 41.8857 26.3666 41.788L10.8676 31.9795C10.6297 31.8243 10.4602 31.5838 10.394 31.3076C10.3278 31.0313 10.3697 30.7402 10.5114 30.4939C10.6727 30.2556 10.9184 30.0872 11.1989 30.0228C11.4793 29.9583 11.7738 30.0025 12.0231 30.1464L26.9834 39.5987L41.8743 30.1464C41.9932 30.0624 42.1286 30.0045 42.2715 29.9764C42.4145 29.9483 42.5617 29.9508 42.7036 29.9836C42.8455 30.0164 42.9789 30.0788 43.095 30.1668C43.2111 30.2547 43.3073 30.3662 43.3773 30.4939C43.4621 30.6116 43.5205 30.7461 43.5486 30.8884C43.5767 31.0307 43.5737 31.1774 43.5399 31.3184C43.5061 31.4595 43.4422 31.5916 43.3527 31.7057C43.2631 31.8197 43.15 31.9132 43.0211 31.9795L27.6176 41.788C27.4192 41.8858 27.2039 41.9448 26.9834 41.9618Z" fill="black"/>
<path d="M26.983 61.6573C26.6817 61.6529 26.3939 61.5318 26.1801 61.3195C25.9662 61.1073 25.843 60.8204 25.8362 60.5191V40.9108C25.8613 40.6228 25.9934 40.3546 26.2065 40.1593C26.4196 39.9639 26.6982 39.8555 26.9874 39.8555C27.2765 39.8555 27.5551 39.9639 27.7682 40.1593C27.9813 40.3546 28.1135 40.6228 28.1385 40.9108V60.6061C28.1144 60.8949 27.9818 61.1638 27.7674 61.3588C27.5531 61.5538 27.2728 61.6605 26.983 61.6573Z" fill="black"/>
<path d="M27.0961 21.0071C33.1418 21.0071 38.0427 16.3045 38.0427 10.5035C38.0427 4.70259 33.1418 0 27.0961 0C21.0505 0 16.1495 4.70259 16.1495 10.5035C16.1495 16.3045 21.0505 21.0071 27.0961 21.0071Z" fill="black"/>
<path d="M11.3453 48.1477C17.3909 48.1477 22.2919 43.4451 22.2919 37.6442C22.2919 31.8432 17.3909 27.1406 11.3453 27.1406C5.29964 27.1406 0.398682 31.8432 0.398682 37.6442C0.398682 43.4451 5.29964 48.1477 11.3453 48.1477Z" fill="black"/>
<path d="M41.9782 48.1477C48.0238 48.1477 52.9248 43.4451 52.9248 37.6442C52.9248 31.8432 48.0238 27.1406 41.9782 27.1406C35.9325 27.1406 31.0316 31.8432 31.0316 37.6442C31.0316 43.4451 35.9325 48.1477 41.9782 48.1477Z" fill="black"/>
</svg>
