<svg width="55" height="54" viewBox="0 0 55 54" fill="none" xmlns="http://www.w3.org/2000/svg">
<path d="M52.9737 36.7603V43.3195H31.8971H23.0356H2.0459V36.7603H52.9737Z" fill="#57606F"/>
<path d="M52.965 1.73975H2.0459V36.7602H52.965V1.73975Z" fill="#ECF0F1"/>
<path d="M49.6028 29.0542H47.3874V31.2435H49.6028V29.0542Z" fill="black"/>
<path d="M49.6028 20.2969H47.3874V22.4862H49.6028V20.2969Z" fill="black"/>
<path d="M45.1808 29.0542H42.9655V31.2435H45.1808V29.0542Z" fill="black"/>
<path d="M45.1808 20.2969H42.9655V22.4862H45.1808V20.2969Z" fill="black"/>
<path d="M42.9653 24.6758H40.7499V26.8651H42.9653V24.6758Z" fill="black"/>
<path d="M40.75 29.0542H38.5346V31.2435H40.75V29.0542Z" fill="black"/>
<path d="M40.75 20.2969H38.5346V22.4862H40.75V20.2969Z" fill="black"/>
<path d="M38.5348 24.6758H36.3194V26.8651H38.5348V24.6758Z" fill="black"/>
<path d="M36.3192 29.0542H34.1038V31.2435H36.3192V29.0542Z" fill="black"/>
<path d="M36.3192 20.2969H34.1038V22.4862H36.3192V20.2969Z" fill="black"/>
<path d="M34.1124 24.6758H31.897V26.8651H34.1124V24.6758Z" fill="black"/>
<path d="M31.8971 29.0542H29.6818V31.2435H31.8971V29.0542Z" fill="black"/>
<path d="M31.8971 20.2969H29.6818V22.4862H31.8971V20.2969Z" fill="black"/>
<path d="M29.682 24.6758H27.4666V26.8651H29.682V24.6758Z" fill="black"/>
<path d="M25.251 24.6758H23.0356V26.8651H25.251V24.6758Z" fill="black"/>
<path d="M52.9739 44.3706H2.05482C1.7527 44.3663 1.46392 44.2455 1.24866 44.0335C1.0334 43.8214 0.908274 43.5345 0.899353 43.2325V1.73096C0.908341 1.42977 1.03376 1.14379 1.24925 0.933161C1.46473 0.722533 1.75349 0.603677 2.05482 0.601562H52.9739C53.2744 0.603746 53.5622 0.722893 53.7763 0.933744C53.9904 1.14459 54.1139 1.43055 54.1207 1.73096V43.3194C54.0667 43.594 53.9263 43.8442 53.7199 44.0333C53.5136 44.2225 53.2522 44.3407 52.9739 44.3706ZM3.14079 42.1813H51.7924V2.7822H3.14079V42.1813Z" fill="black"/>
<path d="M52.9739 37.8031H2.05478C1.75294 37.8031 1.46347 37.6831 1.25004 37.4697C1.0366 37.2563 0.916687 36.9668 0.916687 36.665C0.916687 36.3631 1.0366 36.0736 1.25004 35.8602C1.46347 35.6467 1.75294 35.5269 2.05478 35.5269H52.9739C53.2751 35.5313 53.563 35.6523 53.7768 35.8646C53.9907 36.0768 54.1139 36.3637 54.1207 36.665C54.1001 36.9615 53.9725 37.2405 53.7615 37.4498C53.5505 37.6592 53.2706 37.7848 52.9739 37.8031Z" fill="black"/>
<path d="M36.3194 53.1278H18.6137C18.3119 53.1278 18.0224 53.0078 17.809 52.7944C17.5956 52.5809 17.4756 52.2915 17.4756 51.9897C17.4756 51.6878 17.5956 51.3983 17.809 51.1849C18.0224 50.9714 18.3119 50.8516 18.6137 50.8516H36.3194C36.6213 50.8516 36.9108 50.9714 37.1242 51.1849C37.3376 51.3983 37.4575 51.6878 37.4575 51.9897C37.4575 52.2915 37.3376 52.5809 37.1242 52.7944C36.9108 53.0078 36.6213 53.1278 36.3194 53.1278Z" fill="black"/>
<path d="M23.0355 53.1279C22.7342 53.1235 22.4464 53.0024 22.2325 52.7902C22.0187 52.578 21.8954 52.2911 21.8887 51.9898V43.2238C21.9137 42.9358 22.0458 42.6676 22.259 42.4722C22.4721 42.2769 22.7507 42.1685 23.0398 42.1685C23.3289 42.1685 23.6076 42.2769 23.8207 42.4722C24.0338 42.6676 24.1659 42.9358 24.191 43.2238V51.9811C24.1842 52.2847 24.0601 52.5738 23.8446 52.7877C23.6291 53.0015 23.339 53.1235 23.0355 53.1279Z" fill="black"/>
<path d="M31.8969 53.1279C31.5948 53.1236 31.3061 53.0028 31.0908 52.7908C30.8755 52.5788 30.7504 52.2918 30.7415 51.9898V43.2238C30.7665 42.9358 30.8986 42.6676 31.1117 42.4722C31.3248 42.2769 31.6035 42.1685 31.8926 42.1685C32.1817 42.1685 32.4603 42.2769 32.6735 42.4722C32.8866 42.6676 33.0187 42.9358 33.0437 43.2238V51.9811C33.0393 52.2839 32.917 52.573 32.7029 52.7871C32.4888 53.0012 32.1997 53.1234 31.8969 53.1279Z" fill="black"/>
<path d="M48.543 7.16096H6.47672C6.17488 7.16096 5.88541 7.04107 5.67197 6.82764C5.45854 6.6142 5.33862 6.32471 5.33862 6.02286C5.33862 5.72102 5.45854 5.43155 5.67197 5.21811C5.88541 5.00468 6.17488 4.88477 6.47672 4.88477H48.543C48.8451 4.88911 49.1339 5.00988 49.3491 5.22191C49.5644 5.43393 49.6895 5.72085 49.6984 6.02286C49.6613 6.31464 49.5272 6.58547 49.3177 6.79187C49.1081 6.99827 48.8353 7.12825 48.543 7.16096Z" fill="black"/>
<path d="M38.0047 11.5399H6.47672C6.17488 11.5399 5.88541 11.42 5.67197 11.2065C5.45854 10.9931 5.33862 10.7036 5.33862 10.4018C5.33862 10.0999 5.45854 9.81046 5.67197 9.59702C5.88541 9.38358 6.17488 9.26367 6.47672 9.26367H38.0047C38.3068 9.26802 38.5956 9.38879 38.8108 9.60081C39.0261 9.81284 39.1512 10.0998 39.1602 10.4018C39.1358 10.6984 39.0058 10.9765 38.7937 11.1854C38.5817 11.3943 38.3017 11.52 38.0047 11.5399Z" fill="black"/>
<path d="M6.47644 33.4241C6.17517 33.4196 5.88734 33.2986 5.67347 33.0863C5.45961 32.8741 5.33636 32.5872 5.32965 32.286V24.5886C5.3547 24.3005 5.48682 24.0324 5.69993 23.837C5.91304 23.6416 6.19167 23.5332 6.48079 23.5332C6.76992 23.5332 7.04854 23.6416 7.26165 23.837C7.47477 24.0324 7.60689 24.3005 7.63193 24.5886V32.286C7.5948 32.5777 7.46068 32.8486 7.25113 33.055C7.04158 33.2614 6.76875 33.3914 6.47644 33.4241Z" fill="black"/>
<path d="M10.9076 33.4244C10.6055 33.42 10.3167 33.2993 10.1014 33.0872C9.88615 32.8752 9.761 32.5883 9.75208 32.2863V21.4353C9.77712 21.1472 9.90924 20.879 10.1224 20.6836C10.3355 20.4883 10.6141 20.3799 10.9032 20.3799C11.1923 20.3799 11.471 20.4883 11.6841 20.6836C11.8972 20.879 12.0293 21.1472 12.0544 21.4353V32.3732C12.003 32.649 11.8633 32.9007 11.6565 33.0903C11.4496 33.2799 11.1868 33.3971 10.9076 33.4244Z" fill="black"/>
<path d="M15.3035 33.4242C15.0007 33.422 14.7107 33.3019 14.495 33.0895C14.2793 32.877 14.1548 32.5888 14.1481 32.2861V18.1076C14.1731 17.8196 14.3052 17.5514 14.5183 17.356C14.7314 17.1606 15.0101 17.0522 15.2992 17.0522C15.5883 17.0522 15.8669 17.1606 16.08 17.356C16.2932 17.5514 16.4253 17.8196 16.4503 18.1076V32.373C16.3989 32.6488 16.2593 32.9005 16.0524 33.0901C15.8456 33.2797 15.5828 33.3969 15.3035 33.4242Z" fill="black"/>
<path d="M19.7601 33.424C19.4589 33.4195 19.171 33.2985 18.9572 33.0862C18.7433 32.874 18.6201 32.5871 18.6133 32.2859V14.78C18.6384 14.492 18.7705 14.2238 18.9836 14.0284C19.1967 13.833 19.4754 13.7246 19.7645 13.7246C20.0536 13.7246 20.3322 13.833 20.5453 14.0284C20.7584 14.2238 20.8906 14.492 20.9156 14.78V32.2859C20.8785 32.5776 20.7444 32.8485 20.5348 33.0549C20.3253 33.2613 20.0524 33.3913 19.7601 33.424Z" fill="black"/>
</svg>
