<svg width="30" height="31" viewBox="0 0 30 31" fill="none" xmlns="http://www.w3.org/2000/svg">
<g clip-path="url(#clip0_551_8402)">
<path d="M8.20967 26.3162C8.68563 26.3162 9.07285 25.929 9.07285 25.453C9.07285 24.9771 8.68563 24.5898 8.20967 24.5898C7.73372 24.5898 7.3465 24.9771 7.3465 25.453C7.3465 25.929 7.73372 26.3162 8.20967 26.3162Z" fill="#EEEEEE"/>
<path d="M21.7421 14.0541C21.3729 14.0541 21.0445 13.8191 20.9252 13.4696L19.9344 10.566L18.7823 13.5058C18.6527 13.8365 18.3338 14.0541 17.9786 14.0541H15.4686L14.393 17.6053C14.2864 17.9572 13.9686 18.203 13.6011 18.2176C13.5896 18.2181 13.5781 18.2183 13.5667 18.2183C13.2128 18.2183 12.8932 18.0017 12.7632 17.6701L9.97919 10.5659L8.98833 13.4696C8.86903 13.8191 8.54068 14.0541 8.17142 14.0541H4.87207V19.3815H25.1279V14.0541H21.7421Z" fill="#EEEEEE"/>
<path d="M7.55396 12.3277L9.10635 7.77854C9.22334 7.43575 9.54191 7.2024 9.90398 7.19435C10.2655 7.18543 10.5948 7.40514 10.7269 7.74235L13.4624 14.7226L14.0021 12.9407C14.1124 12.5767 14.4479 12.3277 14.8282 12.3277H17.3898L19.1867 7.74235C19.3189 7.40514 19.6457 7.18675 20.0097 7.19435C20.3718 7.2024 20.6903 7.43575 20.8073 7.77854L22.3597 12.3277H25.1279V5.45557H4.87207V12.3277H7.55396Z" fill="#EEEEEE"/>
<path d="M3.14575 19.3816V4.59248C3.14575 4.11578 3.53222 3.7293 4.00892 3.7293H25.9911C26.4678 3.7293 26.8543 4.11578 26.8543 4.59248V19.3816H29.7316V4.18109C29.7316 2.34546 28.2381 0.852051 26.4025 0.852051H3.59753C1.7619 0.852051 0.268494 2.34546 0.268494 4.18109V19.3816H3.14575Z" fill="#EEEEEE"/>
<path d="M25.9911 21.1084H4.00886H0.268433V26.9866C0.268433 28.8222 1.76184 30.3156 3.59747 30.3156H26.4025C28.2381 30.3156 29.7315 28.8222 29.7315 26.9866V21.1084H25.9911ZM21.9629 24.3021C21.9629 23.8254 22.3494 23.439 22.8261 23.439C23.3028 23.439 23.6893 23.8254 23.6893 24.3021V26.604C23.6893 27.0807 23.3028 27.4671 22.8261 27.4671C22.3494 27.4671 21.9629 27.0807 21.9629 26.604V24.3021ZM17.7046 24.3021C17.7046 23.8254 18.0911 23.439 18.5678 23.439C19.0445 23.439 19.4309 23.8254 19.4309 24.3021V26.604C19.4309 27.0807 19.0445 27.4671 18.5678 27.4671C18.0911 27.4671 17.7046 27.0807 17.7046 26.604V24.3021ZM13.4462 24.3021C13.4462 23.8254 13.8327 23.439 14.3094 23.439C14.7861 23.439 15.1726 23.8254 15.1726 24.3021V26.604C15.1726 27.0807 14.7861 27.4671 14.3094 27.4671C13.8327 27.4671 13.4462 27.0807 13.4462 26.604V24.3021ZM8.20965 22.8635C9.63751 22.8635 10.7992 24.0252 10.7992 25.453C10.7992 26.8809 9.63751 28.0426 8.20965 28.0426C6.78178 28.0426 5.62012 26.8809 5.62012 25.453C5.62012 24.0252 6.78178 22.8635 8.20965 22.8635Z" fill="#EEEEEE"/>
</g>
<defs>
<clipPath id="clip0_551_8402">
<rect width="29.4631" height="29.4631" fill="white" transform="translate(0.268494 0.852051)"/>
</clipPath>
</defs>
</svg>
