<svg width="33" height="34" viewBox="0 0 33 34" fill="none" xmlns="http://www.w3.org/2000/svg">
<path d="M2.1711 12.3176C1.68478 13.7839 1.42151 15.352 1.42151 16.9815C1.42151 22.5729 4.52114 27.4404 9.09584 29.9593L14.4547 17.6769L2.1711 12.3176Z" fill="white"/>
<path d="M3.2487 9.85084L14.8806 14.9259V2.23682C9.86067 2.68919 5.56325 5.64731 3.2487 9.85084Z" fill="white"/>
<path d="M16.2265 31.7865C14.597 31.7865 13.0289 31.5233 11.5626 31.0369L17.4487 17.5461C17.49 17.4568 17.5218 17.3622 17.5429 17.2635C17.5652 17.1597 17.5748 17.055 17.5725 16.9515V2.23682C25.1183 2.91681 31.0316 9.25859 31.0316 16.9815C31.0316 25.1581 24.4031 31.7865 16.2265 31.7865Z" fill="white"/>
</svg>
