<svg width="38" height="37" viewBox="0 0 38 37" fill="none" xmlns="http://www.w3.org/2000/svg">
<path d="M7.75195 18.2464V5.86262C7.75195 5.56404 7.87056 5.27768 8.08169 5.06656C8.29282 4.85543 8.57917 4.73682 8.87775 4.73682H22.3874L30.268 12.6174V18.2464" stroke="white" stroke-width="1.67561" stroke-linecap="round" stroke-linejoin="round"/>
<path d="M22.3867 4.73682V12.6174H30.2673" stroke="white" stroke-width="1.67561" stroke-linecap="round" stroke-linejoin="round"/>
<path d="M24.6387 28.3792H26.8903C27.4874 28.3792 28.0601 28.142 28.4824 27.7197C28.9047 27.2974 29.1419 26.7247 29.1419 26.1276C29.1419 25.5304 28.9047 24.9577 28.4824 24.5355C28.0601 24.1132 27.4874 23.876 26.8903 23.876H24.6387V30.6308" stroke="white" stroke-width="1.67561" stroke-linecap="round" stroke-linejoin="round"/>
<path d="M19.0098 23.876V30.6308" stroke="white" stroke-width="1.67561" stroke-linecap="round" stroke-linejoin="round"/>
<path d="M8.87793 23.876H13.3811L8.87793 30.6308H13.3811" stroke="white" stroke-width="1.67561" stroke-linecap="round" stroke-linejoin="round"/>
</svg>
