<svg width="22" height="22" viewBox="0 0 22 22" fill="none" xmlns="http://www.w3.org/2000/svg">
<path d="M12.1069 10.5112V6.07479C12.1069 5.83947 12.0134 5.61378 11.847 5.44738C11.6806 5.28098 11.4549 5.1875 11.2196 5.1875C10.9843 5.1875 10.7586 5.28098 10.5922 5.44738C10.4258 5.61378 10.3323 5.83947 10.3323 6.07479V10.5112H5.89584C5.66051 10.5112 5.43483 10.6047 5.26843 10.7711C5.10203 10.9375 5.00854 11.1632 5.00854 11.3985C5.00854 11.6339 5.10203 11.8595 5.26843 12.0259C5.43483 12.1923 5.66051 12.2858 5.89584 12.2858H10.3323V16.7223C10.3323 16.9576 10.4258 17.1833 10.5922 17.3497C10.7586 17.5161 10.9843 17.6096 11.2196 17.6096C11.4549 17.6096 11.6806 17.5161 11.847 17.3497C12.0134 17.1833 12.1069 16.9576 12.1069 16.7223V12.2858H16.5433C16.7786 12.2858 17.0043 12.1923 17.1707 12.0259C17.3371 11.8595 17.4306 11.6339 17.4306 11.3985C17.4306 11.1632 17.3371 10.9375 17.1707 10.7711C17.0043 10.6047 16.7786 10.5112 16.5433 10.5112H12.1069Z" fill="white"/>
</svg>
