<svg width="49" height="49" viewBox="0 0 49 49" fill="none" xmlns="http://www.w3.org/2000/svg">
<rect width="48.4528" height="48.4528" rx="24.2264" fill="#2851A3"/>
<path d="M24 8C15.2 8 8 15.2 8 24C8 32.8 15.2 40 24 40C32.8 40 40 32.8 40 24C40 15.2 32.8 8 24 8ZM24 12C30.64 12 36 17.36 36 24C36 30.64 30.64 36 24 36C17.36 36 12 30.64 12 24C12 17.36 17.36 12 24 12ZM24 16C19.6 16 16 19.6 16 24C16 28.4 19.6 32 24 32C28.4 32 32 28.4 32 24C32 19.6 28.4 16 24 16ZM24 20C26.24 20 28 21.76 28 24C28 26.24 26.24 28 24 28C21.76 28 20 26.24 20 24C20 21.76 21.76 20 24 20Z" fill="#EEEEEE"/>
</svg>
