<svg width="22" height="22" viewBox="0 0 22 22" fill="none" xmlns="http://www.w3.org/2000/svg">
<path d="M14.4397 9.85127L10.9349 6.34648C10.7733 6.17913 10.6839 5.955 10.6859 5.72235C10.6879 5.48971 10.7812 5.26717 10.9457 5.10265C11.1103 4.93814 11.3328 4.84483 11.5654 4.84281C11.7981 4.84079 12.0222 4.93022 12.1896 5.09185L17.209 10.1113C17.2917 10.1935 17.3573 10.2912 17.402 10.3989C17.4468 10.5065 17.4699 10.622 17.4699 10.7386C17.4699 10.8552 17.4468 10.9706 17.402 11.0783C17.3573 11.1859 17.2917 11.2837 17.209 11.3659L12.1896 16.3853C12.1077 16.47 12.0098 16.5376 11.9016 16.5841C11.7933 16.6306 11.6769 16.6551 11.5591 16.6561C11.4412 16.6572 11.3244 16.6347 11.2154 16.5901C11.1063 16.5455 11.0072 16.4796 10.9239 16.3963C10.8406 16.313 10.7747 16.2139 10.7301 16.1049C10.6855 15.9958 10.6631 15.879 10.6641 15.7612C10.6651 15.6433 10.6896 15.5269 10.7361 15.4187C10.7826 15.3104 10.8502 15.2125 10.9349 15.1307L14.4397 11.6259H5.93417C5.69884 11.6259 5.47316 11.5324 5.30676 11.366C5.14036 11.1996 5.04688 10.9739 5.04688 10.7386C5.04688 10.5032 5.14036 10.2776 5.30676 10.1112C5.47316 9.94476 5.69884 9.85127 5.93417 9.85127H14.4397V9.85127Z" fill="white"/>
</svg>
