<svg width="14" height="14" viewBox="0 0 14 14" fill="none" xmlns="http://www.w3.org/2000/svg">
<path d="M11.5813 3.69565C11.5813 4.22086 11.1555 4.64662 10.6303 4.64662C10.1051 4.64662 9.67934 4.22086 9.67934 3.69565C9.67934 3.17045 10.1051 2.74469 10.6303 2.74469C11.1555 2.74469 11.5813 3.17045 11.5813 3.69565Z" fill="white"/>
<path fill-rule="evenodd" clip-rule="evenodd" d="M7.14345 10.3524C8.89412 10.3524 10.3133 8.93318 10.3133 7.18251C10.3133 5.43184 8.89412 4.01264 7.14345 4.01264C5.39278 4.01264 3.97358 5.43184 3.97358 7.18251C3.97358 8.93318 5.39278 10.3524 7.14345 10.3524ZM7.14345 9.08443C8.19385 9.08443 9.04537 8.23291 9.04537 7.18251C9.04537 6.13211 8.19385 5.28059 7.14345 5.28059C6.09304 5.28059 5.24153 6.13211 5.24153 7.18251C5.24153 8.23291 6.09304 9.08443 7.14345 9.08443Z" fill="white"/>
<path fill-rule="evenodd" clip-rule="evenodd" d="M0.803711 6.92892C0.803711 4.79857 0.803711 3.73339 1.2183 2.91971C1.58299 2.20397 2.16491 1.62205 2.88064 1.25737C3.69433 0.842773 4.75951 0.842773 6.88986 0.842773H7.39704C9.52739 0.842773 10.5926 0.842773 11.4062 1.25737C12.122 1.62205 12.7039 2.20397 13.0686 2.91971C13.4832 3.73339 13.4832 4.79857 13.4832 6.92892V7.4361C13.4832 9.56645 13.4832 10.6316 13.0686 11.4453C12.7039 12.161 12.122 12.743 11.4062 13.1077C10.5926 13.5222 9.52739 13.5222 7.39704 13.5222H6.88986C4.75951 13.5222 3.69433 13.5222 2.88064 13.1077C2.16491 12.743 1.58299 12.161 1.2183 11.4453C0.803711 10.6316 0.803711 9.56645 0.803711 7.4361V6.92892ZM6.88986 2.11072H7.39704C8.48313 2.11072 9.22145 2.11171 9.79214 2.15833C10.348 2.20375 10.6323 2.28607 10.8306 2.38712C11.3078 2.63024 11.6957 3.01818 11.9388 3.49534C12.0399 3.69365 12.1222 3.97793 12.1676 4.53382C12.2143 5.10451 12.2152 5.84282 12.2152 6.92892V7.4361C12.2152 8.5222 12.2143 9.26051 12.1676 9.8312C12.1222 10.3871 12.0399 10.6714 11.9388 10.8697C11.6957 11.3468 11.3078 11.7348 10.8306 11.9779C10.6323 12.0789 10.348 12.1613 9.79214 12.2067C9.22145 12.2533 8.48313 12.2543 7.39704 12.2543H6.88986C5.80376 12.2543 5.06544 12.2533 4.49475 12.2067C3.93887 12.1613 3.65459 12.0789 3.45628 11.9779C2.97912 11.7348 2.59118 11.3468 2.34805 10.8697C2.24701 10.6714 2.16469 10.3871 2.11927 9.8312C2.07264 9.26051 2.07166 8.5222 2.07166 7.4361V6.92892C2.07166 5.84282 2.07264 5.10451 2.11927 4.53382C2.16469 3.97793 2.24701 3.69365 2.34805 3.49534C2.59118 3.01818 2.97912 2.63024 3.45628 2.38712C3.65459 2.28607 3.93887 2.20375 4.49475 2.15833C5.06544 2.11171 5.80376 2.11072 6.88986 2.11072Z" fill="white"/>
</svg>
