<svg width="14" height="14" viewBox="0 0 14 14" fill="none" xmlns="http://www.w3.org/2000/svg">
<path d="M11.5813 3.26694C11.5813 3.79214 11.1555 4.2179 10.6303 4.2179C10.1051 4.2179 9.67934 3.79214 9.67934 3.26694C9.67934 2.74174 10.1051 2.31598 10.6303 2.31598C11.1555 2.31598 11.5813 2.74174 11.5813 3.26694Z" fill="white"/>
<path fill-rule="evenodd" clip-rule="evenodd" d="M7.14345 9.92367C8.89412 9.92367 10.3133 8.50447 10.3133 6.7538C10.3133 5.00313 8.89412 3.58393 7.14345 3.58393C5.39278 3.58393 3.97358 5.00313 3.97358 6.7538C3.97358 8.50447 5.39278 9.92367 7.14345 9.92367ZM7.14345 8.65572C8.19385 8.65572 9.04537 7.8042 9.04537 6.7538C9.04537 5.7034 8.19385 4.85188 7.14345 4.85188C6.09304 4.85188 5.24153 5.7034 5.24153 6.7538C5.24153 7.8042 6.09304 8.65572 7.14345 8.65572Z" fill="white"/>
<path fill-rule="evenodd" clip-rule="evenodd" d="M0.803711 6.50021C0.803711 4.36986 0.803711 3.30468 1.2183 2.491C1.58299 1.77526 2.16491 1.19334 2.88064 0.828656C3.69433 0.414062 4.75951 0.414062 6.88986 0.414062H7.39704C9.52739 0.414062 10.5926 0.414062 11.4062 0.828656C12.122 1.19334 12.7039 1.77526 13.0686 2.491C13.4832 3.30468 13.4832 4.36986 13.4832 6.50021V7.00739C13.4832 9.13774 13.4832 10.2029 13.0686 11.0166C12.7039 11.7323 12.122 12.3143 11.4062 12.6789C10.5926 13.0935 9.52739 13.0935 7.39704 13.0935H6.88986C4.75951 13.0935 3.69433 13.0935 2.88064 12.6789C2.16491 12.3143 1.58299 11.7323 1.2183 11.0166C0.803711 10.2029 0.803711 9.13774 0.803711 7.00739V6.50021ZM6.88986 1.68201H7.39704C8.48313 1.68201 9.22145 1.683 9.79214 1.72962C10.348 1.77504 10.6323 1.85736 10.8306 1.95841C11.3078 2.20153 11.6957 2.58947 11.9388 3.06663C12.0399 3.26494 12.1222 3.54922 12.1676 4.1051C12.2143 4.67579 12.2152 5.41411 12.2152 6.50021V7.00739C12.2152 8.09349 12.2143 8.8318 12.1676 9.40249C12.1222 9.95838 12.0399 10.2427 11.9388 10.441C11.6957 10.9181 11.3078 11.3061 10.8306 11.5492C10.6323 11.6502 10.348 11.7326 9.79214 11.778C9.22145 11.8246 8.48313 11.8256 7.39704 11.8256H6.88986C5.80376 11.8256 5.06544 11.8246 4.49475 11.778C3.93887 11.7326 3.65459 11.6502 3.45628 11.5492C2.97912 11.3061 2.59118 10.9181 2.34805 10.441C2.24701 10.2427 2.16469 9.95838 2.11927 9.40249C2.07264 8.8318 2.07166 8.09349 2.07166 7.00739V6.50021C2.07166 5.41411 2.07264 4.67579 2.11927 4.1051C2.16469 3.54922 2.24701 3.26494 2.34805 3.06663C2.59118 2.58947 2.97912 2.20153 3.45628 1.95841C3.65459 1.85736 3.93887 1.77504 4.49475 1.72962C5.06544 1.683 5.80376 1.68201 6.88986 1.68201Z" fill="white"/>
</svg>
