<svg width="10" height="10" viewBox="0 0 10 10" fill="none" xmlns="http://www.w3.org/2000/svg">
<path d="M2.58631 1.25588C2.58631 1.84836 2.07276 2.32866 1.43927 2.32866C0.805781 2.32866 0.292236 1.84836 0.292236 1.25588C0.292236 0.663404 0.805781 0.183105 1.43927 0.183105C2.07276 0.183105 2.58631 0.663404 2.58631 1.25588Z" fill="white"/>
<path d="M0.449096 3.1172H2.40984V9.05874H0.449096V3.1172Z" fill="white"/>
<path d="M5.56664 3.1172H3.60589V9.05874H5.56664C5.56664 9.05874 5.56664 7.18825 5.56664 6.01874C5.56664 5.31678 5.80632 4.61175 6.76269 4.61175C7.84351 4.61175 7.837 5.53038 7.83196 6.24205C7.82537 7.17231 7.8411 8.12163 7.8411 9.05874H9.80184V5.92292C9.78523 3.92062 9.26348 2.998 7.54699 2.998C6.52762 2.998 5.89575 3.46079 5.56664 3.87948V3.1172Z" fill="white"/>
</svg>
