<svg width="11" height="10" viewBox="0 0 11 10" fill="none" xmlns="http://www.w3.org/2000/svg">
<path d="M3.29196 1.75539C3.29196 2.34787 2.77842 2.82817 2.14493 2.82817C1.51144 2.82817 0.997894 2.34787 0.997894 1.75539C0.997894 1.16292 1.51144 0.682617 2.14493 0.682617C2.77842 0.682617 3.29196 1.16292 3.29196 1.75539Z" fill="white"/>
<path d="M1.15475 3.61671H3.1155V9.55825H1.15475V3.61671Z" fill="white"/>
<path d="M6.27229 3.61671H4.31155V9.55825H6.27229C6.27229 9.55825 6.27229 7.68776 6.27229 6.51825C6.27229 5.81629 6.51198 5.11126 7.46835 5.11126C8.54916 5.11126 8.54266 6.02989 8.53762 6.74156C8.53103 7.67182 8.54676 8.62114 8.54676 9.55825H10.5075V6.42244C10.4909 4.42013 9.96914 3.49751 8.25264 3.49751C7.23328 3.49751 6.6014 3.9603 6.27229 4.379V3.61671Z" fill="white"/>
</svg>
