<svg width="37" height="36" viewBox="0 0 37 36" fill="none" xmlns="http://www.w3.org/2000/svg">
<path d="M1.44238 36H13.6479C19.4355 36 24.1273 31.3082 24.1273 25.5205H11.9218C6.13419 25.5205 1.44238 30.2123 1.44238 36Z" fill="#F22BB2"/>
<path d="M1.98828 10.4795V25.8904C7.77592 25.8904 12.4677 21.1986 12.4677 15.411V0C6.68009 0 1.98828 4.69181 1.98828 10.4795Z" fill="#8C30F5"/>
<path d="M35.9628 0H23.7573C17.9696 0 13.2778 4.69181 13.2778 10.4795H25.4833C31.271 10.4795 35.9628 5.78764 35.9628 0Z" fill="#FE9A22"/>
<path d="M35.9629 24.9041V9.49316C30.1752 9.49316 25.4834 14.185 25.4834 19.9726V35.3836C31.271 35.3836 35.9629 30.6918 35.9629 24.9041Z" fill="#2EC5CE"/>
</svg>
