<svg width="23" height="23" viewBox="0 0 23 23" fill="none" xmlns="http://www.w3.org/2000/svg">
<g clip-path="url(#clip0_720_9250)">
<path d="M19.8232 9.24316C19.8232 15.6841 11.542 21.205 11.542 21.205C11.542 21.205 3.26074 15.6841 3.26074 9.24316C3.26074 7.04684 4.13323 4.94047 5.68626 3.38744C7.2393 1.8344 9.34567 0.961914 11.542 0.961914C13.7383 0.961914 15.8447 1.8344 17.3977 3.38744C18.9508 4.94047 19.8232 7.04684 19.8232 9.24316Z" stroke="#98A2B3" stroke-width="1.84028" stroke-linecap="round" stroke-linejoin="round"/>
<path d="M11.542 12.0036C13.0665 12.0036 14.3024 10.7677 14.3024 9.24316C14.3024 7.71863 13.0665 6.48275 11.542 6.48275C10.0175 6.48275 8.78158 7.71863 8.78158 9.24316C8.78158 10.7677 10.0175 12.0036 11.542 12.0036Z" stroke="#98A2B3" stroke-width="1.84028" stroke-linecap="round" stroke-linejoin="round"/>
</g>
<defs>
<clipPath id="clip0_720_9250">
<rect width="22.0833" height="22.0833" fill="white" transform="translate(0.5 0.0419922)"/>
</clipPath>
</defs>
</svg>
