<svg width="23" height="23" viewBox="0 0 23 23" fill="none" xmlns="http://www.w3.org/2000/svg">
<g clip-path="url(#clip0_551_8382)">
<path d="M0.825195 0V22.0973H22.9225V0H0.825195ZM7.12503 18.2668V19.5616H3.34139V15.7779H4.63615V17.3404L8.28206 13.708L9.19598 14.6253L5.5408 18.2668H7.12503ZM8.28206 8.38933L4.63615 4.75691V6.31939H3.34139V2.53575H7.12503V3.83051H5.5408L9.19598 7.47203L8.28206 8.38933ZM20.4063 19.5616H16.6227V18.2668H18.2069L14.5517 14.6253L15.4656 13.708L19.1115 17.3404V15.7779H20.4063V19.5616ZM20.4063 6.31939H19.1115V4.75691L15.4656 8.38933L14.5517 7.47203L18.2069 3.83051H16.6227V2.53575H20.4063V6.31939Z" fill="#EEEEEE"/>
</g>
<defs>
<clipPath id="clip0_551_8382">
<rect x="0.825195" width="22.0973" height="22.0973" rx="1.84144" fill="white"/>
</clipPath>
</defs>
</svg>
