<svg width="107" height="107" viewBox="0 0 107 107" fill="none" xmlns="http://www.w3.org/2000/svg">
<path opacity="0.3" fill-rule="evenodd" clip-rule="evenodd" d="M12.8309 87.6847C13.8302 88.8771 14.8902 90.0359 16.0112 91.1568C17.1321 92.2778 18.2909 93.3379 19.4834 94.3371L12.8309 87.6847ZM27.8354 100.068L7.09954 79.3327C6.13696 77.5912 5.28008 75.807 4.52889 73.9894L33.1786 102.639C31.361 101.888 29.5768 101.031 27.8354 100.068ZM37.3066 104.146C38.5744 104.55 39.8544 104.905 41.1436 105.211L1.95706 66.0244C2.2629 67.3137 2.61773 68.5936 3.02154 69.8614L37.3066 104.146ZM1.2857 62.7324L44.4356 105.882C45.5059 106.065 46.5807 106.216 47.6584 106.333L0.835496 59.5097C0.952507 60.5874 1.10257 61.6622 1.2857 62.7324ZM0.603277 56.6568L50.5112 106.565C51.4608 106.616 52.4114 106.642 53.3621 106.643L0.524885 53.8059C0.525534 54.7566 0.551666 55.7073 0.603277 56.6568ZM0.584795 51.2452L55.9229 106.583C56.7861 106.542 57.6485 106.48 58.5092 106.397L0.770952 48.6588C0.687854 49.5195 0.625801 50.3819 0.584795 51.2452ZM1.04964 46.3168L60.8512 106.118C61.6469 106.006 62.4405 105.875 63.2313 105.726L1.44203 43.9367C1.29309 44.7275 1.1623 45.5212 1.04964 46.3168ZM1.89693 41.771L65.3971 105.271C66.1367 105.1 66.8734 104.912 67.6066 104.708L2.45996 39.5614C2.25619 40.2946 2.06851 41.0313 1.89693 41.771ZM3.06402 37.5449L69.6232 104.104C70.3144 103.882 71.002 103.645 71.6854 103.394L3.77435 35.4826C3.52299 36.166 3.28622 36.8536 3.06402 37.5449ZM4.50935 33.597L73.5711 102.659C74.2191 102.392 74.8629 102.111 75.5021 101.817L5.35089 31.666C5.05695 32.3051 4.77644 32.9489 4.50935 33.597ZM6.20411 29.8986L77.2695 100.964C77.878 100.656 78.4819 100.335 79.0806 100.003L7.16551 28.0874C6.83252 28.6862 6.51206 29.29 6.20411 29.8986ZM8.12785 26.4291L80.7389 99.0402C81.3106 98.6943 81.8772 98.3366 82.4383 97.9671L9.20095 24.7297C8.83145 25.2908 8.47375 25.8574 8.12785 26.4291ZM10.2659 23.174L83.994 96.9021C84.5309 96.5204 85.0622 96.1274 85.5876 95.7232L11.4448 21.5804C11.0406 22.1058 10.6476 22.6372 10.2659 23.174ZM12.6077 20.1226L87.0454 94.5604C87.5487 94.1442 88.0461 93.7173 88.5373 93.2797L13.8883 18.6307C13.4507 19.1219 13.0238 19.6193 12.6077 20.1226ZM15.1459 17.2676L89.9004 92.0221C90.198 91.7379 90.4932 91.4494 90.7858 91.1568C90.9564 90.9863 91.1255 90.8148 91.2933 90.6425L16.5255 15.8747C16.3532 16.0425 16.1818 16.2117 16.0112 16.3822C15.7186 16.6748 15.4302 16.97 15.1459 17.2676ZM17.876 14.6046L92.5634 89.292C93.0055 88.8054 93.4369 88.3125 93.8576 87.8137L19.3544 13.3104C18.8555 13.7311 18.3626 14.1625 17.876 14.6046ZM20.7992 12.1346L95.0334 86.3688C95.4422 85.8481 95.8398 85.3214 96.2263 84.7892L22.3788 10.9417C21.8466 11.3282 21.3199 11.7258 20.7992 12.1346ZM23.9211 9.86331L97.3047 83.247C97.679 82.6908 98.0416 82.129 98.3925 81.5621L25.6059 8.77558C25.039 9.12644 24.4773 9.48902 23.9211 9.86331ZM27.25 7.79904L99.369 79.918C99.707 79.3245 100.033 78.7258 100.346 78.1224L29.0456 6.82213C28.4422 7.13535 27.8435 7.46099 27.25 7.79904ZM30.7979 5.95369L101.214 76.3702C101.514 75.7367 101.8 75.0985 102.073 74.456L32.7121 5.09538C32.0696 5.36819 31.4313 5.65429 30.7979 5.95369ZM34.5811 4.34374L102.824 72.5869C103.082 71.9098 103.325 71.2284 103.553 70.5433L36.6247 3.61489C35.9396 3.84343 35.2582 4.08638 34.5811 4.34374ZM38.6227 2.99221L104.176 68.5453C104.386 67.8193 104.581 67.0896 104.76 66.3568L40.8112 2.40809C40.0784 2.58693 39.3487 2.78164 38.6227 2.99221ZM42.9554 1.9317L105.236 64.2126C105.393 63.4301 105.532 62.6448 105.654 61.8573L45.3108 1.51451C44.5232 1.63575 43.7379 1.77481 42.9554 1.9317ZM47.6269 1.20996L105.958 59.5412C106.051 58.6908 106.123 57.8386 106.175 56.9854L50.1826 0.993193C49.3294 1.04487 48.4772 1.11712 47.6269 1.20996ZM52.7104 0.900359L106.268 54.4576C106.28 53.5207 106.267 52.5835 106.23 51.6472L55.5209 0.93826C54.5845 0.900877 53.6473 0.888242 52.7104 0.900359ZM58.3281 1.12481L106.043 48.84C105.945 47.7827 105.815 46.7279 105.653 45.677L61.491 1.51525C60.4401 1.35337 59.3853 1.22322 58.3281 1.12481ZM64.7098 2.11335L105.055 42.4583C104.782 41.2064 104.463 39.9626 104.098 38.7294L68.4386 3.06962C67.2055 2.70498 65.9616 2.38623 64.7098 2.11335ZM72.4061 4.41644L102.752 34.7619C102.099 33.0655 101.356 31.3959 100.523 29.7606L77.4074 6.6452C75.7721 5.81164 74.1025 5.06872 72.4061 4.41644ZM84.0835 10.7006L96.4674 23.0846C94.789 20.7348 92.8951 18.4916 90.7858 16.3822C88.6764 14.2729 86.4332 12.379 84.0835 10.7006Z" fill="#AFD1F8" fill-opacity="0.8"/>
</svg>
