<svg width="18" height="18" viewBox="0 0 18 18" fill="none" xmlns="http://www.w3.org/2000/svg">
<path d="M9.37854 13.3981C10.5488 13.9871 11.9204 14.4167 13.5223 14.6129C14.0069 14.6723 14.4199 14.2831 14.4199 13.7948V12.5388C14.4199 12.1509 14.1559 11.8128 13.7797 11.7187L12.0666 11.2904C11.7785 11.2184 11.4738 11.3028 11.2639 11.5128L9.37854 13.3981ZM9.37854 13.3981C7.18382 12.2935 5.6972 10.6284 4.728 8.89122M4.728 8.89122C3.837 7.29418 3.38331 5.63618 3.21878 4.29667C3.16053 3.82235 3.54535 3.42578 4.02324 3.42578H5.27397C5.67691 3.42578 6.02383 3.71019 6.10286 4.1053L6.58265 6.50425C6.63807 6.78139 6.55133 7.0679 6.35148 7.26774L4.728 8.89122Z" stroke="#97A1AF" stroke-width="1.26795"/>
</svg>
