<svg width="18" height="18" viewBox="0 0 18 18" fill="none" xmlns="http://www.w3.org/2000/svg">
<path d="M9.26111 13.3981C10.4314 13.9871 11.803 14.4167 13.4048 14.6129C13.8895 14.6723 14.3025 14.2831 14.3025 13.7948V12.5388C14.3025 12.1509 14.0385 11.8128 13.6622 11.7187L11.9492 11.2904C11.6611 11.2184 11.3564 11.3028 11.1464 11.5128L9.26111 13.3981ZM9.26111 13.3981C7.06639 12.2935 5.57977 10.6284 4.61057 8.89122M4.61057 8.89122C3.71957 7.29418 3.26588 5.63618 3.10135 4.29667C3.0431 3.82235 3.42792 3.42578 3.9058 3.42578H5.15654C5.55948 3.42578 5.9064 3.71019 5.98542 4.1053L6.46521 6.50425C6.52064 6.78139 6.4339 7.0679 6.23405 7.26774L4.61057 8.89122Z" stroke="#97A1AF" stroke-width="1.26795"/>
</svg>
