<svg width="24" height="24" viewBox="0 0 24 24" fill="none" xmlns="http://www.w3.org/2000/svg">
<path d="M12.1505 2.42871C6.74056 2.42871 2.34991 6.81936 2.34991 12.2293C2.34991 17.6392 6.74056 22.0298 12.1505 22.0298C17.5604 22.0298 21.9511 17.6392 21.9511 12.2293C21.9511 6.81936 17.5702 2.42871 12.1505 2.42871ZM15.0907 14.4148L12.2484 16.0515C11.8956 16.2573 11.5037 16.3553 11.1214 16.3553C10.7294 16.3553 10.3471 16.2573 9.99435 16.0515C9.28871 15.6399 8.86729 14.9146 8.86729 14.0914V10.8082C8.86729 9.99474 9.28871 9.2597 9.99435 8.84808C10.7 8.43645 11.5428 8.43645 12.2582 8.84808L15.1004 10.4848C15.806 10.8964 16.2275 11.6216 16.2275 12.4449C16.2275 13.2681 15.806 14.0032 15.0907 14.4148Z" fill="#069C53"/>
</svg>
