<svg width="66" height="54" viewBox="0 0 66 54" fill="none" xmlns="http://www.w3.org/2000/svg">
<g clip-path="url(#clip0_1243_6434)">
<path fill-rule="evenodd" clip-rule="evenodd" d="M65.2907 9.12351C55.5751 13.7353 50.7173 19.1542 50.7173 25.3801C54.8584 25.8413 58.2828 27.4746 60.9904 30.2802C63.698 33.0857 65.0518 36.3331 65.0518 40.0226C65.0518 43.9427 63.7378 47.2477 61.1098 49.938C58.4818 52.6282 55.177 53.9733 51.1952 53.9733C46.7355 53.9733 42.8732 52.2247 39.6081 48.7274C36.343 45.2301 34.7105 40.9834 34.7105 35.9873C34.7105 20.9988 43.3907 9.27728 60.7515 0.822266L65.2907 9.12351ZM31.0038 9.12351C21.2085 13.7353 16.311 19.1542 16.311 25.3801C20.5317 25.8413 23.9958 27.4746 26.7035 30.2802C29.4111 33.0857 30.7649 36.3331 30.7649 40.0226C30.7649 43.9427 29.431 47.2477 26.7632 49.938C24.0954 52.6282 20.7706 53.9733 16.7888 53.9733C12.3291 53.9733 8.48675 52.2247 5.26147 48.7274C2.0362 45.2301 0.423584 40.9834 0.423584 35.9873C0.423584 20.9988 9.06401 9.27728 26.3451 0.822266L31.0038 9.12351Z" fill="#EEEEEE"/>
</g>
<defs>
<clipPath id="clip0_1243_6434">
<rect width="65.1529" height="53.151" fill="white" transform="translate(0.423584 0.822266)"/>
</clipPath>
</defs>
</svg>
