<svg width="30" height="31" viewBox="0 0 30 31" fill="none" xmlns="http://www.w3.org/2000/svg">
<g clip-path="url(#clip0_551_8412)">
<path d="M9.89298 28.9999C10.8181 29.848 12.0192 30.3151 13.275 30.3151C14.5308 30.3151 15.7318 29.848 16.6569 28.9999C17.2267 28.4776 17.6617 27.8387 17.9375 27.1338H8.61243C8.88824 27.8387 9.32317 28.4776 9.89298 28.9999Z" fill="#EEEEEE"/>
<path d="M17.7032 15.2198L15.6039 16.5406L14.3127 14.4883H5.0387V17.4376H19.0512V15.9696C18.5785 15.7654 18.127 15.5143 17.7032 15.2198Z" fill="#EEEEEE"/>
<path d="M21.5269 19.1636H5.02302C4.83105 21.6865 2.71834 23.681 0.147053 23.681H0.142334V25.4074H26.4076V23.681H26.4028C23.8316 23.681 21.7188 21.6865 21.5269 19.1636Z" fill="#EEEEEE"/>
<path d="M14.4514 10.0125C14.3931 9.62796 14.3637 9.23832 14.3637 8.84592C14.3637 8.4335 14.3962 8.02424 14.4606 7.62067L12.3349 6.28315L15.1477 1.81242C14.7278 1.23122 14.045 0.852051 13.275 0.852051C12.0014 0.852051 10.9653 1.88815 10.9653 3.16168C10.9653 4.15387 11.5943 5.0018 12.4744 5.32808C8.55841 5.70759 5.43671 8.84068 5.07446 12.7616H13.2266L12.3349 11.3441L14.4514 10.0125Z" fill="#EEEEEE"/>
<path d="M28.1135 3.38829L26.3667 4.48734C25.5897 3.73017 24.6118 3.17831 23.5213 2.92056V0.852051H20.72V2.92056C19.6295 3.17831 18.6516 3.73017 17.8746 4.48734L16.1277 3.38829L14.6359 5.75932L16.3689 6.84968C16.1511 7.47531 16.0324 8.14686 16.0324 8.84581C16.0324 9.52507 16.1443 10.1786 16.3505 10.7892L14.6359 11.868L16.1277 14.239L17.8344 13.1652C18.6178 13.9426 19.6107 14.5089 20.7199 14.7711V16.7753H23.5212V14.7711C24.6305 14.5089 25.6233 13.9426 26.4067 13.1652L28.1135 14.239L29.6053 11.868L27.8907 10.7892C28.0969 10.1787 28.2087 9.52507 28.2087 8.84586C28.2087 8.14698 28.09 7.47543 27.8723 6.84974L29.6053 5.75938L28.1135 3.38829ZM22.1206 11.868C20.4542 11.868 19.0984 10.5123 19.0984 8.84581C19.0984 7.17936 20.4541 5.82365 22.1206 5.82365C23.787 5.82365 25.1427 7.17936 25.1427 8.84581C25.1427 10.5123 23.787 11.868 22.1206 11.868Z" fill="#EEEEEE"/>
<path d="M22.3249 10.1294C23.032 10.0147 23.5122 9.34863 23.3976 8.64157C23.283 7.9345 22.6169 7.45422 21.9098 7.56884C21.2028 7.68345 20.7226 8.34956 20.8372 9.05663C20.9518 9.7637 21.6179 10.244 22.3249 10.1294Z" fill="#EEEEEE"/>
</g>
<defs>
<clipPath id="clip0_551_8412">
<rect width="29.4631" height="29.4631" fill="white" transform="translate(0.142334 0.852051)"/>
</clipPath>
</defs>
</svg>
