<svg width="20" height="20" viewBox="0 0 20 20" fill="none" xmlns="http://www.w3.org/2000/svg">
<g clip-path="url(#clip0_1273_563)">
<path d="M6.24032 17.8003C13.4838 17.8003 17.4468 11.7977 17.4468 6.59378C17.4468 6.42503 17.4431 6.25253 17.4356 6.08378C18.2065 5.52626 18.8718 4.8357 19.4002 4.04453C18.6822 4.36397 17.9199 4.5726 17.1393 4.66328C17.9612 4.17062 18.5766 3.39667 18.8714 2.48491C18.0982 2.94314 17.2527 3.26638 16.3709 3.44078C15.7769 2.80954 14.9914 2.39159 14.1359 2.25153C13.2805 2.11148 12.4027 2.25713 11.6384 2.66597C10.874 3.07481 10.2656 3.72406 9.90727 4.51334C9.54891 5.30263 9.46054 6.18799 9.65582 7.03253C8.09019 6.95397 6.55854 6.54726 5.16018 5.83877C3.76182 5.13029 2.52795 4.13584 1.53857 2.91991C1.03571 3.78689 0.881841 4.81281 1.10822 5.78917C1.3346 6.76552 1.92425 7.61905 2.75732 8.17628C2.1319 8.15643 1.52018 7.98804 0.972695 7.68503V7.73378C0.972135 8.64361 1.28667 9.52556 1.86284 10.2297C2.43901 10.9339 3.24125 11.4167 4.1332 11.5963C3.55384 11.7548 2.94578 11.7779 2.35607 11.6638C2.60776 12.4462 3.09745 13.1306 3.75681 13.6214C4.41617 14.1121 5.21229 14.3848 6.03407 14.4013C4.63893 15.4972 2.91553 16.0916 1.14145 16.0888C0.826825 16.0883 0.512515 16.069 0.200195 16.031C2.00248 17.1873 4.09902 17.8014 6.24032 17.8003Z" fill="#98A2B3"/>
</g>
<defs>
<clipPath id="clip0_1273_563">
<rect width="19.2" height="19.2" fill="white" transform="translate(0.200195 0.400391)"/>
</clipPath>
</defs>
</svg>
