<svg width="20" height="20" viewBox="0 0 20 20" fill="none" xmlns="http://www.w3.org/2000/svg">
<g clip-path="url(#clip0_1273_627)">
<path d="M17.7788 0.400391H1.4175C0.63375 0.400391 0 1.01914 0 1.78414V18.2129C0 18.9779 0.63375 19.6004 1.4175 19.6004H17.7788C18.5625 19.6004 19.2 18.9779 19.2 18.2166V1.78414C19.2 1.01914 18.5625 0.400391 17.7788 0.400391ZM5.69625 16.7616H2.84625V7.59664H5.69625V16.7616ZM4.27125 6.34789C3.35625 6.34789 2.6175 5.60914 2.6175 4.69789C2.6175 3.78664 3.35625 3.04789 4.27125 3.04789C5.1825 3.04789 5.92125 3.78664 5.92125 4.69789C5.92125 5.60539 5.1825 6.34789 4.27125 6.34789ZM16.3612 16.7616H13.515V12.3066C13.515 11.2454 13.4962 9.87664 12.0337 9.87664C10.5525 9.87664 10.3275 11.0354 10.3275 12.2316V16.7616H7.485V7.59664H10.215V8.84914H10.2525C10.6312 8.12914 11.5613 7.36789 12.945 7.36789C15.8288 7.36789 16.3612 9.26539 16.3612 11.7329V16.7616Z" fill="#98A2B3"/>
</g>
<defs>
<clipPath id="clip0_1273_627">
<rect width="19.2" height="19.2" fill="white" transform="translate(0 0.400391)"/>
</clipPath>
</defs>
</svg>
