<svg width="20" height="20" viewBox="0 0 20 20" fill="none" xmlns="http://www.w3.org/2000/svg">
<path fill-rule="evenodd" clip-rule="evenodd" d="M9.6 0.400391C4.30022 0.400391 0 4.70061 0 10.0004C0 15.3002 4.30022 19.6004 9.6 19.6004C14.8894 19.6004 19.2 15.3002 19.2 10.0004C19.2 4.70061 14.8894 0.400391 9.6 0.400391ZM15.941 4.82555C17.0863 6.22078 17.7736 8.00125 17.7944 9.92749C17.5237 9.87547 14.8165 9.32359 12.0885 9.66721C12.026 9.53185 11.974 9.38605 11.9115 9.24031C11.7449 8.84467 11.5575 8.43859 11.3701 8.05333C14.3896 6.82471 15.764 5.05462 15.941 4.82555ZM9.6 1.81644C11.6824 1.81644 13.5878 2.59736 15.0352 3.87805C14.8894 4.08629 13.6503 5.74182 10.7349 6.83509C9.39174 4.36742 7.90284 2.34746 7.67376 2.0351C8.28804 1.88933 8.93364 1.81644 9.6 1.81644ZM6.11196 2.58694C6.3306 2.87848 7.7883 4.90885 9.15228 7.32445C5.32061 8.34487 1.93666 8.32405 1.57223 8.32405C2.10325 5.78347 3.82126 3.6698 6.11196 2.58694ZM1.39523 10.0108C1.39523 9.92749 1.39523 9.84421 1.39523 9.76093C1.74924 9.77131 5.72668 9.82339 9.81864 8.59477C10.0582 9.05287 10.2768 9.52141 10.4851 9.98995C10.3809 10.0212 10.2664 10.0525 10.1623 10.0837C5.93492 11.4477 3.6859 15.1752 3.49848 15.4876C2.19696 14.0403 1.39523 12.1141 1.39523 10.0108ZM9.6 18.2052C7.70496 18.2052 5.95575 17.5596 4.57093 16.4767C4.7167 16.1748 6.38262 12.9679 11.0056 11.354C11.0264 11.3436 11.0369 11.3436 11.0577 11.3332C12.2134 14.3214 12.682 16.8307 12.8069 17.5492C11.8178 17.9761 10.7349 18.2052 9.6 18.2052ZM14.1709 16.7995C14.0876 16.2997 13.6503 13.905 12.5779 10.9583C15.1497 10.5522 17.3987 11.2186 17.6798 11.3124C17.3258 13.5926 16.0139 15.5605 14.1709 16.7995Z" fill="#98A2B3"/>
</svg>
