<svg width="20" height="20" viewBox="0 0 20 20" fill="none" xmlns="http://www.w3.org/2000/svg">
<path fill-rule="evenodd" clip-rule="evenodd" d="M9.8002 0.400391C4.50041 0.400391 0.200195 4.70061 0.200195 10.0004C0.200195 15.3002 4.50041 19.6004 9.8002 19.6004C15.0896 19.6004 19.4002 15.3002 19.4002 10.0004C19.4002 4.70061 15.0896 0.400391 9.8002 0.400391ZM16.1412 4.82555C17.2865 6.22078 17.9738 8.00125 17.9946 9.92749C17.7239 9.87547 15.0167 9.32359 12.2887 9.66721C12.2262 9.53185 12.1742 9.38605 12.1117 9.24031C11.9451 8.84467 11.7577 8.43859 11.5703 8.05333C14.5898 6.82471 15.9642 5.05462 16.1412 4.82555ZM9.8002 1.81644C11.8826 1.81644 13.788 2.59736 15.2354 3.87805C15.0896 4.08629 13.8505 5.74182 10.9351 6.83509C9.59194 4.36742 8.10304 2.34746 7.87396 2.0351C8.48824 1.88933 9.13384 1.81644 9.8002 1.81644ZM6.31216 2.58694C6.5308 2.87848 7.9885 4.90885 9.35248 7.32445C5.5208 8.34487 2.13686 8.32405 1.77243 8.32405C2.30345 5.78347 4.02145 3.6698 6.31216 2.58694ZM1.59542 10.0108C1.59542 9.92749 1.59542 9.84421 1.59542 9.76093C1.94944 9.77131 5.92688 9.82339 10.0188 8.59477C10.2584 9.05287 10.477 9.52141 10.6853 9.98995C10.5811 10.0212 10.4666 10.0525 10.3625 10.0837C6.13512 11.4477 3.8861 15.1752 3.69868 15.4876C2.39716 14.0403 1.59542 12.1141 1.59542 10.0108ZM9.8002 18.2052C7.90516 18.2052 6.15595 17.5596 4.77113 16.4767C4.9169 16.1748 6.58282 12.9679 11.2058 11.354C11.2266 11.3436 11.2371 11.3436 11.2579 11.3332C12.4136 14.3214 12.8822 16.8307 13.0071 17.5492C12.018 17.9761 10.9351 18.2052 9.8002 18.2052ZM14.3711 16.7995C14.2878 16.2997 13.8505 13.905 12.7781 10.9583C15.3499 10.5522 17.5989 11.2186 17.88 11.3124C17.526 13.5926 16.2141 15.5605 14.3711 16.7995Z" fill="#98A2B3"/>
</svg>
