<svg width="20" height="20" viewBox="0 0 20 20" fill="none" xmlns="http://www.w3.org/2000/svg">
<g clip-path="url(#clip0_1273_68)">
<path d="M17.9789 0.400391H1.6177C0.833945 0.400391 0.200195 1.01914 0.200195 1.78414V18.2129C0.200195 18.9779 0.833945 19.6004 1.6177 19.6004H17.9789C18.7627 19.6004 19.4002 18.9779 19.4002 18.2166V1.78414C19.4002 1.01914 18.7627 0.400391 17.9789 0.400391ZM5.89645 16.7616H3.04645V7.59664H5.89645V16.7616ZM4.47145 6.34789C3.55645 6.34789 2.8177 5.60914 2.8177 4.69789C2.8177 3.78664 3.55645 3.04789 4.47145 3.04789C5.3827 3.04789 6.12145 3.78664 6.12145 4.69789C6.12145 5.60539 5.3827 6.34789 4.47145 6.34789ZM16.5614 16.7616H13.7152V12.3066C13.7152 11.2454 13.6964 9.87664 12.2339 9.87664C10.7527 9.87664 10.5277 11.0354 10.5277 12.2316V16.7616H7.6852V7.59664H10.4152V8.84914H10.4527C10.8314 8.12914 11.7614 7.36789 13.1452 7.36789C16.0289 7.36789 16.5614 9.26539 16.5614 11.7329V16.7616Z" fill="#98A2B3"/>
</g>
<defs>
<clipPath id="clip0_1273_68">
<rect width="19.2" height="19.2" fill="white" transform="translate(0.200195 0.400391)"/>
</clipPath>
</defs>
</svg>
