<svg width="20" height="20" viewBox="0 0 20 20" fill="none" xmlns="http://www.w3.org/2000/svg">
<g clip-path="url(#clip0_1273_565)">
<path d="M18.1791 0.400391H1.81789C1.03414 0.400391 0.400391 1.01914 0.400391 1.78414V18.2129C0.400391 18.9779 1.03414 19.6004 1.81789 19.6004H18.1791C18.9629 19.6004 19.6004 18.9779 19.6004 18.2166V1.78414C19.6004 1.01914 18.9629 0.400391 18.1791 0.400391ZM6.09664 16.7616H3.24664V7.59664H6.09664V16.7616ZM4.67164 6.34789C3.75664 6.34789 3.01789 5.60914 3.01789 4.69789C3.01789 3.78664 3.75664 3.04789 4.67164 3.04789C5.58289 3.04789 6.32164 3.78664 6.32164 4.69789C6.32164 5.60539 5.58289 6.34789 4.67164 6.34789ZM16.7616 16.7616H13.9154V12.3066C13.9154 11.2454 13.8966 9.87664 12.4341 9.87664C10.9529 9.87664 10.7279 11.0354 10.7279 12.2316V16.7616H7.88539V7.59664H10.6154V8.84914H10.6529C11.0316 8.12914 11.9616 7.36789 13.3454 7.36789C16.2291 7.36789 16.7616 9.26539 16.7616 11.7329V16.7616Z" fill="#98A2B3"/>
</g>
<defs>
<clipPath id="clip0_1273_565">
<rect width="19.2" height="19.2" fill="white" transform="translate(0.400391 0.400391)"/>
</clipPath>
</defs>
</svg>
