<svg width="20" height="20" viewBox="0 0 20 20" fill="none" xmlns="http://www.w3.org/2000/svg">
<g clip-path="url(#clip0_1273_605)">
<path d="M6.63973 17.8003C13.8832 17.8003 17.8462 11.7977 17.8462 6.59378C17.8462 6.42503 17.8425 6.25253 17.835 6.08378C18.6059 5.52626 19.2712 4.8357 19.7996 4.04453C19.0816 4.36397 18.3193 4.5726 17.5387 4.66328C18.3606 4.17062 18.976 3.39667 19.2709 2.48491C18.4977 2.94314 17.6521 3.26638 16.7704 3.44078C16.1763 2.80954 15.3908 2.39159 14.5354 2.25153C13.6799 2.11148 12.8022 2.25713 12.0378 2.66597C11.2734 3.07481 10.665 3.72406 10.3067 4.51334C9.94833 5.30263 9.85995 6.18799 10.0552 7.03253C8.4896 6.95397 6.95796 6.54726 5.55959 5.83877C4.16123 5.13029 2.92736 4.13584 1.93798 2.91991C1.43513 3.78689 1.28125 4.81281 1.50763 5.78917C1.73401 6.76552 2.32366 7.61905 3.15673 8.17628C2.53131 8.15643 1.91959 7.98804 1.37211 7.68503V7.73378C1.37155 8.64361 1.68609 9.52556 2.26226 10.2297C2.83843 10.9339 3.64067 11.4167 4.53261 11.5963C3.95325 11.7548 3.3452 11.7779 2.75548 11.6638C3.00717 12.4462 3.49687 13.1306 4.15623 13.6214C4.81558 14.1121 5.61171 14.3848 6.43348 14.4013C5.03835 15.4972 3.31495 16.0916 1.54086 16.0888C1.22624 16.0883 0.911929 16.069 0.599609 16.031C2.40189 17.1873 4.49843 17.8014 6.63973 17.8003Z" fill="#98A2B3"/>
</g>
<defs>
<clipPath id="clip0_1273_605">
<rect width="19.2" height="19.2" fill="white" transform="translate(0.599609 0.400391)"/>
</clipPath>
</defs>
</svg>
