<svg width="20" height="20" viewBox="0 0 20 20" fill="none" xmlns="http://www.w3.org/2000/svg">
<g clip-path="url(#clip0_1273_66)">
<path d="M6.04013 17.8003C13.2836 17.8003 17.2466 11.7977 17.2466 6.59378C17.2466 6.42503 17.2429 6.25253 17.2354 6.08378C18.0063 5.52626 18.6716 4.8357 19.2 4.04453C18.482 4.36397 17.7197 4.5726 16.9391 4.66328C17.761 4.17062 18.3764 3.39667 18.6712 2.48491C17.898 2.94314 17.0525 3.26638 16.1708 3.44078C15.5767 2.80954 14.7912 2.39159 13.9357 2.25153C13.0803 2.11148 12.2026 2.25713 11.4382 2.66597C10.6738 3.07481 10.0654 3.72406 9.70708 4.51334C9.34872 5.30263 9.26034 6.18799 9.45562 7.03253C7.88999 6.95397 6.35835 6.54726 4.95999 5.83877C3.56162 5.13029 2.32775 4.13584 1.33837 2.91991C0.83552 3.78689 0.681645 4.81281 0.908025 5.78917C1.1344 6.76552 1.72405 7.61905 2.55713 8.17628C1.9317 8.15643 1.31998 7.98804 0.7725 7.68503V7.73378C0.77194 8.64361 1.08648 9.52556 1.66265 10.2297C2.23882 10.9339 3.04106 11.4167 3.933 11.5963C3.35364 11.7548 2.74559 11.7779 2.15587 11.6638C2.40756 12.4462 2.89726 13.1306 3.55662 13.6214C4.21597 14.1121 5.0121 14.3848 5.83388 14.4013C4.43874 15.4972 2.71534 16.0916 0.94125 16.0888C0.62663 16.0883 0.312319 16.069 0 16.031C1.80229 17.1873 3.89882 17.8014 6.04013 17.8003Z" fill="#98A2B3"/>
</g>
<defs>
<clipPath id="clip0_1273_66">
<rect width="19.2" height="19.2" fill="white" transform="translate(0 0.400391)"/>
</clipPath>
</defs>
</svg>
