<svg width="20" height="20" viewBox="0 0 20 20" fill="none" xmlns="http://www.w3.org/2000/svg">
<path fill-rule="evenodd" clip-rule="evenodd" d="M10.0004 0.400391C4.70061 0.400391 0.400391 4.70061 0.400391 10.0004C0.400391 15.3002 4.70061 19.6004 10.0004 19.6004C15.2898 19.6004 19.6004 15.3002 19.6004 10.0004C19.6004 4.70061 15.2898 0.400391 10.0004 0.400391ZM16.3414 4.82555C17.4867 6.22078 18.174 8.00125 18.1948 9.92749C17.9241 9.87547 15.2169 9.32359 12.4889 9.66721C12.4264 9.53185 12.3744 9.38605 12.3119 9.24031C12.1453 8.84467 11.9579 8.43859 11.7705 8.05333C14.79 6.82471 16.1644 5.05462 16.3414 4.82555ZM10.0004 1.81644C12.0828 1.81644 13.9882 2.59736 15.4356 3.87805C15.2898 4.08629 14.0507 5.74182 11.1353 6.83509C9.79213 4.36742 8.30323 2.34746 8.07415 2.0351C8.68843 1.88933 9.33403 1.81644 10.0004 1.81644ZM6.51235 2.58694C6.73099 2.87848 8.18869 4.90885 9.55267 7.32445C5.721 8.34487 2.33705 8.32405 1.97262 8.32405C2.50364 5.78347 4.22165 3.6698 6.51235 2.58694ZM1.79562 10.0108C1.79562 9.92749 1.79562 9.84421 1.79562 9.76093C2.14963 9.77131 6.12707 9.82339 10.219 8.59477C10.4586 9.05287 10.6772 9.52141 10.8855 9.98995C10.7813 10.0212 10.6668 10.0525 10.5627 10.0837C6.33531 11.4477 4.08629 15.1752 3.89887 15.4876C2.59735 14.0403 1.79562 12.1141 1.79562 10.0108ZM10.0004 18.2052C8.10535 18.2052 6.35614 17.5596 4.97132 16.4767C5.11709 16.1748 6.78301 12.9679 11.406 11.354C11.4268 11.3436 11.4373 11.3436 11.4581 11.3332C12.6138 14.3214 13.0824 16.8307 13.2073 17.5492C12.2182 17.9761 11.1353 18.2052 10.0004 18.2052ZM14.5713 16.7995C14.488 16.2997 14.0507 13.905 12.9783 10.9583C15.5501 10.5522 17.7991 11.2186 18.0802 11.3124C17.7262 13.5926 16.4143 15.5605 14.5713 16.7995Z" fill="#98A2B3"/>
</svg>
