<svg width="20" height="20" viewBox="0 0 20 20" fill="none" xmlns="http://www.w3.org/2000/svg">
<g clip-path="url(#clip0_1273_625)">
<path d="M6.83993 17.8003C14.0834 17.8003 18.0464 11.7977 18.0464 6.59378C18.0464 6.42503 18.0427 6.25253 18.0352 6.08378C18.8061 5.52626 19.4714 4.8357 19.9998 4.04453C19.2818 4.36397 18.5195 4.5726 17.7389 4.66328C18.5608 4.17062 19.1762 3.39667 19.4711 2.48491C18.6978 2.94314 17.8523 3.26638 16.9706 3.44078C16.3765 2.80954 15.591 2.39159 14.7356 2.25153C13.8801 2.11148 13.0024 2.25713 12.238 2.66597C11.4736 3.07481 10.8652 3.72406 10.5069 4.51334C10.1485 5.30263 10.0601 6.18799 10.2554 7.03253C8.6898 6.95397 7.15815 6.54726 5.75979 5.83877C4.36143 5.13029 3.12756 4.13584 2.13818 2.91991C1.63532 3.78689 1.48145 4.81281 1.70783 5.78917C1.93421 6.76552 2.52385 7.61905 3.35693 8.17628C2.73151 8.15643 2.11979 7.98804 1.5723 7.68503V7.73378C1.57174 8.64361 1.88628 9.52556 2.46245 10.2297C3.03862 10.9339 3.84086 11.4167 4.7328 11.5963C4.15345 11.7548 3.54539 11.7779 2.95568 11.6638C3.20737 12.4462 3.69706 13.1306 4.35642 13.6214C5.01578 14.1121 5.8119 14.3848 6.63368 14.4013C5.23854 15.4972 3.51514 16.0916 1.74105 16.0888C1.42643 16.0883 1.11212 16.069 0.799805 16.031C2.60209 17.1873 4.69863 17.8014 6.83993 17.8003Z" fill="#98A2B3"/>
</g>
<defs>
<clipPath id="clip0_1273_625">
<rect width="19.2" height="19.2" fill="white" transform="translate(0.799805 0.400391)"/>
</clipPath>
</defs>
</svg>
