<svg width="20" height="20" viewBox="0 0 20 20" fill="none" xmlns="http://www.w3.org/2000/svg">
<path fill-rule="evenodd" clip-rule="evenodd" d="M10.2006 0.400391C4.9008 0.400391 0.600586 4.70061 0.600586 10.0004C0.600586 15.3002 4.9008 19.6004 10.2006 19.6004C15.4899 19.6004 19.8006 15.3002 19.8006 10.0004C19.8006 4.70061 15.4899 0.400391 10.2006 0.400391ZM16.5416 4.82555C17.6869 6.22078 18.3741 8.00125 18.395 9.92749C18.1242 9.87547 15.417 9.32359 12.6891 9.66721C12.6266 9.53185 12.5745 9.38605 12.5121 9.24031C12.3455 8.84467 12.1581 8.43859 11.9706 8.05333C14.9901 6.82471 16.3646 5.05462 16.5416 4.82555ZM10.2006 1.81644C12.283 1.81644 14.1884 2.59736 15.6357 3.87805C15.4899 4.08629 14.2509 5.74182 11.3355 6.83509C9.99233 4.36742 8.50343 2.34746 8.27435 2.0351C8.88863 1.88933 9.53423 1.81644 10.2006 1.81644ZM6.71255 2.58694C6.93119 2.87848 8.38889 4.90885 9.75287 7.32445C5.92119 8.34487 2.53725 8.32405 2.17282 8.32405C2.70384 5.78347 4.42184 3.6698 6.71255 2.58694ZM1.99581 10.0108C1.99581 9.92749 1.99581 9.84421 1.99581 9.76093C2.34983 9.77131 6.32727 9.82339 10.4192 8.59477C10.6587 9.05287 10.8774 9.52141 11.0856 9.98995C10.9815 10.0212 10.8669 10.0525 10.7628 10.0837C6.53551 11.4477 4.28649 15.1752 4.09907 15.4876C2.79755 14.0403 1.99581 12.1141 1.99581 10.0108ZM10.2006 18.2052C8.30555 18.2052 6.55634 17.5596 5.17152 16.4767C5.31729 16.1748 6.98321 12.9679 11.6062 11.354C11.627 11.3436 11.6375 11.3436 11.6583 11.3332C12.814 14.3214 13.2826 16.8307 13.4075 17.5492C12.4184 17.9761 11.3355 18.2052 10.2006 18.2052ZM14.7715 16.7995C14.6882 16.2997 14.2509 13.905 13.1784 10.9583C15.7503 10.5522 17.9993 11.2186 18.2804 11.3124C17.9264 13.5926 16.6145 15.5605 14.7715 16.7995Z" fill="#98A2B3"/>
</svg>
