<svg width="20" height="20" viewBox="0 0 20 20" fill="none" xmlns="http://www.w3.org/2000/svg">
<g clip-path="url(#clip0_1273_607)">
<path d="M18.5786 0.400391H2.2173C1.43355 0.400391 0.799805 1.01914 0.799805 1.78414V18.2129C0.799805 18.9779 1.43355 19.6004 2.2173 19.6004H18.5786C19.3623 19.6004 19.9998 18.9779 19.9998 18.2166V1.78414C19.9998 1.01914 19.3623 0.400391 18.5786 0.400391ZM6.49605 16.7616H3.64605V7.59664H6.49605V16.7616ZM5.07105 6.34789C4.15605 6.34789 3.4173 5.60914 3.4173 4.69789C3.4173 3.78664 4.15605 3.04789 5.07105 3.04789C5.98231 3.04789 6.72105 3.78664 6.72105 4.69789C6.72105 5.60539 5.98231 6.34789 5.07105 6.34789ZM17.1611 16.7616H14.3148V12.3066C14.3148 11.2454 14.2961 9.87664 12.8336 9.87664C11.3523 9.87664 11.1273 11.0354 11.1273 12.2316V16.7616H8.28481V7.59664H11.0148V8.84914H11.0523C11.4311 8.12914 12.3611 7.36789 13.7448 7.36789C16.6286 7.36789 17.1611 9.26539 17.1611 11.7329V16.7616Z" fill="#98A2B3"/>
</g>
<defs>
<clipPath id="clip0_1273_607">
<rect width="19.2" height="19.2" fill="white" transform="translate(0.799805 0.400391)"/>
</clipPath>
</defs>
</svg>
