<svg width="30" height="30" viewBox="0 0 30 30" fill="none" xmlns="http://www.w3.org/2000/svg">
<path d="M20.3899 5.53911C20.2649 4.62584 19.9061 3.76035 19.3482 3.02655C18.7903 2.29276 18.0523 1.71556 17.2057 1.35092C16.3591 0.986287 15.4326 0.846582 14.5162 0.945354C13.5997 1.04413 12.7243 1.37802 11.9748 1.91467C11.2253 2.45133 10.6273 3.17252 10.2385 4.00833C9.84981 4.84415 9.68364 5.76622 9.75614 6.68515C9.82863 7.60408 10.1373 8.48869 10.6523 9.25321C11.1673 10.0177 11.8711 10.6362 12.6954 11.0487L12.2406 11.9027C12.2027 11.9743 12.1839 12.0544 12.1861 12.1354C12.1883 12.2163 12.2113 12.2953 12.253 12.3648C12.2947 12.4342 12.3535 12.4917 12.4239 12.5318C12.4944 12.5718 12.5739 12.5929 12.6549 12.5932H17.345C17.4216 12.5926 17.4969 12.5733 17.5644 12.5371C17.6318 12.501 17.6895 12.4489 17.7325 12.3855C17.7754 12.3221 17.8023 12.2493 17.8108 12.1732C17.8193 12.0971 17.8093 12.02 17.7815 11.9487L17.4339 11.0713C18.4458 10.5772 19.2761 9.77657 19.8068 8.78338C20.3375 7.79018 20.5415 6.65494 20.3899 5.53911ZM13.5917 3.20739C13.6846 3.2073 13.7755 3.23477 13.8528 3.28633C13.9301 3.3379 13.9903 3.41123 14.0259 3.49705C14.0615 3.58287 14.0709 3.67732 14.0528 3.76845C14.0347 3.85958 13.9899 3.94329 13.9242 4.00899C13.8585 4.07469 13.7748 4.11942 13.6837 4.13752C13.5926 4.15563 13.4981 4.14629 13.4123 4.11069C13.3265 4.07509 13.2531 4.01484 13.2016 3.93755C13.15 3.86026 13.1225 3.76941 13.1226 3.6765C13.1231 3.55223 13.1727 3.43319 13.2606 3.34532C13.3484 3.25745 13.4675 3.20787 13.5917 3.20739ZM16.4068 8.36849H15.4682V11.6527H14.5299V8.36849H13.5917C13.4673 8.36849 13.348 8.31906 13.26 8.23109C13.172 8.14311 13.1226 8.02379 13.1226 7.89938C13.1226 7.77496 13.172 7.65565 13.26 7.56767C13.348 7.4797 13.4673 7.43027 13.5917 7.43027H16.4068C16.5312 7.43027 16.6506 7.4797 16.7385 7.56767C16.8265 7.65565 16.8759 7.77496 16.8759 7.89938C16.8759 8.02379 16.8265 8.14311 16.7385 8.23109C16.6506 8.31906 16.5312 8.36849 16.4068 8.36849ZM18.124 6.31344H18.0627C17.9498 6.31335 17.8406 6.27253 17.7553 6.19845C17.6699 6.12438 17.6142 6.02202 17.5982 5.91016C17.5195 5.35783 17.2607 4.84691 16.862 4.45662C16.4633 4.06634 15.947 3.8185 15.3931 3.75153C15.2694 3.73674 15.1566 3.67378 15.079 3.57631C15.0014 3.47884 14.9654 3.35472 14.9788 3.23087C14.9855 3.16931 15.0043 3.10969 15.0342 3.05546C15.0641 3.00123 15.1044 2.95347 15.1529 2.91493C15.2013 2.8764 15.257 2.84786 15.3165 2.83097C15.3761 2.81408 15.4384 2.80918 15.4999 2.81654C16.26 2.90967 16.9683 3.25056 17.5152 3.78652C18.0622 4.32249 18.4173 5.02368 18.5259 5.78172C18.5345 5.84304 18.5309 5.90546 18.5154 5.9654C18.4999 6.02534 18.4727 6.08162 18.4353 6.13102C18.398 6.18042 18.3513 6.22196 18.2978 6.25326C18.2444 6.28457 18.1853 6.30502 18.124 6.31344Z" fill="#EEEEEE"/>
<path d="M19.1842 20.144C19.0925 20.1447 19.0027 20.1184 18.9259 20.0684C18.8491 20.0184 18.7887 19.9468 18.7524 19.8627L17.4772 17.153C17.4683 17.1341 17.4532 17.1187 17.4344 17.1095C17.4156 17.1003 17.3942 17.0978 17.3738 17.1023C17.3534 17.1069 17.3351 17.1182 17.322 17.1346C17.3089 17.1509 17.3018 17.1712 17.3018 17.1921V27.5995L16.3811 27.6087V17.2506C16.381 17.2304 16.3743 17.2107 16.362 17.1947C16.3497 17.1786 16.3324 17.1671 16.3128 17.1618C16.2933 17.1566 16.2726 17.1579 16.2538 17.1657C16.2351 17.1734 16.2195 17.1871 16.2093 17.2046L14.6441 19.9207C14.6015 19.9894 14.542 20.0461 14.4714 20.0855C14.4008 20.1249 14.3213 20.1456 14.2404 20.1458H4.06274V28.0451C4.06311 28.1694 4.11265 28.2885 4.20054 28.3764C4.28844 28.4643 4.40755 28.5139 4.53185 28.5142H25.9869C26.1113 28.5139 26.2304 28.4643 26.3184 28.3765C26.4064 28.2886 26.456 28.1695 26.4565 28.0451V20.144H19.1842ZM11.2457 25.9638C11.2457 25.9946 11.2397 26.0252 11.2279 26.0536C11.2161 26.0821 11.1988 26.1079 11.177 26.1297C11.1551 26.1515 11.1293 26.1687 11.1008 26.1805C11.0723 26.1922 11.0418 26.1982 11.011 26.1982H7.72629C7.66414 26.1982 7.60454 26.1735 7.5606 26.1295C7.51666 26.0856 7.49197 26.026 7.49197 25.9638V24.5542C7.49197 24.4921 7.51666 24.4325 7.5606 24.3885C7.60454 24.3446 7.66414 24.3199 7.72629 24.3199H11.0105C11.0413 24.3198 11.0718 24.3258 11.1003 24.3376C11.1288 24.3493 11.1547 24.3666 11.1765 24.3884C11.1983 24.4101 11.2156 24.436 11.2274 24.4644C11.2392 24.4929 11.2453 24.5234 11.2453 24.5542L11.2457 25.9638ZM18.7524 23.8508H20.1602C20.2846 23.8508 20.4039 23.9002 20.4919 23.9882C20.5798 24.0762 20.6293 24.1955 20.6293 24.3199C20.6293 24.4443 20.5798 24.5636 20.4919 24.6516C20.4039 24.7396 20.2846 24.789 20.1602 24.789H18.7524C18.628 24.789 18.5086 24.7396 18.4207 24.6516C18.3327 24.5636 18.2833 24.4443 18.2833 24.3199C18.2833 24.1955 18.3327 24.0762 18.4207 23.9882C18.5086 23.9002 18.628 23.8508 18.7524 23.8508ZM21.1002 26.6659H18.7524C18.6304 26.6621 18.5148 26.6109 18.4299 26.5233C18.345 26.4357 18.2975 26.3185 18.2975 26.1965C18.2975 26.0746 18.345 25.9574 18.4299 25.8698C18.5148 25.7822 18.6304 25.731 18.7524 25.7272H21.1002C21.2221 25.731 21.3378 25.7822 21.4227 25.8698C21.5076 25.9574 21.5551 26.0746 21.5551 26.1965C21.5551 26.3185 21.5076 26.4357 21.4227 26.5233C21.3378 26.6109 21.2221 26.6621 21.1002 26.6659Z" fill="#EEEEEE"/>
<path d="M24.3826 7.43037H22.0348C21.9128 7.42655 21.7972 7.37543 21.7123 7.28783C21.6274 7.20023 21.5799 7.08303 21.5799 6.96104C21.5799 6.83904 21.6274 6.72184 21.7123 6.63424C21.7972 6.54664 21.9128 6.49552 22.0348 6.4917H24.3826C24.5045 6.49552 24.6202 6.54664 24.7051 6.63424C24.79 6.72184 24.8375 6.83904 24.8375 6.96104C24.8375 7.08303 24.79 7.20023 24.7051 7.28783C24.6202 7.37543 24.5045 7.42655 24.3826 7.43037Z" fill="#EEEEEE"/>
<path d="M21.9114 4.50574C21.8186 4.50561 21.728 4.47801 21.6509 4.42643C21.5739 4.37486 21.5138 4.30161 21.4783 4.21593C21.4428 4.13025 21.4334 4.03597 21.4514 3.945C21.4695 3.85402 21.514 3.77041 21.5795 3.70472L23.2367 2.04742C23.325 1.96101 23.4439 1.91292 23.5674 1.91358C23.6909 1.91425 23.8092 1.96362 23.8966 2.05097C23.9839 2.13833 24.0333 2.25662 24.034 2.38015C24.0346 2.50369 23.9865 2.62251 23.9001 2.7108L22.2428 4.3681C22.1994 4.41173 22.1477 4.44636 22.0908 4.46998C22.034 4.4936 21.973 4.50575 21.9114 4.50574Z" fill="#EEEEEE"/>
<path d="M23.5696 12.0126C23.508 12.0125 23.447 12.0003 23.3901 11.9766C23.3332 11.9529 23.2816 11.9182 23.2382 11.8745L21.5809 10.2171C21.4945 10.1289 21.4464 10.01 21.447 9.8865C21.4477 9.76297 21.4971 9.64468 21.5844 9.55732C21.6718 9.46997 21.7901 9.42059 21.9136 9.41993C22.0371 9.41926 22.156 9.46736 22.2442 9.55377L23.9015 11.2111C23.9672 11.2767 24.012 11.3603 24.0301 11.4514C24.0483 11.5424 24.039 11.6368 24.0034 11.7226C23.9679 11.8083 23.9077 11.8816 23.8305 11.9332C23.7532 11.9847 23.6625 12.0122 23.5696 12.0121V12.0126Z" fill="#EEEEEE"/>
<path d="M7.96152 7.43037H5.61368C5.49175 7.42655 5.37609 7.37543 5.29119 7.28783C5.20629 7.20023 5.15881 7.08303 5.15881 6.96104C5.15881 6.83904 5.20629 6.72184 5.29119 6.63424C5.37609 6.54664 5.49175 6.49552 5.61368 6.4917H7.96152C8.08345 6.49552 8.19911 6.54664 8.28401 6.63424C8.36891 6.72184 8.41638 6.83904 8.41638 6.96104C8.41638 7.08303 8.36891 7.20023 8.28401 7.28783C8.19911 7.37543 8.08345 7.42655 7.96152 7.43037Z" fill="#EEEEEE"/>
<path d="M8.08722 4.50572C8.02553 4.50571 7.96444 4.4935 7.90748 4.4698C7.85052 4.44609 7.7988 4.41137 7.7553 4.36761L6.098 2.71032C6.01545 2.62148 5.97051 2.50413 5.9726 2.38288C5.9747 2.26162 6.02367 2.14589 6.10924 2.05997C6.19482 1.97404 6.31034 1.92458 6.43158 1.92198C6.55282 1.91938 6.67036 1.96384 6.75954 2.04602L8.41684 3.70331C8.48228 3.76898 8.52682 3.85255 8.54484 3.94348C8.56287 4.03442 8.55357 4.12865 8.51812 4.21431C8.48268 4.29998 8.42267 4.37323 8.34566 4.42484C8.26865 4.47645 8.17809 4.50411 8.08538 4.50434L8.08722 4.50572Z" fill="#EEEEEE"/>
<path d="M6.42851 12.0123C6.33567 12.0124 6.24489 11.9849 6.16767 11.9334C6.09045 11.8818 6.03026 11.8085 5.99472 11.7228C5.95918 11.637 5.94989 11.5426 5.96802 11.4516C5.98616 11.3605 6.0309 11.2769 6.09659 11.2113L7.75389 9.55397C7.84305 9.47274 7.96007 9.42898 8.08065 9.43177C8.20122 9.43455 8.31609 9.48367 8.40141 9.56892C8.48672 9.65418 8.53592 9.76902 8.53879 9.88959C8.54166 10.0102 8.49798 10.1272 8.41681 10.2164L6.75951 11.8737C6.71621 11.9175 6.66467 11.9523 6.60786 11.9761C6.55105 11.9999 6.4901 12.0122 6.42851 12.0123Z" fill="#EEEEEE"/>
<path d="M26.9395 14.7727C26.9028 14.6905 26.843 14.6206 26.7674 14.5716C26.6919 14.5226 26.6037 14.4965 26.5136 14.4965H17.8128V13.9031C17.7991 13.7917 17.7423 13.69 17.6547 13.6198C17.567 13.5497 17.4555 13.5165 17.3437 13.5274H12.6522C12.5404 13.5165 12.4289 13.5497 12.3412 13.6198C12.2536 13.69 12.1968 13.7917 12.1831 13.9031V14.4942H4.24554C4.16473 14.4944 4.08529 14.5151 4.01473 14.5545C3.94418 14.5939 3.88482 14.6506 3.84226 14.7193L1.34112 18.8506C1.3197 18.8862 1.30811 18.9268 1.30752 18.9683C1.30693 19.0099 1.31737 19.0508 1.33778 19.087C1.35819 19.1232 1.38783 19.1533 1.42368 19.1743C1.45953 19.1953 1.5003 19.2064 1.54184 19.2064H13.8441C13.8844 19.2065 13.9241 19.196 13.9593 19.1762C13.9945 19.1564 14.0239 19.1278 14.0448 19.0932L16.1882 15.5484C16.2091 15.5139 16.2386 15.4853 16.2737 15.4655C16.3089 15.4456 16.3486 15.4352 16.3889 15.4352H17.6844C17.7297 15.4351 17.7741 15.4481 17.8122 15.4726C17.8503 15.4971 17.8806 15.532 17.8994 15.5733L19.4278 19.0647C19.4464 19.106 19.4767 19.141 19.5148 19.1655C19.553 19.19 19.5974 19.203 19.6428 19.2028H28.5494C28.5883 19.2029 28.6266 19.1932 28.6609 19.1748C28.6952 19.1564 28.7243 19.1297 28.7457 19.0971C28.7671 19.0646 28.7801 19.0273 28.7834 18.9885C28.7867 18.9497 28.7803 18.9107 28.7648 18.875L26.9395 14.7727Z" fill="#EEEEEE"/>
</svg>
