<svg width="22" height="21" viewBox="0 0 22 21" fill="none" xmlns="http://www.w3.org/2000/svg">
<path d="M8.33538 17.7914C6.28448 17.7914 4.37269 17.1948 2.76355 16.1656C4.12976 16.254 6.54081 16.0423 8.04048 14.6118C5.78448 14.5083 4.76707 12.7781 4.63437 12.0387C4.82605 12.1126 5.74025 12.2013 6.25632 11.9943C3.66119 11.3436 3.26308 9.06618 3.35155 8.37112C3.83813 8.71126 4.66386 8.82956 4.98825 8.79999C2.57006 7.06974 3.44002 4.46698 3.86762 3.90502C5.60301 6.30925 8.2038 7.65955 11.4213 7.73466C11.3607 7.46859 11.3286 7.19158 11.3286 6.90707C11.3286 4.86521 12.979 3.20996 15.0149 3.20996C16.0786 3.20996 17.0371 3.66183 17.7099 4.38461C18.4207 4.21805 19.4905 3.82813 20.0135 3.49094C19.7499 4.4374 18.9292 5.22694 18.4328 5.51958C18.4287 5.50958 18.4369 5.52953 18.4328 5.51958C18.8688 5.45362 20.0487 5.22686 20.5148 4.91063C20.2843 5.44234 19.4142 6.3264 18.7002 6.82134C18.833 12.6803 14.3504 17.7914 8.33538 17.7914Z" fill="#97A1AF"/>
</svg>
