<svg width="22" height="21" viewBox="0 0 22 21" fill="none" xmlns="http://www.w3.org/2000/svg">
<path d="M8.33526 18.3626C6.28435 18.3626 4.37256 17.7661 2.76343 16.7369C4.12964 16.8253 6.54069 16.6136 8.04036 15.1831C5.78436 15.0796 4.76695 13.3494 4.63424 12.6099C4.82593 12.6839 5.74013 12.7726 6.2562 12.5656C3.66107 11.9149 3.26295 9.63747 3.35142 8.94241C3.83801 9.28255 4.66373 9.40085 4.98813 9.37128C2.56993 7.64103 3.43989 5.03827 3.8675 4.47631C5.60288 6.88053 8.20368 8.23084 11.4212 8.30595C11.3605 8.03988 11.3285 7.76287 11.3285 7.47836C11.3285 5.4365 12.9789 3.78125 15.0148 3.78125C16.0785 3.78125 17.037 4.23312 17.7098 4.9559C18.4206 4.78933 19.4904 4.39942 20.0134 4.06223C19.7498 5.00869 18.9291 5.79823 18.4327 6.09086C18.4286 6.08087 18.4368 6.10082 18.4327 6.09086C18.8687 6.02491 20.0486 5.79815 20.5147 5.48192C20.2842 6.01363 19.4141 6.89769 18.7001 7.39263C18.8329 13.2516 14.3502 18.3626 8.33526 18.3626Z" fill="#97A1AF"/>
</svg>
