<svg width="33" height="19" viewBox="0 0 33 19" fill="none" xmlns="http://www.w3.org/2000/svg">
<path d="M18.2044 4.78484C16.3539 4.78676 14.5213 4.42402 12.8119 3.71747C11.1025 3.01092 9.55004 1.97449 8.2438 0.667776C8.04032 0.459529 7.78831 0.304711 7.51025 0.217123C7.23218 0.129535 6.9367 0.111902 6.65014 0.16579C6.36357 0.219679 6.09484 0.343413 5.86789 0.52597C5.64093 0.708527 5.46282 0.944229 5.34942 1.21207C4.01471 4.50519 2.44752 7.69985 0.659619 10.772C0.43786 11.1372 0.358133 11.5708 0.435532 11.9907C0.512932 12.4106 0.742084 12.7876 1.0796 13.0504C5.35511 16.3168 10.4805 18.2925 15.8481 18.7433C21.2157 19.1941 26.6004 18.1011 31.3638 15.5939C31.5797 15.4834 31.7702 15.3295 31.9232 15.1417C32.0762 14.9539 32.1883 14.7365 32.2525 14.5032C32.3167 14.2699 32.3315 14.0259 32.296 13.7866C32.2605 13.5473 32.1755 13.318 32.0463 13.1132L26.4781 4.10448C26.2459 3.73567 25.8857 3.46496 25.4661 3.34398C25.0465 3.223 24.597 3.26022 24.2031 3.44854C22.3265 4.32831 20.2782 4.78458 18.2044 4.78484Z" fill="url(#paint0_linear_643_8499)"/>
<defs>
<linearGradient id="paint0_linear_643_8499" x1="-50.5432" y1="-10.8181" x2="82.1817" y2="-10.8181" gradientUnits="userSpaceOnUse">
<stop stop-color="#3052A2"/>
<stop offset="0.84" stop-color="#00A648"/>
</linearGradient>
</defs>
</svg>
