<svg width="2" height="47" viewBox="0 0 2 47" fill="none" xmlns="http://www.w3.org/2000/svg">
<path d="M1.63948 46.4461V2.56551C1.63948 1.97249 1.65791 1.37686 1.63948 0.783842V0.705118C1.63948 0.60073 1.59788 0.500624 1.52384 0.42681C1.4498 0.352997 1.34938 0.311523 1.24467 0.311523C1.13996 0.311523 1.03953 0.352997 0.96549 0.42681C0.891448 0.500624 0.849853 0.60073 0.849853 0.705118V44.5752C0.849853 45.1682 0.834061 45.7639 0.849853 46.3569C0.849853 46.3831 0.849853 46.4094 0.849853 46.4356C0.849853 46.54 0.891448 46.6401 0.96549 46.7139C1.03953 46.7877 1.13996 46.8292 1.24467 46.8292C1.34938 46.8292 1.4498 46.7877 1.52384 46.7139C1.59788 46.6401 1.63948 46.54 1.63948 46.4356V46.4461Z" fill="#282B72"/>
</svg>
