<svg width="3" height="63" viewBox="0 0 3 63" fill="none" xmlns="http://www.w3.org/2000/svg">
<path d="M2.00009 61.856V3.5088C2.00009 2.72028 2.02458 1.92828 2.00009 1.13975V1.03507C2.00009 0.896272 1.94477 0.763162 1.84631 0.665014C1.74786 0.566865 1.61434 0.511719 1.47511 0.511719C1.33587 0.511719 1.20234 0.566865 1.10389 0.665014C1.00544 0.763162 0.950129 0.896272 0.950129 1.03507V59.3683C0.950129 60.1569 0.92913 60.9489 0.950129 61.7374C0.950129 61.7723 0.950129 61.8072 0.950129 61.8421C0.950129 61.9809 1.00544 62.114 1.10389 62.2121C1.20234 62.3103 1.33587 62.3654 1.47511 62.3654C1.61434 62.3654 1.74786 62.3103 1.84631 62.2121C1.94477 62.114 2.00009 61.9809 2.00009 61.8421V61.856Z" fill="#282B72"/>
</svg>
