<svg width="2" height="48" viewBox="0 0 2 48" fill="none" xmlns="http://www.w3.org/2000/svg">
<path d="M1.25868 46.7107V2.83016C1.25868 2.23714 1.27711 1.64151 1.25868 1.04849V0.969767C1.25868 0.865379 1.21708 0.765272 1.14304 0.691459C1.069 0.617645 0.968581 0.576172 0.86387 0.576172C0.759158 0.576172 0.658733 0.617645 0.584691 0.691459C0.510649 0.765272 0.469055 0.865379 0.469055 0.969767V44.8399C0.469055 45.4329 0.453262 46.0285 0.469055 46.6215C0.469055 46.6478 0.469055 46.674 0.469055 46.7002C0.469055 46.8046 0.510649 46.9048 0.584691 46.9786C0.658733 47.0524 0.759158 47.0938 0.86387 47.0938C0.968581 47.0938 1.069 47.0524 1.14304 46.9786C1.21708 46.9048 1.25868 46.8046 1.25868 46.7002V46.7107Z" fill="#282B72"/>
</svg>
