<svg width="33" height="19" viewBox="0 0 33 19" fill="none" xmlns="http://www.w3.org/2000/svg">
<path d="M18.2039 4.78484C16.3534 4.78676 14.5208 4.42402 12.8114 3.71747C11.102 3.01092 9.54958 1.97449 8.24335 0.667776C8.03987 0.459529 7.78786 0.304711 7.50979 0.217123C7.23172 0.129535 6.93624 0.111902 6.64968 0.16579C6.36311 0.219679 6.09438 0.343413 5.86743 0.52597C5.64048 0.708527 5.46236 0.944229 5.34896 1.21207C4.01425 4.50519 2.44706 7.69985 0.659161 10.772C0.437402 11.1372 0.357675 11.5708 0.435075 11.9907C0.512474 12.4106 0.741626 12.7876 1.07914 13.0504C5.35465 16.3168 10.48 18.2925 15.8476 18.7433C21.2152 19.1941 26.5999 18.1011 31.3634 15.5939C31.5793 15.4834 31.7698 15.3295 31.9227 15.1417C32.0757 14.9539 32.1879 14.7365 32.2521 14.5032C32.3162 14.2699 32.331 14.0259 32.2955 13.7866C32.2601 13.5473 32.175 13.318 32.0459 13.1132L26.4776 4.10448C26.2454 3.73567 25.8852 3.46496 25.4656 3.34398C25.0461 3.223 24.5965 3.26022 24.2027 3.44854C22.326 4.32831 20.2778 4.78458 18.2039 4.78484Z" fill="url(#paint0_linear_720_9375)"/>
<defs>
<linearGradient id="paint0_linear_720_9375" x1="-50.5437" y1="-10.8181" x2="82.1813" y2="-10.8181" gradientUnits="userSpaceOnUse">
<stop stop-color="#3052A2"/>
<stop offset="0.84" stop-color="#00A648"/>
</linearGradient>
</defs>
</svg>
