<svg width="100" height="45" viewBox="0 0 100 45" fill="none" xmlns="http://www.w3.org/2000/svg">
<path d="M99.8144 0.311523C94.7683 1.99586 89.4651 2.78537 84.1455 2.64423C82.4794 2.61012 65.6787 2.2795 51.697 2.64423C49.5913 2.69934 46.0327 2.83316 42.1399 4.76178C39.5453 6.06823 37.2537 7.90142 35.4122 10.1435C32.1011 14.0952 30.0454 19.065 28.2292 23.4575C25.097 31.0382 23.3598 34.3601 19.8828 34.3601H10.6047V2.06696H-3.05176e-05V44.9321H19.8855C24.9049 44.9321 29.0978 42.7725 32.3616 38.5139C34.7937 35.3336 36.444 31.3426 38.0391 27.4932C41.695 18.6373 44.3114 13.2136 51.6997 13.2136H68.932V44.9085H79.5473V13.2136H84.1008C85.8801 13.2136 89.673 12.7124 92.8999 10.7575C97.9377 7.70324 99.438 1.99086 99.8144 0.311523Z" fill="url(#paint0_linear_581_8450)"/>
<defs>
<linearGradient id="paint0_linear_581_8450" x1="-3.05176e-05" y1="22.6231" x2="99.8171" y2="22.6231" gradientUnits="userSpaceOnUse">
<stop stop-color="#3052A2"/>
<stop offset="0.84" stop-color="#00A648"/>
</linearGradient>
</defs>
</svg>
