<svg width="133" height="60" viewBox="0 0 133 60" fill="none" xmlns="http://www.w3.org/2000/svg">
<path d="M132.721 0.511719C126.012 2.75134 118.96 3.80115 111.887 3.61348C109.671 3.56812 87.3319 3.1285 68.7406 3.61348C65.9408 3.68675 61.2089 3.86469 56.0327 6.42914C52.5827 8.1663 49.5356 10.6039 47.087 13.5852C42.6842 18.8396 39.9508 25.4479 37.5359 31.2885C33.3711 41.3684 31.0612 45.7855 26.4379 45.7855H14.1009V2.84589H0V59.8428H26.4414C33.1156 59.8428 38.6909 56.9714 43.0307 51.3087C46.2646 47.0799 48.459 41.7731 50.5799 36.6547C55.4412 24.8792 58.92 17.6673 68.7441 17.6673H91.6577V59.8114H105.773V17.6673H111.827C114.193 17.6673 119.237 17.0009 123.527 14.4016C130.226 10.3404 132.221 2.7447 132.721 0.511719Z" fill="url(#paint0_linear_510_8629)"/>
<defs>
<linearGradient id="paint0_linear_510_8629" x1="0" y1="30.179" x2="132.725" y2="30.179" gradientUnits="userSpaceOnUse">
<stop stop-color="#3052A2"/>
<stop offset="0.84" stop-color="#00A648"/>
</linearGradient>
</defs>
</svg>
