<svg width="33" height="19" viewBox="0 0 33 19" fill="none" xmlns="http://www.w3.org/2000/svg">
<path d="M18.2044 4.78484C16.3539 4.78676 14.5213 4.42402 12.8119 3.71747C11.1025 3.01092 9.55007 1.97449 8.24383 0.667776C8.04035 0.459529 7.78834 0.304711 7.51028 0.217123C7.23221 0.129535 6.93673 0.111902 6.65017 0.16579C6.3636 0.219679 6.09487 0.343413 5.86792 0.52597C5.64097 0.708527 5.46285 0.944229 5.34945 1.21207C4.01474 4.50519 2.44755 7.69985 0.659649 10.772C0.43789 11.1372 0.358163 11.5708 0.435563 11.9907C0.512962 12.4106 0.742114 12.7876 1.07963 13.0504C5.35514 16.3168 10.4805 18.2925 15.8481 18.7433C21.2157 19.1941 26.6004 18.1011 31.3639 15.5939C31.5798 15.4834 31.7702 15.3295 31.9232 15.1417C32.0762 14.9539 32.1884 14.7365 32.2525 14.5032C32.3167 14.2699 32.3315 14.0259 32.296 13.7866C32.2605 13.5473 32.1755 13.318 32.0463 13.1132L26.4781 4.10448C26.2459 3.73567 25.8857 3.46496 25.4661 3.34398C25.0465 3.223 24.597 3.26022 24.2032 3.44854C22.3265 4.32831 20.2782 4.78458 18.2044 4.78484Z" fill="url(#paint0_linear_510_8630)"/>
<defs>
<linearGradient id="paint0_linear_510_8630" x1="-50.5432" y1="-10.8181" x2="82.1818" y2="-10.8181" gradientUnits="userSpaceOnUse">
<stop stop-color="#3052A2"/>
<stop offset="0.84" stop-color="#00A648"/>
</linearGradient>
</defs>
</svg>
