<svg width="3" height="63" viewBox="0 0 3 63" fill="none" xmlns="http://www.w3.org/2000/svg">
<path d="M2.00015 61.856V3.5088C2.00015 2.72028 2.02465 1.92828 2.00015 1.13975V1.03507C2.00015 0.896272 1.94483 0.763162 1.84638 0.665014C1.74792 0.566865 1.6144 0.511719 1.47517 0.511719C1.33594 0.511719 1.2024 0.566865 1.10395 0.665014C1.0055 0.763162 0.95019 0.896272 0.95019 1.03507V59.3683C0.95019 60.1569 0.929191 60.9489 0.95019 61.7374C0.95019 61.7723 0.95019 61.8072 0.95019 61.8421C0.95019 61.9809 1.0055 62.114 1.10395 62.2121C1.2024 62.3103 1.33594 62.3654 1.47517 62.3654C1.6144 62.3654 1.74792 62.3103 1.84638 62.2121C1.94483 62.114 2.00015 61.9809 2.00015 61.8421V61.856Z" fill="#282B72"/>
</svg>
