<svg width="33" height="26" viewBox="0 0 33 26" fill="none" xmlns="http://www.w3.org/2000/svg">
<path d="M16.6612 0.453125C6.24885 0.453125 0.0755005 12.7998 0.0755005 12.7998C0.0755005 12.7998 6.24885 25.1465 16.6612 25.1465C26.8267 25.1465 33 12.7998 33 12.7998C33 12.7998 26.8267 0.453125 16.6612 0.453125ZM16.5378 4.56869C21.106 4.56869 24.7689 8.27269 24.7689 12.7998C24.7689 17.3681 21.106 21.0309 16.5378 21.0309C12.0106 21.0309 8.30663 17.3681 8.30663 12.7998C8.30663 8.27269 12.0106 4.56869 16.5378 4.56869ZM16.5378 8.68425C14.2742 8.68425 12.4222 10.5363 12.4222 12.7998C12.4222 15.0634 14.2742 16.9154 16.5378 16.9154C18.8013 16.9154 20.6533 15.0634 20.6533 12.7998C20.6533 12.3883 20.4887 12.0179 20.4064 11.6475C20.0771 12.3059 19.4186 12.7998 18.5955 12.7998C17.4432 12.7998 16.5378 11.8944 16.5378 10.742C16.5378 9.91892 17.0316 9.26043 17.6901 8.93118C17.3197 8.80772 16.9493 8.68425 16.5378 8.68425Z" fill="white"/>
</svg>
