<svg width="3" height="63" viewBox="0 0 3 63" fill="none" xmlns="http://www.w3.org/2000/svg">
<path d="M1.99972 61.856V3.5088C1.99972 2.72028 2.02422 1.92828 1.99972 1.13975V1.03507C1.99972 0.896272 1.9444 0.763162 1.84595 0.665014C1.7475 0.566865 1.61397 0.511719 1.47474 0.511719C1.33551 0.511719 1.20197 0.566865 1.10352 0.665014C1.00507 0.763162 0.949763 0.896272 0.949763 1.03507V59.3683C0.949763 60.1569 0.928764 60.9489 0.949763 61.7374C0.949763 61.7723 0.949763 61.8072 0.949763 61.8421C0.949763 61.9809 1.00507 62.114 1.10352 62.2121C1.20197 62.3103 1.33551 62.3654 1.47474 62.3654C1.61397 62.3654 1.7475 62.3103 1.84595 62.2121C1.9444 62.114 1.99972 61.9809 1.99972 61.8421V61.856Z" fill="#282B72"/>
</svg>
