<svg width="106" height="48" viewBox="0 0 106 48" fill="none" xmlns="http://www.w3.org/2000/svg">
<path d="M105.703 0C100.359 1.78369 94.7429 2.61979 89.1095 2.47032C87.3451 2.4342 69.5533 2.08407 54.7468 2.47032C52.5169 2.52868 48.7484 2.67039 44.6258 4.71278C41.8782 6.0963 39.4514 8.03764 37.5013 10.412C33.9948 14.5968 31.8179 19.8598 29.8946 24.5114C26.5776 32.5393 24.7379 36.0572 21.0558 36.0572H11.2303V1.85899H0V47.2528H21.0586C26.3741 47.2528 30.8144 44.9659 34.2707 40.456C36.8463 37.0881 38.594 32.8616 40.2831 28.7852C44.1548 19.4069 46.9254 13.6632 54.7496 13.6632H72.9985V47.2278H84.24V13.6632H89.0621C90.9464 13.6632 94.963 13.1324 98.3803 11.0622C103.715 7.82777 105.304 1.77841 105.703 0Z" fill="url(#paint0_linear_484_8420)"/>
<defs>
<linearGradient id="paint0_linear_484_8420" x1="0" y1="23.6278" x2="105.706" y2="23.6278" gradientUnits="userSpaceOnUse">
<stop stop-color="#3052A2"/>
<stop offset="0.84" stop-color="#00A648"/>
</linearGradient>
</defs>
</svg>
