<svg width="26" height="16" viewBox="0 0 26 16" fill="none" xmlns="http://www.w3.org/2000/svg">
<path d="M14.3195 4.05705C12.8458 4.05858 11.3862 3.76969 10.0248 3.20697C8.6634 2.64425 7.427 1.81882 6.38668 0.778118C6.22462 0.612265 6.02392 0.488964 5.80246 0.419206C5.581 0.349449 5.34567 0.335406 5.11744 0.378324C4.88922 0.421242 4.67519 0.519787 4.49444 0.66518C4.31369 0.810573 4.17183 0.998292 4.08152 1.2116C3.01852 3.83433 1.77037 6.37864 0.346444 8.8254C0.16983 9.11627 0.106333 9.4616 0.167976 9.796C0.229619 10.1304 0.412121 10.4307 0.680928 10.6399C4.08605 13.2414 8.16803 14.8149 12.4429 15.1739C16.7178 15.533 21.0063 14.6625 24.8001 12.6657C24.972 12.5777 25.1237 12.455 25.2456 12.3055C25.3674 12.156 25.4567 11.9828 25.5078 11.797C25.5589 11.6112 25.5707 11.4169 25.5425 11.2263C25.5142 11.0357 25.4465 10.853 25.3436 10.69L20.9089 3.5152C20.724 3.22147 20.4371 3.00587 20.1029 2.90952C19.7688 2.81316 19.4107 2.84281 19.0971 2.99279C17.6025 3.69346 15.9712 4.05684 14.3195 4.05705Z" fill="url(#paint0_linear_484_8421)"/>
<defs>
<linearGradient id="paint0_linear_484_8421" x1="-40.4328" y1="-8.36956" x2="65.2727" y2="-8.36956" gradientUnits="userSpaceOnUse">
<stop stop-color="#3052A2"/>
<stop offset="0.84" stop-color="#00A648"/>
</linearGradient>
</defs>
</svg>
