<svg width="25" height="15" viewBox="0 0 25 15" fill="none" xmlns="http://www.w3.org/2000/svg">
<path d="M14.2937 4.36005C12.902 4.36149 11.5237 4.08869 10.2382 3.55732C8.95261 3.02595 7.78508 2.2465 6.80272 1.26377C6.64969 1.10716 6.46016 0.990723 6.25104 0.924852C6.04191 0.85898 5.81969 0.845719 5.60418 0.886246C5.38867 0.926774 5.18656 1.01983 5.01588 1.15712C4.8452 1.29442 4.71125 1.47168 4.62597 1.67311C3.62218 4.14973 2.44356 6.55231 1.09896 8.86277C0.932181 9.13743 0.872221 9.46353 0.93043 9.7793C0.988639 10.0951 1.16098 10.3786 1.41481 10.5762C4.63025 13.0328 8.48483 14.5186 12.5216 14.8577C16.5583 15.1967 20.608 14.3747 24.1904 12.4891C24.3527 12.406 24.496 12.2902 24.611 12.149C24.7261 12.0078 24.8104 11.8443 24.8587 11.6688C24.907 11.4934 24.9181 11.3099 24.8914 11.1299C24.8647 10.9499 24.8008 10.7775 24.7036 10.6235L20.516 3.84838C20.3414 3.57101 20.0704 3.36742 19.7549 3.27644C19.4394 3.18545 19.1013 3.21344 18.8051 3.35507C17.3937 4.01671 15.8533 4.35985 14.2937 4.36005Z" fill="url(#paint0_linear_581_8451)"/>
<defs>
<linearGradient id="paint0_linear_581_8451" x1="-37.4087" y1="-7.37432" x2="62.4084" y2="-7.37432" gradientUnits="userSpaceOnUse">
<stop stop-color="#3052A2"/>
<stop offset="0.84" stop-color="#00A648"/>
</linearGradient>
</defs>
</svg>
