<svg width="30" height="31" viewBox="0 0 30 31" fill="none" xmlns="http://www.w3.org/2000/svg">
<g clip-path="url(#clip0_551_8389)">
<path d="M19.442 15.5839C19.442 13.2041 17.5059 11.2681 15.1261 11.2681C12.7463 11.2681 10.8102 13.2041 10.8102 15.5839C10.8102 17.9637 12.7463 19.8998 15.1261 19.8998C17.5059 19.8998 19.442 17.9637 19.442 15.5839ZM15.1261 18.1735C13.6983 18.1735 12.5366 17.0118 12.5366 15.5839C12.5366 14.1561 13.6983 12.9944 15.1261 12.9944C16.554 12.9944 17.7156 14.1561 17.7156 15.5839C17.7156 17.0118 16.554 18.1735 15.1261 18.1735Z" fill="#EEEEEE"/>
<path d="M15.1261 14.7207C14.6503 14.7207 14.263 15.108 14.263 15.5839C14.263 16.0597 14.6503 16.4471 15.1261 16.4471C15.602 16.4471 15.9893 16.0597 15.9893 15.5839C15.9893 15.108 15.602 14.7207 15.1261 14.7207Z" fill="#EEEEEE"/>
<path d="M7.465 15.5838C8.05753 16.4562 8.75189 17.2135 9.52111 17.84C9.23945 17.1425 9.0839 16.3811 9.0839 15.5838C9.0839 14.7865 9.23945 14.0251 9.52111 13.3276C8.75189 13.9541 8.05753 14.7114 7.465 15.5838Z" fill="#EEEEEE"/>
<path d="M22.7873 15.5838C22.1947 14.7114 21.5004 13.9541 20.7311 13.3276C21.0128 14.0251 21.1683 14.7865 21.1683 15.5838C21.1683 16.3811 21.0128 17.1425 20.7311 17.84C21.5004 17.2135 22.1947 16.4562 22.7873 15.5838Z" fill="#EEEEEE"/>
<path d="M14.9355 9.54449C14.9989 9.54246 15.0623 9.54112 15.1261 9.54112C15.19 9.54112 15.2536 9.54246 15.3167 9.54449C18.5109 9.6045 21.5199 11.1717 23.6372 13.8275C22.8228 9.87492 19.3161 6.89404 15.1261 6.89404C10.9361 6.89404 7.42948 9.87492 6.61508 13.8275C8.73233 11.1717 11.7413 9.6045 14.9355 9.54449Z" fill="#EEEEEE"/>
<path d="M15.3167 21.6224C15.2534 21.6244 15.19 21.6258 15.1261 21.6258C15.0623 21.6258 14.9989 21.6244 14.9355 21.6224C11.7413 21.5624 8.73233 19.9952 6.61508 17.3394C7.42948 21.292 10.9361 24.2729 15.1261 24.2729C19.3161 24.2729 22.8228 21.292 23.6372 17.3394C21.5199 19.9952 18.5109 21.5624 15.3167 21.6224Z" fill="#EEEEEE"/>
<path d="M29.8577 18.8807V12.2864L27.5813 11.831C27.3313 11.0009 26.9979 10.1973 26.5857 9.43121L27.8744 7.49828L23.2114 2.83533L21.2785 4.12403C20.5124 3.71177 19.7088 3.37841 18.8787 3.12845L18.4233 0.852051H11.829L11.3736 3.12845C10.5434 3.37841 9.73959 3.71177 8.97375 4.12403L7.04082 2.83533L2.37787 7.49828L3.66657 9.43121C3.25431 10.1973 2.92095 11.0009 2.67099 11.831L0.394592 12.2864V18.8807L2.67099 19.3361C2.92095 20.1663 3.25431 20.9699 3.66657 21.736L2.37787 23.6689L7.04082 28.3318L8.97375 27.0431C9.73982 27.4554 10.5434 27.7888 11.3736 28.0387L11.829 30.3151H18.4233L18.8787 28.0387C19.7088 27.7888 20.5127 27.4554 21.2785 27.0431L23.2114 28.3318L27.8744 23.6689L26.5857 21.736C26.9979 20.9699 27.3313 20.1663 27.5813 19.3361L29.8577 18.8807ZM15.1261 25.9992C9.38286 25.9992 4.71047 21.3268 4.71047 15.5836C4.71047 9.84032 9.38286 5.16793 15.1261 5.16793C20.8694 5.16793 25.5418 9.84032 25.5418 15.5836C25.5418 21.3268 20.8694 25.9992 15.1261 25.9992Z" fill="#EEEEEE"/>
</g>
<defs>
<clipPath id="clip0_551_8389">
<rect width="29.4631" height="29.4631" fill="white" transform="translate(0.394592 0.852051)"/>
</clipPath>
</defs>
</svg>
